<?xml version="1.0" encoding="UTF-8" standalone="no"?>
<!-- Generator: Adobe Illustrator 19.1.0, SVG Export Plug-In . SVG Version: 6.00 Build 0)  -->
<svg id="Layer_1" style="enable-background:new 0 0 96 93.4" xmlns="http://www.w3.org/2000/svg" xml:space="preserve" viewBox="0 0 96 93.4" version="1.1" y="0px" x="0px" xmlns:xlink="http://www.w3.org/1999/xlink">
<style type="text/css">
	.st0{opacity:0.8;fill:#1EBCEF;}
	.st1{fill:#FFFFFF;}
	.st2{fill:#010101;}
</style>
	<path class="st0" d="m62.1 1.3s4.4 12.5 17 7.7c-1.8 5.9 0 15.3 12.3 16.9 0 0-7.3 11.3 4.6 17.8 0 0-13.7 8.6-3 19.2-9.9-0.6-6.4 7.7-3.8 16.2-6.2-3.2-20.2-2.2-19.9 11.8-5.6-4-13.4-8.6-22.1 2.6-7.1-9.8-20.3-1.7-20.3-1.7-0.5-4.7-0.7-13.1-13-13.1 0 0 3.9-12-9.4-15.1 2.5-4.3 4.5-16.1-4.5-17.7 9.6-4.8 7.3-16 3.2-21.2 7.4 1.3 17.6-1.2 15.2-14.7 10.4 3.5 19.6 3.1 20.8-10 10.3 11.9 22.9 1.3 22.9 1.3z"/>
	<polygon points="15.8 17.2 65.4 9 79 70.2 20.8 83.7" class="st1"/>
				<path class="st2" d="m83 78.1c0.1 0.8-1.1 1.6-2.7 1.8l-49 6.2c-1.6 0.2-3 0.1-3.2-0.2-0.1-0.3 1-0.7 2.6-0.9l49.1-8c1.7-0.2 3.1 0.2 3.2 1.1z"/>
		<path class="st2" d="m34.5 48c0.7 0.3 1.7 0.5 2.5 0.4 1.2-0.1 2.2-0.5 3-1.6 2.4-3.2 2.8-8.9 2.1-12.3-0.2-0.9-0.6-1.7-1.4-2.2-0.7-0.5-1.8-0.7-2.9-0.7-0.8 0-1.9 0.5-2.5 1.2-3 3.5-4.1 10.2-2.4 13.5 0.4 0.8 1 1.4 1.6 1.7zm1.4-8.2c0.5-2.5 1.8-5.6 2.6-5.4 0.8 0.1 0.9 3.6 0.5 6-0.5 3.1-1.5 5.5-2.5 5.3-1-0.1-1.1-3.4-0.6-5.9z"/>
		<path class="st2" d="m45.1 44.1c0.1 0.6 0.6 1.5 1.4 1.8 0.7 0.3 1.4 0.5 2.2 0.7 0.8 0.1 1.1-0.1 1.4-0.9 1.2-3.7 3.5-11.3 4-14.4 0.1-0.7 0.1-1.1-0.4-1.4-0.4-0.3-0.9-0.5-1.4-0.7-0.5-0.1-0.9 0-1 0.6-1 3.7-2.2 8-3.3 12-0.6-3.7-1-7.5-1.3-9.6-0.1-0.8-0.5-1.2-1.1-1.3-0.5-0.1-1-0.1-1.5 0s-0.6 0.3-0.6 0.9c0.3 4.4 0.8 8.9 1.6 12.3z"/>
		<path class="st2" d="m57.9 44.7c1.3-0.6 2.8-1.2 4.2-1.8 0.5-0.2 0.6-0.4 0.5-1-0.1-0.5-0.3-0.9-0.6-1.4-0.3-0.4-0.6-0.5-1.1-0.4-1.1 0.3-1.9 0.5-2.9 0.9 0.1-0.8 0.2-1.6 0.4-2.4 1.2-0.5 2.6-1.1 3.8-1.5 0.5-0.2 0.7-0.4 0.5-0.9-0.1-0.5-0.3-0.9-0.6-1.4-0.3-0.4-0.6-0.5-1.1-0.4-0.7 0.1-1.3 0.3-1.9 0.5 0.2-1.3 0.5-2.5 0.7-3.6 1.3-0.5 2.7-0.9 3.8-1.2 0.5-0.1 0.7-0.4 0.5-0.9-0.1-0.5-0.3-0.8-0.5-1.3-0.2-0.4-0.6-0.6-1.1-0.5-2.3 0.5-5.4 1.4-7 2.2-0.4 0.2-0.5 0.3-0.3 0.8 0.2 0.4 0.5 1.1 0.9 1.5-0.5 3.5-1.2 8.1-1.3 10.4 0 0.7 0.2 1.2 0.6 1.6 0.5 0.4 0.8 0.6 1.2 0.9 0 0.2 0.4 0.3 1.3-0.1z"/>
		<path class="st2" d="m35.8 57.2c0.4 0.1 0.6 0 0.7-0.4 0.3-0.9 0.5-2.6 0.5-3.5 0-0.6-0.1-1.3-0.8-1.8-0.5-0.4-1.3-0.7-2-0.9-0.9-0.2-1.6 0.3-2 0.6-1.1 1-2.1 2.7-2.4 4.1-0.4 1.6 0.2 2.9 1.1 3.6 1.3 1.1 3.6 2 3.1 2.6-0.4 0.5-1.7 0.4-3-0.5-0.5-0.3-1.4-0.2-2 0.2-0.4 0.3-0.4 0.6 0.3 1.3 1.4 1.4 2.8 1.9 4.2 1.6 2-0.4 2.8-2 3.1-2.9 0.6-2-2.2-2.6-3.6-4-1.4-1.3 0.8-4.4 1.3-4.3 0.3 0.1-0.1 1.7-0.1 2.5-0.1 1 0.5 1.5 1.6 1.8z"/>
		<path class="st2" d="m46.1 50c-0.1-0.4-0.4-0.9-0.7-1.3-0.2-0.2-0.4-0.3-0.8-0.2-1.9 0.4-4.9 1.2-6.7 2-0.3 0.1-0.4 0.2-0.2 0.6s0.5 1 0.8 1.4c0.3 0.3 0.5 0.4 0.9 0.2 0.3-0.1 0.8-0.3 1.2-0.5-0.4 2.7-0.9 6.9-1 9.1 0 0.6 0.1 0.9 0.5 1.1s0.9 0.3 1.4 0.4c0.4 0 0.6-0.1 0.6-0.5 0.4-3.3 0.9-7.7 1.5-11 0.8-0.2 1.5-0.4 2.2-0.6 0.4-0.1 0.4-0.3 0.3-0.7z"/>
		<path class="st2" d="m52.9 48.3c-0.5-0.4-1.5-0.6-2.4-0.6-0.7 0-1.5 0.4-2.1 1-2.4 2.8-3.3 8.3-2 11.1 0.3 0.6 0.8 1.1 1.3 1.3 0.6 0.3 1.4 0.4 2.1 0.4 1 0 1.8-0.4 2.5-1.3 1.9-2.6 2.3-7.3 1.7-10-0.2-0.9-0.5-1.5-1.1-1.9zm-1.5 6.6c-0.4 2.6-1.3 4.5-2 4.3-0.8-0.2-0.9-2.8-0.5-4.8s1.5-4.5 2.1-4.4c0.7 0 0.7 2.9 0.4 4.9z"/>
		<path class="st2" d="m63.6 51.6c0.7-0.9 1-1.9 0.7-3s-0.9-1.8-1.5-2.4c-1.5-1.3-5.2 0.3-7 1.8-0.4 0.3-0.4 0.6-0.1 1 0.2 0.3 0.4 0.7 0.7 0.9-0.4 3.1-0.9 6.8-1 8.8 0 0.6 0.1 0.9 0.5 1.1 0.3 0.2 0.7 0.2 1.2 0.3 0.4 0 0.6-0.1 0.6-0.5 0.1-1.2 0.3-2.6 0.5-3.9 1 1.2 2.4 2.5 3.3 3.1 0.7 0.4 1.1 0.3 1.5 0.1 0.3-0.2 0.5-0.2 0.8-0.6 0.2-0.3 0.3-0.5-0.1-0.8-0.9-0.8-2.3-2.1-3.1-3.1 1.3-0.8 2.4-1.8 3-2.8zm-4.8 1.2c0.2-1.3 0.4-2.5 0.7-3.6 1.2-0.9 2.4-0.9 2.6-0.5 0.2 0.7-1.1 2.8-3.3 4.1z"/>
		<path class="st2" d="m71.9 44c-0.4-0.2-0.6-0.1-0.8 0.3-0.7 1.8-1.5 3.7-2.3 5.5-0.5-1.6-1-3.1-1.4-4.1-0.2-0.5-0.4-0.7-0.8-0.7s-1 0.1-1.4 0.2-0.5 0.3-0.4 0.7c0.6 2 1.6 4.8 2.3 7.2-0.1 1.5-0.3 2.8-0.3 3.8 0 0.6 0.1 0.9 0.5 1.1s0.9 0.3 1.3 0.4c0.4 0 0.6 0 0.6-0.5 0.1-1.3 0.3-2.7 0.5-4.2 1.3-2.9 2.9-6.4 3.3-7.9 0.2-0.6 0.2-0.9-0.2-1.2-0.1-0.2-0.5-0.4-0.9-0.6z"/>
		<path class="st2" d="m84.7 72.2l-12.7-63.8c-0.1-0.4-0.3-0.7-0.6-0.9s-0.7-0.3-1.1-0.2c-0.1 0-17.8 4.1-27.6 5.9-11.6 2.2-24.6 4.2-24.7 4.2-0.8 0.1-1.3 0.9-1.2 1.6l8.4 64.5c0.1 0.4 0.3 0.7 0.6 1 0.3 0.2 0.6 0.3 0.9 0.3h0.2c0.1 0 14.1-1.9 28-4.5 9.2-1.7 28.6-6.4 28.7-6.4 0.7-0.2 1.2-0.9 1.1-1.7zm-30.4 5.3c-11.2 2.1-22.5 3.7-26.4 4.3l-4.2-31.8c0.1 0 0.2 0.1 0.2 0.1 0.7 0.2 1.5 0.5 2.6 0.4 1-0.1 2.1-0.6 2.7-1.3s1.2-1.7 1.5-2.7c0.3-0.9 0.3-1.5-0.5-1.6-1-0.2-1.9 0.2-2.5 1.1-0.8 1.3-1.4 1.9-1.9 1.8-0.9-0.2-1-3.1-0.5-5.7 0.5-2.4 1.9-6.1 2.7-5.9 0.6 0.1 0.4 1.3 0.6 2.2 0.2 1.2 0.8 1.7 2.2 1.8 0.7 0 0.8-0.3 0.8-0.7 0.2-0.9 0.2-2.3 0.1-3.3-0.1-0.9-0.4-1.6-1.2-2.1-0.7-0.5-2.1-0.8-3.2-0.7-0.7 0-1.6 0.4-2.4 1.3-1.1 1.3-2 3.2-2.6 5.2l-2.6-19.5c3.7-0.6 14-2.2 23.4-4 7.6-1.4 23-4.9 26.2-5.6l3.1 15.6c-2.1-0.9-5.9 0.9-7.9 2.5-0.5 0.4-0.4 0.7-0.1 1.3 0.2 0.4 0.5 0.8 0.8 1.1-0.5 3.8-1.1 8.4-1.2 10.8 0 0.7 0.1 1.1 0.6 1.3 0.4 0.2 0.9 0.3 1.4 0.3s0.7-0.1 0.8-0.6c0.2-1.5 0.4-3.2 0.7-4.8 1.2 1.5 3 3.1 4.1 3.8 0.8 0.5 1.4 0.4 1.8 0.2s0.6-0.3 1-0.7c0.3-0.4 0.4-0.6-0.1-1-1.1-1-2.8-2.6-3.8-3.8 1.4-1 2.6-2.1 3.4-3.2l7.6 38.2c-3.3 0.5-19.9 4.3-27.2 5.7zm13.8-43c0.3-1.6 0.5-3.1 0.8-4.4 1.5-1 2.9-1.2 3.1-0.6 0.4 0.8-1.1 3.4-3.9 5z"/>
</svg>
