<svg xmlns="http://www.w3.org/2000/svg" width="412" height="64" viewBox="0 0 412 64"><path fill="#fff" d="M373.416 63.028H1.406l37.368-63H410.78z"/><path d="M69.75 13.288L66.727 26.8h-1.285c-.106-1.876-.312-3.565-.62-5.072-.308-1.51-.763-2.793-1.37-3.853-.6-1.06-1.375-1.876-2.31-2.444-.937-.57-2.092-.854-3.458-.854-1.14 0-2.23.31-3.273.935-1.042.623-2.023 1.478-2.945 2.563-.917 1.083-1.755 2.356-2.508 3.812-.755 1.453-1.404 3.02-1.946 4.705-.545 1.684-.964 3.43-1.26 5.232-.3 1.804-.448 3.59-.448 5.362 0 1.77.16 3.363.487 4.785.325 1.42.802 2.626 1.444 3.627.64.997 1.44 1.767 2.403 2.298.967.536 2.088.803 3.367.803 1.227 0 2.35-.204 3.378-.617 1.023-.41 1.99-.988 2.892-1.734.902-.745 1.757-1.64 2.563-2.68.805-1.043 1.593-2.196 2.366-3.457l1.34.865c-.755 1.332-1.594 2.61-2.525 3.84-.926 1.227-1.98 2.312-3.154 3.256-1.172.95-2.49 1.71-3.953 2.277-1.463.568-3.115.856-4.957.856-1.927 0-3.667-.34-5.217-1.013-1.552-.675-2.876-1.638-3.97-2.88-1.095-1.246-1.937-2.734-2.524-4.47-.59-1.735-.878-3.67-.878-5.81 0-2.138.245-4.214.735-6.233.487-2.013 1.176-3.915 2.06-5.702.885-1.787 1.943-3.427 3.17-4.916 1.228-1.49 2.576-2.773 4.047-3.853 1.474-1.078 3.047-1.916 4.72-2.51 1.675-.595 3.396-.894 5.166-.894 1.788 0 3.312.24 4.575.723 1.26.482 2.358 1.136 3.286 1.958l1.946-2.418h1.68zM102.837 27.43c0 1.947-.21 3.888-.63 5.824-.42 1.935-1.04 3.79-1.855 5.56-.815 1.77-1.802 3.418-2.97 4.94-1.165 1.526-2.495 2.855-3.996 3.984-1.497 1.132-3.146 2.016-4.942 2.654-1.797.64-3.727.958-5.797.958-1.807 0-3.48-.34-5.022-1.022-1.54-.684-2.88-1.66-4.02-2.933-1.14-1.27-2.035-2.803-2.682-4.6-.648-1.795-.973-3.808-.973-6.032 0-1.927.215-3.86.646-5.797.428-1.936 1.045-3.785 1.85-5.545.808-1.763 1.796-3.405 2.96-4.93 1.166-1.523 2.494-2.852 3.98-3.982 1.492-1.13 3.13-2.015 4.918-2.654 1.787-.64 3.697-.96 5.73-.96 1.842 0 3.542.342 5.1 1.022 1.56.687 2.916 1.66 4.064 2.92 1.145 1.264 2.04 2.792 2.678 4.587.64 1.796.96 3.8.96 6.007m-6.73-1.708c0-1.56-.11-3.024-.326-4.39-.222-1.368-.584-2.555-1.09-3.56-.51-1.01-1.176-1.804-1.997-2.38-.825-.58-1.842-.87-3.052-.87-1.365 0-2.632.373-3.8 1.12-1.163.745-2.23 1.742-3.193 2.997-.963 1.25-1.815 2.697-2.55 4.334-.734 1.64-1.356 3.353-1.865 5.14s-.894 3.584-1.157 5.39c-.265 1.804-.395 3.496-.395 5.072 0 1.632.118 3.127.354 4.483.237 1.358.62 2.527 1.143 3.51.526.98 1.2 1.742 2.024 2.285.825.543 1.825.815 3 .815 1.35 0 2.607-.375 3.77-1.13 1.167-.755 2.23-1.758 3.182-3.01.955-1.255 1.806-2.7 2.55-4.338.747-1.64 1.37-3.348 1.87-5.125.496-1.78.878-3.563 1.14-5.35.265-1.787.395-3.453.395-4.995"/><path d="M141.105 13.708l-.34 1.184c-.192.018-.42.057-.684.12-.262.06-.547.135-.853.22-.307.09-.608.2-.906.33-.3.133-.578.27-.84.408-.808.456-1.533 1.05-2.172 1.788s-1.29 1.595-1.958 2.58c-.735 1.03-1.62 2.317-2.654 3.863-1.032 1.543-2.154 3.23-3.366 5.06-1.208 1.833-2.46 3.75-3.758 5.756-1.296 2.007-2.57 3.975-3.826 5.903-1.252 1.927-2.45 3.762-3.588 5.507-1.14 1.742-2.137 3.273-2.998 4.59h-2.603c-.015-.355-.038-1.07-.066-2.16-.023-1.087-.054-2.392-.09-3.915-.037-1.524-.074-3.21-.117-5.06-.043-1.85-.083-3.72-.12-5.614-.037-1.894-.07-3.73-.106-5.52-.032-1.79-.07-3.393-.102-4.81-.037-1.42-.063-2.586-.08-3.498-.018-.912-.036-1.426-.055-1.55-.05-.788-.147-1.425-.287-1.907-.14-.482-.455-.89-.946-1.222-.352-.245-.8-.443-1.34-.59-.544-.15-1.088-.24-1.63-.276l.316-1.184h15.772l-.315 1.184c-1.246.143-2.19.32-2.84.54-.648.217-1.12.448-1.42.694-.368.228-.622.55-.764.962-.14.41-.208.826-.208 1.25 0 .067.006.43.012 1.088.01.66.027 1.512.055 2.563.024 1.054.05 2.247.066 3.578.016 1.335.044 2.702.077 4.116.037 1.41.067 2.81.095 4.2.024 1.397.05 2.67.08 3.83l.065 2.996c.015.843.033 1.41.052 1.708.085-.14.33-.504.72-1.095.395-.584.87-1.29 1.42-2.125.55-.835 1.146-1.73 1.776-2.68.63-.957 1.238-1.88 1.827-2.764.584-.884 1.11-1.683 1.576-2.394.463-.707.8-1.222 1.01-1.535 1.334-2.07 2.45-3.8 3.352-5.193.903-1.392 1.547-2.415 1.932-3.063.228-.368.465-.768.71-1.196.246-.43.464-.84.657-1.237.192-.394.356-.757.49-1.09.13-.333.196-.594.196-.79 0-.328-.158-.633-.477-.905-.316-.272-.71-.51-1.182-.71-.473-.2-.986-.367-1.54-.5-.55-.13-1.064-.213-1.536-.25l.315-1.183h13.198zM169.33 13.708l-2.21 8.937h-1.364v-.417c-.036-.737-.118-1.49-.25-2.25-.13-.763-.332-1.458-.605-2.092-.27-.63-.614-1.163-1.026-1.6-.414-.44-.896-.702-1.458-.792-.51-.082-1.09-.153-1.747-.198-.66-.042-1.365-.065-2.12-.065h-4.624l-3.89 15.433h3.07c.654 0 1.22-.053 1.7-.157.48-.106.907-.243 1.274-.408.37-.166.687-.347.962-.54.27-.19.503-.375.695-.553.264-.228.53-.55.8-.968.274-.425.54-.875.804-1.358.265-.483.504-.965.723-1.448.22-.476.4-.896.54-1.246h1.393l-3.865 15.142h-1.312c.07-.3.118-.64.144-1.026.025-.382.038-.793.038-1.232 0-.616-.04-1.21-.12-1.79-.076-.577-.186-.988-.328-1.23-.104-.196-.24-.39-.405-.584-.17-.192-.396-.36-.684-.513-.29-.148-.65-.27-1.08-.367-.43-.097-.958-.145-1.59-.145h-3.13l-3.074 11.88c-.14.512-.247.99-.316 1.438-.07.447-.106.817-.106 1.115 0 .475.084.855.252 1.146.167.287.43.515.787.684.358.164.826.277 1.395.34.568.062 1.266.09 2.09.09.7 0 1.41-.008 2.13-.025.718-.02 1.405-.068 2.062-.157.657-.09 1.255-.22 1.803-.394.542-.177.988-.422 1.34-.737.596-.527 1.208-1.158 1.84-1.896.63-.733 1.226-1.48 1.788-2.233.56-.752 1.06-1.468 1.498-2.143.435-.674.772-1.222 1-1.64h1.287l-3.288 10.776h-28.73l.366-1.184c.193-.015.47-.048.827-.093.36-.042.74-.095 1.133-.157s.77-.128 1.13-.197c.36-.07.633-.14.827-.212.593-.242 1.055-.597 1.382-1.062.32-.465.564-1.004.72-1.616l6.73-26.923c.088-.33.158-.65.21-.958.05-.304.078-.547.078-.722 0-.352-.064-.64-.197-.867-.13-.228-.374-.438-.72-.633-.194-.085-.443-.184-.752-.287-.306-.107-.63-.202-.972-.288-.343-.09-.67-.168-.986-.24-.315-.07-.578-.12-.787-.157l.314-1.183h26.606zM201.623 42.15c0 .037-.012.102-.038.2-.027.095-.054.21-.08.34l-.08.382c-.025.125-.048.21-.066.263-.3 1.14-.634 2.188-1.013 3.14-.375.956-.852 1.775-1.433 2.46-.58.683-1.284 1.212-2.115 1.592-.834.376-1.845.565-3.038.565-1.77 0-3.102-.55-3.995-1.646-.894-1.094-1.343-2.834-1.343-5.217 0-.737.017-1.55.053-2.445.036-.893.054-1.866.054-2.917 0-.947-.074-1.802-.22-2.562-.152-.764-.428-1.41-.83-1.933-.405-.526-.965-.936-1.684-1.226-.722-.287-1.64-.432-2.76-.432h-1.605l-3.23 12.698c-.053.23-.1.497-.145.812-.044.317-.065.555-.065.71 0 .35.074.646.223.883.147.237.398.46.748.67.108.07.294.146.566.232.272.093.574.175.91.252.33.08.667.15 1.01.213.34.06.646.102.906.116l-.26 1.185h-16.38l.263-1.184c.157-.014.403-.04.737-.076.33-.036.68-.08 1.05-.133.368-.05.72-.115 1.052-.184.333-.067.588-.14.763-.21.613-.245 1.077-.594 1.394-1.05.315-.456.55-.983.71-1.577l6.783-27.078c.047-.246.122-.542.21-.882.086-.34.13-.61.13-.802 0-.666-.326-1.148-.974-1.447-.176-.084-.412-.183-.714-.286-.293-.107-.6-.202-.914-.29-.317-.09-.628-.167-.936-.238-.305-.07-.55-.12-.722-.157l.264-1.185h14.8c3.416 0 6.033.622 7.846 1.868 1.814 1.243 2.72 3.03 2.72 5.362 0 1.47-.276 2.784-.826 3.944-.554 1.153-1.317 2.17-2.288 3.047-.974.876-2.112 1.622-3.418 2.23-1.304.62-2.722 1.107-4.246 1.478v.394c.647.12 1.302.336 1.96.644.655.304 1.242.72 1.76 1.25.517.523.937 1.16 1.263 1.905.322.742.493 1.605.51 2.59.034 1.487.046 2.808.028 3.955-.018 1.147-.01 2.142.027 2.982.05.93.213 1.62.482 2.077.275.456.69.683 1.252.683.7 0 1.342-.464 1.93-1.393.587-.93 1.075-2.208 1.46-3.837.053-.09.1-.276.145-.566.044-.292.083-.476.12-.564l1.288.395zm-8.28-20.636c0-2.118-.49-3.696-1.473-4.734-.985-1.03-2.376-1.548-4.178-1.548h-1.84l-3.996 15.88h1.288c1.63 0 3.07-.24 4.338-.723 1.258-.483 2.326-1.15 3.193-2 .867-.852 1.53-1.863 1.986-3.038.456-1.17.684-2.453.684-3.838"/><path d="M244.644 13.235l-2.787 12.487h-1.26c-.126-1.474-.344-2.882-.66-4.23-.314-1.35-.767-2.54-1.353-3.563-.59-1.028-1.333-1.842-2.235-2.446-.902-.606-1.998-.908-3.272-.908-.983 0-1.895.192-2.735.58-.84.385-1.574.896-2.195 1.536-.622.642-1.115 1.373-1.47 2.196-.362.826-.54 1.684-.54 2.577 0 .787.102 1.495.302 2.116.203.623.507 1.193.922 1.71.41.517.93 1.008 1.562 1.473.63.465 1.367.94 2.207 1.432.492.28 1.005.577 1.54.894.536.316 1.03.612 1.486.893 2.17 1.26 3.78 2.606 4.822 4.037 1.042 1.426 1.563 3.098 1.563 5.007 0 1.787-.37 3.43-1.114 4.93-.747 1.496-1.76 2.784-3.037 3.864-1.28 1.078-2.783 1.918-4.51 2.522-1.727.606-3.57.91-5.53.91-1.123 0-2.132-.094-3.025-.277-.894-.186-1.692-.417-2.39-.698-.702-.277-1.313-.585-1.83-.92-.518-.332-.96-.657-1.325-.97l-2.107 2.52h-1.708l2.998-13.01h1.234c.14 1.4.405 2.8.79 4.19.385 1.395.938 2.65 1.657 3.774.72 1.122 1.612 2.028 2.68 2.72 1.07.694 2.355 1.04 3.865 1.04 1.156 0 2.188-.214 3.1-.646.91-.43 1.693-.994 2.342-1.695.648-.7 1.143-1.5 1.485-2.392.34-.895.513-1.806.513-2.735 0-.787-.09-1.503-.265-2.142-.174-.64-.468-1.242-.878-1.813-.415-.568-.956-1.113-1.63-1.63-.676-.515-1.514-1.048-2.513-1.59-.613-.316-1.205-.647-1.773-1-.57-.353-1.073-.665-1.51-.947-1.86-1.136-3.235-2.412-4.13-3.823-.893-1.412-1.34-3.072-1.34-4.983 0-1.542.332-2.994 1-4.362.666-1.367 1.58-2.562 2.746-3.59 1.165-1.024 2.546-1.83 4.14-2.417 1.596-.59 3.32-.88 5.18-.88.825 0 1.603.075 2.34.224.737.147 1.42.345 2.05.59s1.2.52 1.708.827c.51.308.938.618 1.29.935l1.864-2.314h1.736zM278.44 13.708l-2.498 9.647h-1.287c0-.858-.063-1.733-.186-2.627-.122-.894-.306-1.716-.553-2.47-.245-.755-.566-1.383-.97-1.88-.405-.5-.876-.793-1.42-.882-.545-.082-1.13-.153-1.76-.198-.632-.042-1.247-.065-1.842-.065h-1.446l-7.49 29.97c-.058.23-.113.515-.173.854-.062.343-.092.582-.092.725 0 .72.306 1.252.92 1.604.122.067.367.15.733.248.37.097.764.192 1.185.29.42.094.83.178 1.237.248.402.07.71.116.92.13l-.264 1.185H245.79l.34-1.184c.21-.015.51-.048.895-.093.388-.04.79-.094 1.21-.156.42-.062.818-.128 1.196-.197s.654-.14.83-.212c.63-.242 1.1-.603 1.42-1.076.31-.475.542-1.008.683-1.603l7.703-30.734h-1.446c-.49 0-1.078.023-1.762.065-.684.044-1.296.116-1.84.198-.368.054-.777.228-1.223.527-.447.3-.905.675-1.38 1.13s-.95.958-1.437 1.512c-.48.55-.93 1.107-1.35 1.672-.42.556-.803 1.104-1.146 1.643-.34.532-.607.99-.8 1.375h-1.29l2.47-9.647h29.578zM308.917 27.43c0 1.947-.21 3.888-.63 5.824-.42 1.935-1.04 3.79-1.853 5.56-.816 1.77-1.806 3.418-2.972 4.94-1.166 1.526-2.496 2.855-3.997 3.984-1.497 1.132-3.146 2.016-4.94 2.654-1.798.64-3.73.958-5.8.958-1.804 0-3.477-.34-5.017-1.022-1.545-.684-2.887-1.66-4.025-2.933-1.14-1.27-2.033-2.803-2.68-4.6-.65-1.795-.972-3.808-.972-6.032 0-1.927.213-3.86.643-5.797.43-1.936 1.048-3.785 1.856-5.545.803-1.763 1.788-3.405 2.954-4.93s2.492-2.852 3.982-3.982c1.49-1.13 3.13-2.015 4.915-2.654 1.79-.64 3.7-.96 5.734-.96 1.844 0 3.54.342 5.1 1.022 1.558.687 2.914 1.66 4.064 2.92 1.145 1.264 2.04 2.792 2.678 4.587.642 1.796.96 3.8.96 6.007m-6.728-1.708c0-1.56-.108-3.024-.328-4.39-.22-1.368-.583-2.555-1.092-3.56-.51-1.01-1.175-1.804-1.998-2.38-.822-.58-1.84-.87-3.047-.87-1.368 0-2.635.373-3.8 1.12-1.166.745-2.23 1.742-3.196 2.997-.96 1.25-1.813 2.697-2.547 4.334-.738 1.64-1.36 3.353-1.868 5.14s-.894 3.584-1.157 5.39c-.263 1.805-.394 3.497-.394 5.073 0 1.632.12 3.127.356 4.483.237 1.36.618 2.528 1.142 3.51.527.98 1.203 1.743 2.024 2.286.826.543 1.823.815 2.998.815 1.35 0 2.606-.374 3.773-1.13 1.165-.754 2.226-1.757 3.18-3.01.954-1.254 1.806-2.7 2.548-4.337.747-1.64 1.37-3.348 1.87-5.125.5-1.78.88-3.563 1.144-5.35.26-1.788.394-3.454.394-4.996M342.31 42.15c0 .037-.01.102-.04.2-.026.095-.052.21-.08.34-.026.133-.053.26-.08.382-.022.125-.047.21-.06.263-.303 1.14-.64 2.188-1.017 3.14-.373.956-.853 1.775-1.432 2.46-.577.683-1.284 1.212-2.116 1.592-.832.376-1.843.565-3.036.565-1.77 0-3.1-.55-3.994-1.646-.895-1.094-1.344-2.834-1.344-5.217 0-.737.018-1.55.057-2.445.032-.893.05-1.866.05-2.917 0-.947-.074-1.802-.222-2.562-.15-.764-.427-1.41-.83-1.933-.403-.526-.963-.936-1.682-1.226-.72-.287-1.64-.432-2.76-.432h-1.605l-3.232 12.698c-.053.23-.1.497-.146.812-.045.317-.064.555-.064.71 0 .35.073.646.223.883.145.237.397.46.747.67.106.07.292.146.564.232.273.093.575.175.91.252.33.08.668.15 1.012.213.34.06.646.102.905.116l-.26 1.185h-16.38l.263-1.184c.16-.014.403-.04.737-.076.332-.036.685-.08 1.05-.133.37-.05.72-.115 1.052-.184.333-.067.588-.14.763-.21.612-.245 1.077-.594 1.394-1.05.314-.456.55-.983.71-1.577l6.783-27.078c.05-.246.12-.542.21-.882.088-.34.13-.61.13-.802 0-.666-.325-1.148-.974-1.447-.175-.084-.41-.183-.71-.286-.297-.107-.604-.202-.917-.29-.317-.09-.63-.167-.937-.238-.305-.07-.548-.12-.722-.157l.264-1.185h14.8c3.42 0 6.033.622 7.847 1.868 1.815 1.243 2.72 3.03 2.72 5.362 0 1.47-.274 2.784-.824 3.944-.554 1.153-1.317 2.17-2.287 3.047-.976.876-2.114 1.622-3.42 2.23-1.305.62-2.722 1.107-4.246 1.478v.394c.648.12 1.302.336 1.96.644.656.304 1.242.72 1.76 1.25.518.523.938 1.16 1.264 1.905.322.742.494 1.605.512 2.59.036 1.487.045 2.808.03 3.955-.02 1.147-.012 2.142.023 2.982.05.93.213 1.62.485 2.077s.687.683 1.248.683c.702 0 1.344-.464 1.934-1.393.585-.93 1.073-2.208 1.458-3.837.054-.09.1-.276.146-.566.044-.292.082-.476.118-.564l1.287.395zm-8.282-20.636c0-2.118-.49-3.696-1.474-4.734-.982-1.03-2.373-1.548-4.178-1.548h-1.84l-3.995 15.88h1.287c1.63 0 3.075-.24 4.338-.723 1.26-.483 2.326-1.15 3.194-2 .864-.852 1.528-1.863 1.984-3.038.457-1.17.684-2.453.684-3.838"/><path d="M380.232 13.708l-.315 1.184c-.21.036-.45.086-.722.157-.273.07-.548.157-.83.263-.28.104-.55.213-.813.33-.263.114-.482.22-.66.327-.384.21-.74.43-1.062.657-.327.228-.63.47-.92.722-.293.254-.583.535-.88.843-.3.305-.613.642-.95 1.012-.893.997-1.735 1.982-2.534 2.956-.797.974-1.6 1.978-2.406 3.01-.804 1.036-1.64 2.125-2.496 3.273-.86 1.15-1.798 2.397-2.812 3.747-.474.63-.863 1.21-1.17 1.737-.307.524-.57 1.045-.788 1.562-.22.518-.41 1.056-.578 1.614-.17.563-.34 1.202-.515 1.922l-1.522 5.862c-.035.105-.07.245-.104.42-.035.174-.067.355-.095.538-.023.184-.05.354-.077.516-.03.155-.042.277-.042.366 0 .367.08.686.226.96.148.27.4.5.75.698.124.067.353.15.68.248.338.097.695.192 1.08.29.388.094.767.178 1.145.248s.662.116.857.13l-.317 1.185h-17.4l.338-1.184c.21-.015.51-.048.894-.093.388-.04.78-.094 1.198-.156.41-.062.797-.128 1.158-.197.358-.07.633-.14.822-.212.687-.26 1.193-.623 1.513-1.088.327-.465.558-.995.7-1.59l1.998-8.072c.14-.594.24-1.092.303-1.485.062-.394.092-.767.092-1.118 0-.122-.012-.294-.04-.513-.025-.22-.06-.45-.104-.695-.044-.246-.09-.5-.13-.764-.045-.263-.082-.5-.118-.71-.21-.926-.436-1.92-.672-2.982-.237-1.06-.485-2.154-.75-3.285-.265-1.13-.537-2.275-.826-3.433-.29-1.157-.584-2.302-.88-3.442-.423-1.665-1.115-2.885-2.077-3.654-.353-.246-.812-.453-1.383-.62-.567-.162-1.098-.266-1.59-.3l.318-1.185h16.64l-.264 1.183c-.438.036-.96.092-1.566.172-.603.077-1.18.195-1.732.353-.552.16-1.02.346-1.407.565-.385.222-.58.488-.58.802 0 .246.05.743.146 1.485.098.746.27 1.67.515 2.775.1.524.252 1.234.446 2.128.193.894.412 1.876.666 2.944.255 1.068.524 2.18.806 3.338.28 1.157.554 2.26.813 3.315.598-.755 1.237-1.568 1.918-2.447.687-.876 1.372-1.773 2.065-2.693.693-.92 1.376-1.834 2.05-2.744.677-.914 1.32-1.782 1.933-2.607 1.088-1.49 1.926-2.68 2.514-3.564.587-.884.88-1.476.88-1.772 0-.317-.14-.59-.42-.817-.282-.228-.63-.423-1.05-.588-.422-.17-.893-.306-1.41-.41-.516-.106-1.013-.183-1.482-.237l.286-1.184h12.744z"/></svg>