<svg id="Layer_1" xmlns="http://www.w3.org/2000/svg" viewBox="0 0 691.7 86.7"><style>.st0{fill:#f16624}</style><g id="XMLID_2_"><path id="XMLID_3_" class="st0" d="M0 1h25.2c9.8 0 17.7 1.3 25 8.3 7.2 6.8 10.4 16.1 10.4 25.9 0 9-3.2 18.3-9.4 24.8-6.7 7-15.2 9.2-24.6 9.2H0V1zm24 52.5c2.8 0 4.6.2 7.2-1.2 1.9-1.1 3.4-2.6 4.5-4.5 2.4-4 3.2-8.6 3.2-13.1s-1.3-10.5-4.2-14.3c-3.3-4.1-6.5-3.9-11.2-3.9H21v37h3z"/><path id="XMLID_6_" class="st0" d="M118.2 52.2c-3.1 12.3-14 18-26.1 18-7.5 0-14.7-1.6-20.5-6.7-5.5-4.9-8.4-11.8-8.3-19.1-.1-6.9 2.6-14.3 7.4-19.2 5.2-5.4 12.9-7.9 20.2-7.9 16.9 0 27.3 10.9 27.3 27.6v2.7H84.1c0 5.5 1.8 9.4 7.8 9.4 4.5 0 7-1.8 7.8-6.2l18.5 1.4zM98.3 37.8c0-5-1.6-8.8-7.2-8.8-5.2 0-7.1 4.1-7.1 8.8h14.3z"/><path id="XMLID_9_" class="st0" d="M136.1 52.7c1.1 4.9 6.6 5.5 10.8 5.5 2 0 7.6-.2 7.6-3.2 0-2.6-6.8-3.1-8.6-3.3-10.6-1.5-23.3-3.6-23.3-17.1 0-5.8 3.1-10.3 7.9-13.3 5-3.1 10.6-3.9 16.3-3.9 9.5 0 19.6 3.7 23 13.2l-15 2.9c-1.5-3.5-5.4-4.5-8.9-4.5-3.6 0-6.4 1.2-6.4 2.7 0 1.6 1.4 2.2 3 2.6 2.2.6 6.2.9 8.6 1.2 4.6.6 9.8 1.2 13.8 3.8 4.7 3 7.2 7.5 7.2 12.9 0 14-14.8 18-26.3 18-11.3 0-21.8-3.7-25.6-15.4l15.9-2.1z"/><path id="XMLID_11_" class="st0" d="M196.5 13.5h-19.7V0h19.7v13.5zm0 55.7h-19.7V18.4h19.7v50.8z"/><path id="XMLID_14_" class="st0" d="M210.8 45.1c-5.3-2.2-8.3-5.9-8.3-11.7 0-13.1 14.5-15.9 24.9-15.9 3.2 0 6.4.2 9.4 1 1.1-7.4 4.8-11.9 12.6-11.9 2.4 0 4.4.1 7.1.4l-.5 13.6c-2.2-.3-3.3-.2-4.9-.2-1.8 0-4.6.1-5.6 1.9 3.5 2.8 5.7 7 5.7 11.4 0 12.7-13 15.5-23.3 15.5-1.7 0-2.9-.2-4.6-.2-3.1 0-4.8.7-4.8 2.5 0 2 1.7 2.2 5.5 2.4l13.9.6c4.4.2 9.1.8 12.6 3.5 3.9 2.9 5.9 7.9 5.9 12.6 0 7.3-4.9 11.8-11.3 14-5.5 1.9-13.3 2.2-19.3 2.2-8.5 0-27.6-.6-27.6-12.5 0-4.9 2.9-8.3 7.4-9.8-2.8-2.1-4.7-4.5-4.7-8.1.2-6 4.9-9.5 9.9-11.3zm8.1 30.4c3.2.8 6.6.9 9.8.9 3 0 10.3.5 10.3-4 0-3.4-3.4-3.2-5.9-3.3-4.5-.2-8.9-.6-13.3-.6-2.3 0-5 .2-5 3.2.1 2.4 2 3.3 4.1 3.8zm14.3-41.9c0-3.9-2-6.4-6.1-6.4-3.8 0-5.9 2.6-5.9 6.3 0 4.1 2.2 6.2 6.3 6.2 3.7 0 5.7-2.6 5.7-6.1z"/><path id="XMLID_18_" class="st0" d="M259.2 18.4h18.6v7.2h.2c2.4-5.8 8.3-8.2 14.4-8.2 4.8 0 10.2 1.4 13.2 5.3 3.2 4.2 3.2 9.9 3.2 15.2v31.3h-19.7V38.4c0-3.1 0-7.4-4.3-7.4-5.5 0-6 4.7-6 8.9v29.3h-19.7V18.4z"/><path id="XMLID_20_" class="st0" d="M395 69.2h-20.9V42.7H358v26.6h-20.9V1H358v25.2h16.1V1H395v68.2z"/><path id="XMLID_22_" class="st0" d="M432 69.2v-8.4h-.2c-2.1 6.6-8.9 9.3-15.4 9.3-4.2 0-8.3-1-11.3-3.9-3.6-3.6-4-8.1-4-12.8v-35h19.7v30.7c0 3.3-.1 6.8 4.4 6.8 2 0 3.9-1.1 4.8-2.9.9-1.7 1-3.5 1-5.4V18.4h19.7v50.8H432z"/><path id="XMLID_24_" class="st0" d="M459.1 18.4h18.6v7.2h.2c2.4-5.8 8.3-8.2 14.4-8.2 4.8 0 10.2 1.4 13.2 5.3 3.2 4.2 3.2 9.9 3.2 15.2v31.3H489V38.4c0-3.1 0-7.4-4.3-7.4-5.5 0-6 4.7-6 8.9v29.3H459V18.4z"/><path id="XMLID_26_" class="st0" d="M538.4 18.4h10.1v12.9h-9.9v17.5c0 3.7-.4 6.6 4.3 6.6 1.9 0 3.8-.4 5.7-.9v14.2c-4.8 1.2-10.8 1.7-13.6 1.7-4.6 0-8.9-1.7-12.2-5.4-3.9-4.2-3.8-9.1-3.8-14.5V31.3h-7.4V18.4h8.3l1.5-16.2 17.1-.6v16.8z"/><path id="XMLID_28_" class="st0" d="M575 13.5h-19.7V0H575v13.5zm0 55.7h-19.7V18.4H575v50.8z"/><path id="XMLID_31_" class="st0" d="M581 18.4h18.6v7.2h.2c2.4-5.8 8.3-8.2 14.4-8.2 4.8 0 10.2 1.4 13.2 5.3 3.2 4.2 3.2 9.9 3.2 15.2v31.3H611V38.4c0-3.1 0-7.4-4.3-7.4-5.5 0-6 4.7-6 8.9v29.3H581V18.4z"/><path id="XMLID_33_" class="st0" d="M645.9 45.1c-5.3-2.2-8.3-5.9-8.3-11.7 0-13.1 14.5-15.9 24.9-15.9 3.2 0 6.4.2 9.4 1 1.1-7.4 4.8-11.9 12.6-11.9 2.4 0 4.4.1 7.1.4l-.5 13.6c-2.2-.3-3.3-.2-4.9-.2-1.8 0-4.6.1-5.6 1.9 3.5 2.8 5.7 7 5.7 11.4 0 12.7-13 15.5-23.3 15.5-1.7 0-2.9-.2-4.6-.2-3.1 0-4.8.7-4.8 2.5 0 2 1.7 2.2 5.5 2.4l13.9.6c4.4.2 9.1.8 12.6 3.5 3.9 2.9 5.9 7.9 5.9 12.6 0 7.3-4.9 11.8-11.3 14-5.5 1.9-13.3 2.2-19.3 2.2-8.5 0-27.6-.6-27.6-12.5 0-4.9 2.9-8.3 7.4-9.8-2.8-2.1-4.7-4.5-4.7-8.1.2-6 4.9-9.5 9.9-11.3zm8.1 30.4c3.2.8 6.6.9 9.8.9 3 0 10.3.5 10.3-4 0-3.4-3.4-3.2-5.9-3.3-4.5-.2-8.9-.6-13.3-.6-2.3 0-5 .2-5 3.2.1 2.4 2 3.3 4.1 3.8zm14.3-41.9c0-3.9-2-6.4-6.1-6.4-3.8 0-5.9 2.6-5.9 6.3 0 4.1 2.2 6.2 6.3 6.2 3.7 0 5.7-2.6 5.7-6.1z"/></g></svg>