<svg xmlns="http://www.w3.org/2000/svg" width="288.042" height="69.454" viewBox="0 0 288.042 69.454">
	<path fill="#E93525" d="M35.873 11.122c0 1.888-.33 3.734-.99 5.54-.673 1.802-1.592 3.055-2.758 3.758-1.188.712-2.72 1.07-4.6 1.07h-7.233V17.4c.375-.042.67-.152.882-.33.203-.17.345-.357.426-.567.153-.472.218-1.023.198-1.652V6.64c.02-.64-.045-1.212-.198-1.716-.142-.472-.578-.74-1.308-.802V0h6.79c1.027 0 2.008.084 2.942.252.935.2 1.796.63 2.585 1.29 1.244 1.123 2.103 2.575 2.58 4.357.455 1.803.683 3.544.683 5.222zM29.8 8.384c0-.608-.01-1.2-.033-1.778 0-.734-.137-1.316-.41-1.747-.286-.41-.863-.615-1.73-.615h-.547v13.123h.804c.89 0 1.438-.225 1.643-.677.183-.43.262-.99.24-1.683 0-.724.01-1.442.034-2.155V8.384zM43.615 21.488V17.4c.335 0 .62-.052.854-.158.223-.115.334-.34.334-.677 0-.24-.023-.467-.07-.677-.047-.22-.095-.436-.142-.646h-2.755c-.105.388-.167.782-.188 1.18 0 .65.34.977 1.02.977v4.087h-6.697V17.4c.57 0 .993-.163 1.272-.488.3-.293.492-.703.575-1.228L41.002 0h6.38l2.576 14.474c.062.472.243 1.048.543 1.73.146.325.317.593.514.802.186.262.41.394.667.394h.367v4.088h-8.432zM43.44 6.922l-1.195 5.08H44.3l-.86-5.08zM53.61 21.488v-4.09c.68-.105 1.12-.373 1.312-.803.143-.43.204-.96.184-1.59v-8.65c0-.63-.07-1.15-.214-1.558-.194-.41-.622-.635-1.283-.677V0h8.333v4.12c-.66.042-1.07.29-1.233.74-.194.43-.28.97-.26 1.62v8.527c-.02.63.066 1.16.26 1.59.162.43.573.696 1.233.8v4.092H53.61zM64.192 21.488V17.4c.648-.105 1.064-.352 1.247-.74.172-.367.258-.84.258-1.416V6.448c.02-.63-.045-1.16-.198-1.59-.183-.43-.62-.675-1.308-.74V0h8.593v4.12c-1.12.02-1.67.635-1.648 1.84v11.376h.717c.874.02 1.342-.42 1.403-1.32.13-1.46.183-2.943.152-4.454h3.628v9.926H64.192zM91.087 4.088c-.732.063-1.22.3-1.463.708-.274.388-.544.907-.808 1.558l-2.69 5.79v3.383c-.022 1.25.54 1.873 1.684 1.873v4.088h-8.624V17.4c.603 0 1.042-.173 1.32-.52.224-.325.336-.775.336-1.353V12.27l-2.536-5.916c-.204-.545-.483-1.054-.84-1.526-.183-.273-.38-.467-.595-.583-.203-.084-.463-.136-.778-.157V0h8.1v4.088c-.183 0-.375.042-.58.126-.212.094-.318.278-.318.55 0 .305.167.756.502 1.354.284.577.502 1.04.655 1.385.143-.367.34-.84.595-1.416.244-.598.375-1.05.396-1.354-.02-.43-.258-.645-.715-.645V0h6.364v4.088z"/><path fill="#231F20" d="M0 59.2v-8.86c1.478-.226 2.426-.806 2.845-1.736.31-.932.442-2.08.397-3.44v-18.74c0-1.364-.154-2.49-.463-3.375-.42-.887-1.346-1.375-2.78-1.466V12.66h18.05v8.924c-1.428.09-2.318.625-2.67 1.6-.42.933-.606 2.103-.56 3.51v18.468c-.046 1.362.14 2.51.56 3.44.352.932 1.242 1.512 2.67 1.738v8.858H0zM34.768 59.2v-7.425c.744-.318 1.236-.718 1.477-1.197.168-.41.252-.945.252-1.607V35.94c0-.89-.18-1.607-.54-2.154-.337-.616-.997-.924-1.98-.924-1.867.092-2.755 1.117-2.665 3.077v13.167c0 .616.096 1.13.288 1.54.216.433.612.81 1.188 1.128V59.2H20.154v-7.425c.85-.092 1.385-.467 1.604-1.13.196-.614.294-1.265.294-1.948V35.53c0-.798-.098-1.505-.294-2.12-.22-.548-.753-.867-1.604-.96v-7.423h11.158v1.865c1.1-.93 2.248-1.676 3.44-2.242 1.17-.542 2.47-.815 3.897-.815 2.25.046 4.038.785 5.363 2.218C45.27 27.6 45.9 29.51 45.9 31.783v16.92c0 .684.11 1.332.328 1.945.197.66.72 1.036 1.572 1.126v7.424H34.768zM64.605 52.768c0 4.697-2.33 7.067-6.985 7.113-4.792-.136-7.21-2.645-7.256-7.53V32.11H47.75v-6.607c1.387 0 2.51-.352 3.37-1.056.813-.658 1.397-1.476 1.75-2.453.417-1.067.693-2.18.825-3.338.043-1.16.066-2.294.066-3.407h6.07v9.777h4.775v7.083H59.83v18.61c-.047.61.243.918.867.918.606 0 .91-.284.91-.85v-3.812h3v5.792zM89.382 44.885c.045 3.908-.813 7.35-2.575 10.326-1.76 3.024-4.754 4.58-8.98 4.67-2.49-.045-4.53-.646-6.118-1.805-1.567-1.158-2.824-2.67-3.772-4.53-.95-1.863-1.588-3.885-1.918-6.065-.397-2.18-.595-4.315-.595-6.405-.046-4.2.857-8.085 2.71-11.65 1.85-3.59 5.033-5.452 9.55-5.588 2.245 0 4.14.58 5.682 1.738 1.475 1.158 2.643 2.67 3.502 4.53 1.72 3.953 2.556 7.928 2.51 11.925v1.466H75.845v1.798c-.045 1.132.12 2.388.496 3.767.176.657.462 1.19.858 1.597.33.52.826.78 1.486.78 1.452-.045 2.267-.882 2.443-2.51.088-1.54.11-2.886.066-4.04h8.19zM79.71 35.77c0-.746-.09-1.536-.264-2.37-.22-.79-.782-1.21-1.684-1.254-.77.045-1.266.463-1.486 1.253-.242.79-.363 1.535-.363 2.234v1.728h3.797V35.77zM90.094 59.2v-7.425c1.294-.045 2.106-.604 2.435-1.673.218-1.07.328-2.117.328-3.142V24.934c0-1.14-.11-2.22-.33-3.244-.174-.5-.45-.9-.822-1.195-.395-.273-.933-.41-1.612-.41v-7.423h11.78v34.306c-.044 1.023.12 2.07.494 3.138.307 1.07 1.062 1.626 2.266 1.67v7.425h-14.54zM106.21 59.2v-7.425c1.294-.045 2.106-.604 2.435-1.673.22-1.07.33-2.117.33-3.142V24.934c0-1.14-.11-2.22-.33-3.244-.175-.5-.45-.9-.823-1.195-.395-.273-.933-.41-1.612-.41v-7.423h11.78v34.306c-.045 1.023.12 2.07.494 3.138.307 1.07 1.062 1.626 2.266 1.67v7.425h-14.54zM122.513 59.2v-7.425c1.322-.045 2.138-.604 2.447-1.676.22-1.072.33-2.12.33-3.147v-9.68c0-1.115-.11-2.187-.33-3.214-.177-.525-.452-.924-.827-1.198-.397-.273-.938-.41-1.62-.41v-7.424h12.106v21.937c-.047 1.023.107 2.07.46 3.14.31 1.068 1.08 1.626 2.315 1.67V59.2h-14.882zm12.24-41.292c-.043 1.567-.582 2.885-1.616 3.952-1.078 1.136-2.387 1.703-3.926 1.703-1.54 0-2.826-.59-3.86-1.77-1.12-1.068-1.682-2.386-1.682-3.953 0-1.59.54-2.964 1.616-4.122 1.034-1.113 2.32-1.692 3.86-1.738 1.63.046 2.96.625 3.993 1.738 1.034 1.157 1.573 2.554 1.617 4.19zM166.698 27.77c0 .745-.23 1.424-.693 2.033-.483.7-1.11 1.05-1.882 1.05-.646 0-1.17-.236-1.57-.71-.52-.408-.778-.94-.778-1.594 0-.566.068-1.098.204-1.595-.73.317-1.353.804-1.876 1.46.75 1.156 1.33 2.244 1.74 3.263.384 1.064.577 2.3.577 3.704-.044 3.104-1.116 5.833-3.216 8.19-2.078 2.47-4.708 3.726-7.892 3.77-1.534 0-3.036-.18-4.503-.54-.273.048-.533.143-.78.284-.272.188-.407.473-.407.85 0 .64.326 1.053.98 1.24.585.234 1.136.35 1.654.35 1.192 0 2.386-.045 3.58-.136 1.71 0 3.4.068 5.065.204 1.666.25 3.23.816 4.695 1.7 1.35.86 2.318 1.973 2.904 3.332.517 1.384.776 2.868.776 4.455 0 2.132-.393 3.843-1.175 5.136-.828 1.406-1.926 2.482-3.293 3.23-1.39.726-2.936 1.236-4.638 1.53-1.637.317-3.373.477-5.21.477-1.21 0-2.52-.09-3.93-.272-1.48-.18-2.88-.556-4.202-1.124-1.322-.566-2.397-1.34-3.227-2.316-.917-.977-1.376-2.227-1.376-3.747 0-1.022.245-1.908.735-2.657.512-.66 1.114-1.283 1.806-1.874-.825-1.022-1.47-2.02-1.94-2.998-.49-.93-.734-2.08-.734-3.44-.046-3.385 1.442-5.85 4.463-7.394-2.294-2.18-3.44-4.826-3.44-7.938.066-3.452 1.263-6.29 3.59-8.517 2.235-2.18 5.01-3.293 8.32-3.34 2.594 0 4.888.86 6.878 2.578.627-.882 1.31-1.628 2.047-2.24.738-.61 1.634-.916 2.685-.916 1.32 0 2.325.44 3.02 1.323.695.836 1.043 1.9 1.043 3.19zm-9.358 32.84c-.045-.713-.584-1.115-1.618-1.206-1.077-.047-1.913-.047-2.507 0H148.6c-.376 0-.81.092-1.304.275-.564.206-.846.562-.846 1.07 0 .32.23.607.687.86.39.23.86.414 1.408.553 1.26.138 2.222.207 2.887.207.848 0 2.015-.07 3.504-.207.666-.14 1.237-.322 1.718-.553.458-.252.688-.585.688-1zm-4.52-25.278c0-.707-.075-1.53-.222-2.465-.27-.89-.85-1.357-1.736-1.403-.47 0-.825.137-1.07.41-.297.344-.52.766-.666 1.268-.268 1.026-.38 1.94-.332 2.737 0 .66.135 1.392.406 2.19.196.867.726 1.323 1.588 1.37.54 0 .96-.16 1.256-.48.32-.32.506-.696.555-1.13.145-.935.22-1.768.22-2.498zM187.67 44.885c.044 3.908-.814 7.35-2.576 10.326-1.76 3.024-4.754 4.58-8.98 4.67-2.49-.045-4.53-.646-6.118-1.805-1.565-1.158-2.822-2.67-3.77-4.53-.948-1.863-1.588-3.885-1.92-6.065-.395-2.18-.595-4.315-.595-6.405-.044-4.2.86-8.085 2.712-11.65 1.85-3.59 5.033-5.452 9.55-5.588 2.247 0 4.14.58 5.683 1.738 1.477 1.158 2.645 2.67 3.503 4.53 1.72 3.953 2.557 7.928 2.512 11.925v1.466h-13.538v1.798c-.045 1.132.12 2.388.494 3.767.177.657.463 1.19.86 1.597.33.52.825.78 1.485.78 1.452-.045 2.268-.882 2.444-2.51.088-1.54.11-2.886.066-4.04h8.19zm-9.673-9.115c0-.746-.088-1.536-.264-2.37-.22-.79-.78-1.21-1.684-1.254-.772.045-1.267.463-1.487 1.253-.242.79-.362 1.535-.362 2.234v1.728h3.797V35.77zM203.38 59.2v-7.425c.745-.318 1.236-.718 1.477-1.197.17-.41.253-.945.253-1.607V35.94c0-.89-.18-1.607-.54-2.154-.337-.616-.997-.924-1.98-.924-1.868.092-2.756 1.117-2.665 3.077v13.167c0 .616.096 1.13.288 1.54.216.433.612.81 1.188 1.128V59.2h-12.634v-7.425c.852-.092 1.385-.467 1.604-1.13.195-.614.294-1.265.294-1.948V35.53c0-.798-.1-1.505-.294-2.12-.22-.548-.752-.867-1.604-.96v-7.423h11.158v1.865c1.1-.93 2.246-1.676 3.44-2.242 1.17-.542 2.47-.815 3.896-.815 2.25.046 4.04.785 5.364 2.218 1.258 1.546 1.887 3.457 1.887 5.73v16.92c0 .684.11 1.332.33 1.945.194.66.72 1.036 1.57 1.126v7.424h-13.03zM239.252 44.517c0 1.912-.09 3.78-.266 5.6-.22 1.82-.695 3.472-1.424 4.95-.73 1.412-1.788 2.56-3.18 3.448-1.412.91-3.267 1.366-5.56 1.366-2.548-.045-4.656-.646-6.324-1.805-1.645-1.158-2.953-2.67-3.922-4.53-.924-1.908-1.6-3.953-2.03-6.133-.404-2.182-.606-4.35-.606-6.508-.047-4.314.945-8.2 2.975-11.652 2.027-3.52 5.353-5.326 9.974-5.417 3.152.046 5.654 1.09 7.508 3.13 1.807 2.04 2.733 4.657 2.777 7.853 0 1.768-.43 3.276-1.29 4.523-.948 1.36-2.327 2.063-4.134 2.108-1.434 0-2.602-.51-3.506-1.533-.992-.932-1.487-2.146-1.487-3.646 0-.842.11-1.512.33-2.012.22-.478.562-1.01 1.025-1.602.088-.045.154-.136.198-.272-.098-.66-.527-.988-1.288-.988-1.104.045-1.777.715-2.022 2.01-.265 1.272-.362 2.352-.294 3.238v9.27c-.068.886.02 1.977.272 3.27.136.57.363 1.08.682 1.534.272.478.693.717 1.262.717.796 0 1.353-.285 1.67-.853.342-.5.58-1.147.716-1.942.092-1.682.114-3.057.068-4.124h7.876zM264.196 44.885c.045 3.908-.812 7.35-2.575 10.326-1.76 3.024-4.753 4.58-8.978 4.67-2.492-.045-4.532-.646-6.118-1.805-1.566-1.158-2.824-2.67-3.77-4.53-.95-1.863-1.59-3.885-1.92-6.065-.396-2.18-.595-4.315-.595-6.405-.047-4.2.856-8.085 2.708-11.65 1.85-3.59 5.034-5.452 9.55-5.588 2.247 0 4.142.58 5.684 1.738 1.476 1.158 2.644 2.67 3.503 4.53 1.72 3.953 2.557 7.928 2.512 11.925v1.466H250.66v1.798c-.047 1.132.117 2.388.494 3.767.176.657.463 1.19.857 1.597.33.52.828.78 1.487.78 1.453-.045 2.268-.882 2.444-2.51.09-1.54.11-2.886.066-4.04h8.19zm-9.673-9.115c0-.746-.09-1.536-.264-2.37-.22-.79-.782-1.21-1.686-1.254-.77.045-1.266.463-1.484 1.253-.243.79-.363 1.535-.363 2.234v1.728h3.796V35.77zM288.042 30.858c0 1.662-.342 3.22-1.023 4.677-.77 1.524-2.102 2.31-3.995 2.354-1.166 0-2.178-.467-3.035-1.4-.945-.82-1.418-1.844-1.418-3.074 0-.728.153-1.445.46-2.15-1.063.18-1.726.74-1.985 1.674-.26.89-.39 1.8-.39 2.734v11.28c-.046 1.026.13 2.074.522 3.146.348 1.07 1.218 1.63 2.612 1.675V59.2H264.55v-7.425c1.323-.045 2.14-.604 2.447-1.676.22-1.072.33-2.12.33-3.147v-9.68c0-1.115-.11-2.187-.33-3.214-.177-.525-.45-.924-.826-1.198-.397-.273-.937-.41-1.62-.41v-7.424h12.106v1.526c1.298-1.767 3.08-2.672 5.347-2.718 1.98.045 3.486.712 4.52 2 1.012 1.404 1.52 3.078 1.52 5.022z"/>
</svg>
