<svg id="Layer_1" xmlns="http://www.w3.org/2000/svg" viewBox="0 0 464.3 54.9"><style>.st0{fill:#ea3025}.st1{fill:#fff}</style><g id="XMLID_1_"><path id="XMLID_29_" class="st0" d="M0 48.4h464.3v4H0z"/></g><g id="XMLID_3_"><path id="XMLID_28_" class="st0" d="M0 53.9h464.3v1H0z"/></g><g id="XMLID_2_"><path id="XMLID_31_" class="st1" d="M313.6 54.9c-2.2-2.3-3.4-4.9-3.4-7.8 0-7.8 8.9-14.1 20-14.1 11 0 20 6.3 20 14.1 0 2.9-1.2 5.6-3.3 7.8"/></g><g id="XMLID_249_"><path id="XMLID_250_" d="M21.2 18.5v-2c0-1 0-2-.1-3s-.3-1.9-.7-2.7c-.4-.8-.9-1.4-1.5-1.7-.7-.2-1.4-.3-2.3-.3h-2.9v9.7c1.3-.3 2-.9 2.1-1.9.1-.9.2-1.8.2-2.7h4v15.4h-3.9c0-.8 0-1.7-.2-2.6-.3-.8-.9-1.3-2-1.6v6.7c0 2.6 1.3 3.8 4.1 3.8v8.3H0v-8.3c1.3-.2 2.2-.7 2.5-1.5.4-.8.5-1.8.5-2.9v-18c0-1.3-.2-2.3-.5-3.1-.3-.8-1.2-1.3-2.5-1.4V.4h28.2v18.1h-7z"/><path id="XMLID_252_" d="M64.5 34.5c0 2.9-.5 5.3-1.6 7.1-1.2 1.9-3.3 2.8-6.4 2.9-2.3 0-4-.8-5.2-2.3-1.3-1.4-1.9-3.3-1.9-5.6v-6.7-2c0-.7-.3-1.3-.6-1.8-.3-.6-.8-.9-1.3-1.1-.6-.1-1.2-.2-1.9-.2h-1.1v7c0 2.5 1.2 3.8 3.8 3.8v8.3H30.6v-8.3c1.3-.2 2.2-.7 2.5-1.5.3-.7.5-1.7.5-2.9v-18c0-1.3-.2-2.3-.5-3.1-.4-.8-1.2-1.3-2.5-1.4V.4h16.1c4 0 7.4.7 10.3 2.1 1.4.8 2.5 2 3.3 3.4.8 1.5 1.2 3.4 1.2 5.7 0 2-.5 3.8-1.5 5.4-.7 1-1.4 1.8-2.1 2.4-.8.6-1.8 1.2-3 1.8 1 .4 1.8.9 2.4 1.4.6.5 1.1 1.3 1.5 2.2.7 1.4 1.2 2.7 1.2 3.9 0 1.3.1 2.7.1 4.2 0 .3 0 .8.1 1.5 0 .7.3 1.1.6 1.1.2 0 .4-.1.5-.4.1-.2.1-.5.1-.8 0-.7-.1-1.3-.1-1.6h3.2v1.8zm-15-21.9c0-1.1-.1-2-.3-2.8-.4-.7-1.2-1.1-2.6-1.2h-2.2v8.9h2.2c1.5 0 2.4-.6 2.7-1.7.1-1 .2-2.1.2-3.2z"/><path id="XMLID_255_" d="M65.2 43.9v-8.3c1.4-.2 2.2-.8 2.6-1.6.3-.8.5-1.8.5-3.1V13.4c0-1.3-.2-2.3-.5-3.2-.4-.8-1.2-1.3-2.6-1.4V.4h28.7v18.1h-7.2l-.1-4c0-1.9-.3-3.4-1-4.4-.7-1-2.1-1.5-4.3-1.5h-2.4v9.9c1.2-.1 1.8-.4 2-1 .2-.6.3-1.2.2-2 0-.5 0-1 .1-1.5h3.9v15h-3.9c0-.9 0-1.8-.1-2.7-.2-.9-.9-1.5-2.2-1.6v11h2.8c2.1 0 3.6-.6 4.2-1.9.6-1.2.8-2.7.8-4.5 0-1.7 0-3.3-.1-5h7.2v19.5H65.2z"/><path id="XMLID_257_" d="M122.6 31.5c0 1.8-.3 3.6-.8 5.3-.6 1.8-1.6 3.3-3 4.6-1 .9-2.3 1.7-3.8 2.3-1.5.6-3 .9-4.5 1-2.2 0-4.2-.7-6-1.9-.4-.3-.8-.5-1.2-.5-.4 0-.7.1-.9.4-.2.4-.3.7-.3 1.1h-5.6V27h7.4c.1.8.2 1.6.4 2.6.2.9.4 1.9.8 2.8.7 2 2.1 3 4 3.1 1.5 0 2.2-.7 2.3-2.2 0-1.3-.5-2.5-1.5-3.4-1-1-2-1.8-3.1-2.4-1.4-1-2.9-2-4.4-3.2-1.6-1.2-2.8-2.5-3.8-3.9-.8-1.2-1.3-2.6-1.6-4-.3-1.4-.5-2.9-.5-4.2 0-3.5.9-6.4 2.7-8.6 1.8-2.2 4.5-3.4 8-3.4 1.7 0 3.3.3 4.8 1 .3.1.6.2 1 .4.3.3.6.4.8.4.4 0 .7-.1.9-.4.2-.3.3-.6.3-.9h5.1v15h-6.3c-.2-1.3-.6-2.7-1.2-4.2-.6-1.6-1.7-2.5-3.1-2.6-1.3 0-1.9.7-1.9 2.1 0 .6.2 1.2.7 1.7.4.6.9 1.1 1.7 1.6.7.5 1.6 1.1 2.5 1.7.9.7 1.8 1.3 2.7 2 2 1.4 3.7 3.2 5.2 5.4 1.4 1.9 2.1 4.7 2.2 8.1z"/><path id="XMLID_259_" d="M141 43.9v-8.3c.7-.1 1.2-.4 1.5-.7.2-.3.3-.8.3-1.4v-8.3H137v8c0 .7.1 1.2.3 1.6.2.4.6.7 1.4.9V44h-15.5v-8.3c1.3-.2 2.2-.7 2.5-1.5.3-.8.5-1.8.5-3v-18c0-1.3-.2-2.3-.5-3.2-.4-.8-1.2-1.3-2.6-1.4V.4H139l-.2 8.5c-1.2.4-1.7 1.2-1.7 2.4v6.4h5.7v-6.2c0-1.3-.6-2.1-1.8-2.6V.4h15.6v8.3c-1.3.1-2.1.5-2.5 1.4-.4.9-.6 1.9-.6 3.1V31c0 1.3.1 2.3.6 3.1.4.8 1.2 1.3 2.5 1.5v8.3H141z"/></g><g id="XMLID_16_"><path d="M180 3.1h-6.1V.5h15.4V3h-6.1v38.3h6.1v2.5h-15.4v-2.5h6.1V3.1z" id="XMLID_83_"/><path d="M192.3 41.3h4.8V15.2h-4.8v-2.5h8.1v4.9h.1c1.6-3.8 4.7-5.8 9.1-5.8 6.6 0 9.4 3.7 9.4 11.6v18h4.5v2.5h-13v-2.5h5.2v-18c0-6.2-2.4-9-7.1-9-4.8 0-8.2 4.5-8.2 11.7v15.3h4.8v2.5h-13v-2.6z" id="XMLID_81_"/><path d="M228.4 6l3.3-1.2v7.9h8.4v2.5h-8.4V37c0 3.8 1.5 5.1 3.1 5.1 2.5 0 3.8-2.1 3.8-6v-.7h2.5v1.2c0 4.8-2.4 8.1-6.6 8.1-4.2 0-6.1-2.4-6.1-7V15.2h-5.6v-2.5h5.6V6z" id="XMLID_79_"/><path d="M247.3 28.9c.1 8.1 3.8 13.3 10.1 13.3 4.7 0 8.2-2.1 9.1-7.6h2.9c-1.1 6.8-5.7 10.2-12 10.2-9.1 0-13.4-6.9-13.4-16.5s4.2-16.5 13.4-16.5 12.7 8.3 12.7 17.1h-22.8zm19.5-2.6c-.2-7.4-3.6-12-9.8-12-5.5 0-9.1 4.9-9.7 12h19.5z" id="XMLID_76_"/><path d="M271.4 41.3h5.2V3.1h-5.2V.5h8.5v40.8h4.8v2.5h-13.3v-2.5z" id="XMLID_74_"/><path d="M286.8 41.3h5.2V3.1h-5.2V.5h8.5v40.8h4.8v2.5h-13.3v-2.5z" id="XMLID_72_"/><path d="M302.3 41.3h5.2V15.2h-5.2v-2.5h8.5v28.7h4.8v2.5h-13.3v-2.6zm4.8-39.6h4v4.4h-4V1.7z" id="XMLID_69_"/><path d="M339.7 12.6h7.8v2.5H343v27.2c0 8.5-4.4 12.4-12.9 12.4-5.6 0-11.1-1.9-11.4-8.2h3.3c.8 4.5 4.1 5.6 8.3 5.6 6.7 0 9.4-2.8 9.4-11.6v-3.9h-.1c-1.5 4.8-5.4 7.1-10.2 7.1-8.2 0-12.4-7.4-12.4-16s4.2-16 12.4-16c4.6 0 8.6 2.3 10.2 6.7h.1v-5.8zm-9.4 28.7c6.3 0 9.4-7 9.4-13.3 0-8.2-3.7-13.7-9.6-13.7-6.2 0-9.9 5.5-9.9 13.7.1 6.3 3.1 13.3 10.1 13.3z" id="XMLID_66_"/><path d="M352.1 28.9c.1 8.1 3.8 13.3 10.1 13.3 4.7 0 8.2-2.1 9.1-7.6h2.9c-1.1 6.8-5.7 10.2-12 10.2-9.1 0-13.4-6.9-13.4-16.5s4.2-16.5 13.4-16.5 12.7 8.3 12.7 17.1h-22.8zm19.5-2.6c-.2-7.4-3.6-12-9.8-12-5.5 0-9.1 4.9-9.7 12h19.5z" id="XMLID_63_"/><path d="M376.5 41.3h4.8V15.2h-4.8v-2.5h8.1v4.9h.1c1.6-3.8 4.7-5.8 9.1-5.8 6.6 0 9.4 3.7 9.4 11.6v18h4.5v2.5h-13v-2.5h5.2v-18c0-6.2-2.4-9-7.1-9-4.8 0-8.2 4.5-8.2 11.7v15.3h4.8v2.5h-13v-2.6z" id="XMLID_61_"/><path d="M434.4 34.2c-.5 6.5-5.1 10.5-11.3 10.5-9.1 0-13.4-6.9-13.4-16.5s4.2-16.5 13.4-16.5c3.9 0 7.6 2.2 8.7 5.9h.1v-5h2.5v11.6h-2.5c-.6-6.8-3.8-9.9-8.8-9.9-6.7 0-10.1 6.2-10.1 13.9s3.4 13.9 10.1 13.9c4.6 0 7.6-2.9 8.4-8h2.9z" id="XMLID_59_"/><path d="M441.6 28.9c.1 8.1 3.8 13.3 10.1 13.3 4.7 0 8.2-2.1 9.1-7.6h2.9c-1.1 6.8-5.7 10.2-12 10.2-9.1 0-13.4-6.9-13.4-16.5s4.2-16.5 13.4-16.5 12.7 8.3 12.7 17.1h-22.8zm19.4-2.6c-.2-7.4-3.6-12-9.8-12-5.5 0-9.1 4.9-9.7 12H461z" id="XMLID_56_"/></g></svg>