<?xml version="1.0" encoding="utf-8"?>
<!-- Generator: Adobe Illustrator 19.0.0, SVG Export Plug-In . SVG Version: 6.00 Build 0)  -->
<svg version="1.1" id="Layer_1" xmlns="http://www.w3.org/2000/svg" xmlns:xlink="http://www.w3.org/1999/xlink" x="0px" y="0px"
	 viewBox="0 0 960.9 199.5" style="enable-background:new 0 0 960.9 199.5;" xml:space="preserve">
<style type="text/css">
	.st0{fill:#ACCA59;}
	.st1{fill:#231F20;}
	.st2{fill:#FFFFFF;}
	.st3{fill-rule:evenodd;clip-rule:evenodd;}
	.st4{fill-rule:evenodd;clip-rule:evenodd;fill:#FFFFFF;}
</style>
<g>
	<g id="XMLID_408_">
		<path id="XMLID_71_" class="st0" d="M390.7,140.3c-10.7,4-28.4,2-37.1,9.7c1.7,1,9.7,0,9.7,2.7c0,2.3-12,5.7-14,6.7
			c-2.3,1-16,5.4-15.7,8c0,2,13,0.3,14.7,0.7c-2.3,1.7-6,2.3-8.4,4.3c1.3,0,3.3,1,4.7,1c-3.7,2.3-4,4.7-7.4,7
			c-3.7,2.3-8.7,3-11.7,6.3c4.3,1,9-1,13.7-1c-2.7,3.4-7.4,4.7-11,7.4c4,0,8-1.3,12-1.7c-1,1-2.7,2.3-4,3.3c9,2.7,21.7-5.3,31.1-6
			c-3,1.7-17,5-12.7,8c2.7,2,10.7-1,14-0.7c-0.7,1-1.7,2.7-3.3,3.3c7.4,1,15-3.3,22-5.3c8-2.3,20.1,1.4,27.8-2.6
			c-3,0,8.8-9.5,5.8-9.5c13.4-2.3,11.5,0.1,23.5-5.6c-3.3-0.7-7.3,0.3-11,0.3c5.7-3.7,14-2.3,19-7c-3.7,0-7.7,0-11.7,0
			c4.3-1.7,11-2.7,14-6.4c-5.7-2.7-13.7,2.3-19.4-1.7c2.3-2.3,11.7-2.8,13.4-5.5c-1.7-0.7-10.1-2.9-12.1-3.5c3.7-2,13-0.3,15.4-4
			c-7.3-2-14.4,1-21.7,0.7c3.7-4,10-4.3,14-7.3c-16-5.4-35.7,6.3-51.8,3.7c2.7-1,5.3-3,7-5c-4.7-1.3-11.4-1-15.7,1"/>
		<g id="XMLID_66_">
			<path id="XMLID_70_" class="st0" d="M390.6,140c-11.9,4.1-26.9,1.4-37.2,9.8c-0.2,0.1,0,0.3,0.1,0.4c2.1,0.8,11-0.1,7.9,4
				c-1.8,2.3-7.9,3.2-10.6,4.2c-5,1.9-10.9,3.4-15.4,6.4c-2.3,1.6-3,3.1,0.2,3.6c3.1,0.5,6.5-0.1,9.6-0.2c1.6-0.1,3.6-0.7,1.2,0.5
				c-2.3,1.1-4.6,1.9-6.7,3.4c-0.1,0.1-0.2,0.4,0.1,0.4c1.4,0.2,3.6,0.2,3.2,1.6c-0.4,1.6-4.6,4.9-5.9,5.8
				c-3.8,2.6-8.4,3.3-11.8,6.5c-0.1,0.1-0.1,0.4,0.1,0.4c1.8,0.3,3.3,0.3,5.1,0.1c1.2-0.1,6.4-1.5,6.9-1c1.6,1.3-3,3.1-4.2,3.8
				c-1.8,1-3.5,1.9-5.2,3.1c-0.2,0.1-0.1,0.5,0.1,0.4c2.1-0.1,4-0.4,6.1-0.7c1.2-0.2,2.5-0.7,3.7-0.5c1.3-0.3,1.5-0.2,0.7,0.4
				c-0.8,0.7-1.7,1.4-2.6,2.1c-0.2,0.1-0.2,0.4,0.1,0.4c7,1.7,14-1.2,20.5-3.4c2-0.7,4.1-1.3,6.2-1.8c1.4-0.3,5.5-1.6,2.2-0.3
				c-2.5,1-5,1.7-7.4,2.8c-1.7,0.8-5.3,2.3-3.4,4.5c1.2,1.4,3.8,1,5.3,0.8c2.3-0.2,13.5-2.9,5.7,1.7c-0.2,0.1-0.1,0.4,0.1,0.4
				c9.7,0.8,17.8-5.6,27.3-6.1c7.6-0.4,15.5,1.5,22.7-1.8c0.2-0.1,0.1-0.4-0.1-0.4c-0.6-0.1,5.4-6.9,5.8-7.5c0,0,0.8-2.3,0.4-1.9
				c0.7-0.6,6.3-0.6,7.7-0.7c1.4-0.1,2.8-0.2,4.2-0.4c4-0.6,7.7-2.4,11.3-4.1c0.2-0.1,0.1-0.4-0.1-0.4c-2.8-0.4-5.9,0.6-8.6,0.2
				c-2.2-0.3,0.2-0.7,1.3-1.1c1.3-0.4,2.7-0.7,4-1c4.2-0.9,8.1-1.6,11.4-4.4c0.2-0.1,0-0.4-0.2-0.4c-2.8,0-5.5,0-8.3,0
				c-4,0.1-0.3-0.5,1.5-1.1c3.4-1.1,6.7-2.2,9.2-4.8c0.1-0.1,0.1-0.3-0.1-0.4c-2.6-1-5-0.9-7.7-0.6c-1,0.1-11.7,1.5-10.3-1.5
				c0.6-1.2,7.2-2.1,8.4-2.5c1.4-0.5,2.8-1,3.8-2.1c0.1-0.1,0.1-0.3-0.1-0.4c-2.3-0.8-4.7-1.4-7-2.1c-1-0.3-2.1-0.5-3-0.9
				c-1.9-0.8-1.4-0.6,0.5-0.9c4-0.7,10,0.2,12.9-3.3c0.1-0.1,0.1-0.4-0.1-0.4c-3-0.7-6-0.8-9.1-0.5c-0.9,0.1-1.8,0.2-2.8,0.3
				c-1.6,0.2-5.5,1.6-7.2,0.8c-1.1,0.3-1.3-0.1-0.6-1.3c0.4-0.2,0.8-0.5,1.1-0.7c1.3-1,3.4-1.5,4.9-2.1c2.1-0.8,4-1.6,5.9-2.8
				c0.2-0.1,0.1-0.4-0.1-0.4c-9.1-2.8-18.5-0.8-27.5,1.2c-5.4,1.2-10.9,2.5-16.5,2.8c-1.2,0.1-2.4,0.2-3.6,0.1
				c-1.3-0.1-2.8,0.3-2.1-0.9c0.6-1.1,4.2-3.1,5.1-4.1c0.1-0.1,0.1-0.4-0.1-0.4c-5.3-1.3-10.8-1.1-15.8,1c-0.3,0.1-0.2,0.6,0.1,0.5
				c3.4-1.4,7-1.9,10.7-1.7c7.5,0.4,1.3,3.8-2.2,5.3c-0.2,0.1-0.1,0.4,0.1,0.4c10.9,1.5,21.5-2.2,32.1-4.1
				c1.8-0.3,18.6-2.6,18.5,0.6c0,0.9-6.3,2.6-7.4,3.1c-2.2,0.9-4,2-5.7,3.6c-0.2,0.1,0,0.4,0.2,0.4c3.1,0,6.1-0.3,9.1-0.7
				c2.3-0.3,4.8-0.7,7.1-0.6c2.6,0.1,7.5,0.4,2,2.2c-3.9,1.3-8.2,0.3-12.1,2c-0.2,0.1-0.1,0.4,0.1,0.4c2,0.6,4.1,1.2,6.2,1.8
				c1.1,0.3,2.5,0.5,3.6,1c1.3,0.6,2-0.1,1.2,1.3c-0.9,1.5-6.7,2.2-8.2,2.6c-1.5,0.5-3,0.9-4.2,1.9c-0.1,0.1-0.1,0.3,0,0.4
				c4.5,2.6,9,1.2,13.9,0.9c6.1-0.3,4.9,1.8,0.3,3.7c-2.8,1.2-5.8,1.9-8.7,2.9c-0.2,0.1-0.2,0.5,0.1,0.5c2.4,0,6.2-0.7,8.5,0
				c0.5,0,1.1,0,1.6,0c-0.3,0.9-0.9,1.5-1.9,1.7c-1.1,0.7-2.6,1-3.8,1.3c-4.1,1-8.2,1.5-11.9,3.6c-0.2,0.1-0.1,0.5,0.1,0.4
				c1.4,0,9.4-1.1,9.3-0.1c-0.1,0.9-6.7,2.7-7.8,2.9c-4.6,1.1-9.5,1.1-14.1,1.9c-0.2,0-0.2,0.4,0,0.5c0.7,0.1-3.5,4.9-3.9,5.3
				c-0.9,1-1.7,2.1-2.5,3.2c-0.2,0.2,0,1,0.1,0.9c-1.6,1.8-7.7,1.6-10.3,1.6c-7,0-13.4-0.7-20.1,1.6c-4.2,1.4-8.3,3.3-12.6,4.1
				c-0.2,0-4.6,1-5,0c0,0.1,2.2-2.7,2.2-2.7c0.1-0.2,0-0.4-0.2-0.4c-2.1-0.1-4,0.4-6.1,0.7c-1.5,0.2-4.1,1.3-5.4,0.6
				c-0.7-1.1-1.3-2.1-2-3.2c0.4-0.3,0.9-0.6,1.4-0.8c2.5-2.4,7.7-2.7,10.8-4.3c0.2-0.1,0.1-0.5-0.1-0.4c-5.7,0.6-11,2.8-16.4,4.5
				c-3.1,1-6.3,1.9-9.6,2c-5.7,0.2-3.6-0.9-0.8-3.4c0.1-0.1,0-0.4-0.2-0.4c-1.8,0.2-3.5,0.5-5.2,0.8c-1.8,0.3-7.3,2.3-4.1-0.3
				c2.7-2.2,6-3.1,8.5-5.8c0.1-0.1,0-0.4-0.2-0.4c-2.7,0.1-6.1,1.4-8.7,1.1c-1.4,0.6-2.4,0.2-2.8-1.3c0.4-0.2,0.8-0.5,1.1-0.7
				c1-1.1,3.6-1.6,4.9-2.1c4.8-2.1,6.9-5.9,11-8.8c0.1-0.1,0.2-0.4-0.1-0.4c-2.3-0.3-4.5-0.2-2.4-2c1.5-1.3,4.3-1.8,6.1-2.9
				c0.2-0.1,0.1-0.4-0.1-0.4c-3.6-0.4-7.3,0.5-11,0.3c-2.7-0.1-4.3-1.1-1.3-3c2.1-1.3,4.6-2.3,7-3.2c2.9-1.1,5.8-2.2,8.7-3.3
				c3-1.1,8.6-2.1,10.9-4.6c0.8-0.9,1.3-1.5,0.3-2.6c-0.7-0.8-2.4-0.8-3.3-1c-1-0.1-2-0.1-3-0.2c-2.3-0.2-2.7,0.1-0.9-1.5
				c4.6-4.1,13.5-4.5,19.3-5.2c5.3-0.7,10.7-1.2,15.8-3C391,140.4,390.9,139.9,390.6,140L390.6,140z"/>
		</g>
	</g>
	<g>
		<g>
			<g id="XMLID_560_">
				<path id="XMLID_583_" class="st1" d="M80.4,126.8c-2.9,0-5,0.9-6.1,2.7c-1.2,1.9-1.8,4.3-1.8,7.1v34.5H59.5
					c-0.5-2.5-1.9-3.8-4.2-3.9c-0.5,0-1.4,0.3-2.7,0.8c-1.3,0.5-2.8,1.3-4.5,2.2c-3.7,1.9-7.8,3-12.2,3.1c-6.2-0.1-11.6-2.1-16.3-6
					c-4.9-3.7-8.9-8.3-11.9-13.6c-3.2-6.1-5.3-12.3-6.1-18.8c-1.1-6.5-1.7-13-1.5-19.7C-0.1,108,0.4,101,1.6,94.5
					C2.7,88.2,5,81.7,8.7,75.2c3-5.4,6.8-9.8,11.3-13.1c4.5-3.2,9.7-4.9,15.8-5c4.2,0,8.2,0.9,11.9,2.7c0.8,0.3,1.7,0.8,2.7,1.3
					c0.9,0.8,1.6,1.2,2.3,1.2c1.1,0,2-0.5,2.7-1.5c0.5-0.8,0.9-1.7,1-2.7h15.1v47H48.4c0.1-1.8,0.2-4.1,0.2-7c0-2.7-0.2-5.3-0.7-7.9
					c-0.1-1.3-0.3-2.6-0.7-3.9c-0.3-1.2-0.9-2.2-1.6-3.1c-1.3-1.8-3.2-2.7-5.7-2.7c-2,0-3.7,0.8-4.8,2.2c-1.2,1.6-2,3.4-2.3,5.3
					c-0.6,3.1-0.9,6.3-0.9,9.6c-0.4,10.6-0.6,21-0.5,31.2c0,1.3,0.1,3,0.2,5.3c0,2.4,0.1,4.8,0.4,7.3c0.4,2.5,1.2,4.5,2.2,6.1
					c1,1.8,2.4,2.7,4.4,2.7c2.8-0.1,4.7-1.5,5.5-4.2c0.5-2.6,0.7-5,0.7-7.2c-0.1-2-0.2-4-0.2-6c0-3-0.7-4.8-2.2-5.2
					c-1.4-0.3-3.5-0.6-6.2-0.8v-18.9h44.1V126.8z"/>
				<path id="XMLID_580_" class="st1" d="M172,146.9c0.1,7.6-1.3,13.7-4.2,18.5c-3,4.9-8.6,7.3-16.7,7.5c-5.9-0.1-10.5-2.1-13.6-5.9
					c-3.3-3.8-5-8.6-5-14.6v-17.5c0-1.8,0-3.6,0-5.3c-0.1-1.8-0.7-3.3-1.6-4.7c-0.9-1.5-2.1-2.5-3.5-2.9c-1.5-0.3-3.2-0.5-5-0.5
					h-2.9v18.4c-0.1,6.6,3.2,9.9,9.9,9.9v21.5H83.9v-21.5c3.4-0.5,5.6-1.8,6.6-3.9c0.9-1.9,1.4-4.5,1.4-7.6V91.2
					c0-3.3-0.5-5.9-1.4-8c-1-2.2-3.2-3.4-6.6-3.6V58h41.9c10.4-0.1,19.3,1.7,26.9,5.5c3.6,2.2,6.4,5.1,8.5,8.8c2,3.9,3,8.8,3,14.9
					c0,5.1-1.3,9.8-3.8,14.1c-1.7,2.7-3.6,4.8-5.6,6.3c-2.1,1.6-4.7,3.1-7.7,4.5c2.5,1.2,4.6,2.4,6.1,3.6c1.5,1.4,2.8,3.3,3.9,5.8
					c1.9,3.7,3,7.1,3.2,10.2c0.1,3.3,0.2,7,0.2,11c0,0.9,0.1,2.2,0.2,3.9c0.1,1.8,0.7,2.8,1.7,2.9c0.6,0,1.1-0.4,1.3-1.2
					c0.2-0.6,0.3-1.3,0.3-2.1c-0.1-1.9-0.2-3.3-0.2-4.1h8.3V146.9z M133.1,89.9c0-2.8-0.3-5.3-0.9-7.3c-1-1.9-3.2-3-6.8-3.1h-5.8v23
					h5.6c3.9-0.1,6.3-1.6,7-4.5C132.8,95.4,133.1,92.7,133.1,89.9z"/>
				<path id="XMLID_578_" class="st1" d="M251.8,79.7c-2.8,0-4.8,0.9-5.9,2.7c-1.2,1.9-1.8,4.3-1.8,7v51.4
					c-0.5,21.1-11.3,32-32.3,32.6c-9.4-0.1-17.1-3-23-8.5c-6.1-5.5-9.2-13.1-9.3-22.7V92.9c0.1-3.4-0.2-6.4-1-9
					c-0.8-2.5-3.1-3.9-6.9-4.2V58h41.1v21.3c-3.5,0.9-5.2,3.1-5.1,6.6v54.3c-0.1,4.9,2.4,7.2,7.5,7.1c5.2,0,7.7-2.6,7.6-7.8V87.5
					c0-2.4-0.2-4.2-0.7-5.6c-0.4-0.7-0.9-1.2-1.7-1.7c-0.8-0.3-2-0.6-3.4-0.8V58h34.8V79.7z"/>
				<path id="XMLID_574_" class="st1" d="M337.6,140.3c-0.5,20.9-11.7,31.2-33.6,30.9h-44.6v-21.5c2-0.2,3.5-0.8,4.6-1.7
					c1.1-0.9,1.8-1.9,2.2-3c0.8-2.5,1.1-5.4,1-8.7V92.9c0.1-3.4-0.2-6.4-1-9c-0.8-2.5-3-3.9-6.9-4.2V58H301c5.9,0,11.6,0.7,17.1,2.2
					c5.4,1.7,10,5.1,13.7,10.2c3.6,5.6,5.4,11.8,5.4,18.6c0.1,11.2-4.8,19.2-14.7,24.1c5.8,2.7,9.8,6.3,12.1,10.8
					C336.6,128.5,337.6,134,337.6,140.3z M308.6,90.2c0.1-3.6-0.3-6.3-1.1-8.1c-1.1-1.7-3.8-2.6-8.1-2.6c-1.4,0-2.8,0.1-4.2,0.3
					v22.6c1.3,0.2,2.7,0.3,4.1,0.3c4.7,0,7.4-1.3,8.3-3.9C308.3,96.6,308.7,93.7,308.6,90.2z M308.6,131.5c0-3.4-1-5.6-3-6.5
					c-2-0.8-4.7-1.1-8.1-1h-2.3v26.1c1.3,0.1,2.6,0.2,3.9,0.2c4,0,6.7-0.9,8.1-2.6c1-1.5,1.4-4.1,1.4-7.6V131.5z"/>
				<path id="XMLID_572_" class="st1" d="M529.4,139.1c0,4.7-0.7,9.4-2.1,13.9c-1.7,4.6-4.3,8.6-7.8,12c-2.7,2.4-6,4.4-10,6
					c-4,1.6-7.9,2.5-11.6,2.6c-5.7-0.1-10.9-1.8-15.7-5c-0.9-0.8-2-1.2-3.2-1.3c-1.1,0-1.9,0.4-2.4,1.2c-0.4,0.9-0.7,1.9-0.7,2.9
					h-14.5v-44h19.3c0.2,2,0.6,4.2,1.1,6.7c0.4,2.4,1.1,4.8,2.1,7.4c1.9,5.2,5.4,7.9,10.4,8.1c3.9,0,5.9-1.9,6-5.8
					c-0.1-3.5-1.4-6.5-3.9-9c-2.6-2.5-5.3-4.6-8-6.3c-3.6-2.5-7.4-5.2-11.5-8.3c-4.1-3.1-7.4-6.4-9.9-10c-2-3.2-3.4-6.7-4.2-10.5
					c-0.9-3.8-1.3-7.4-1.3-11c0-9.1,2.3-16.6,7-22.5c4.7-5.9,11.6-8.8,20.8-9c4.4,0,8.5,0.9,12.5,2.6c0.7,0.2,1.6,0.6,2.5,1
					c0.9,0.7,1.6,1,2.2,1c1,0,1.7-0.4,2.3-1.2c0.5-0.7,0.7-1.5,0.7-2.4H523v39.1h-16.6c-0.6-3.3-1.7-6.9-3.1-11
					c-1.6-4.2-4.3-6.4-8.2-6.6c-3.3,0.1-5,1.9-5,5.5c0,1.5,0.6,3,1.9,4.4c1,1.5,2.5,2.9,4.4,4.2c1.9,1.4,4.1,2.8,6.5,4.4
					c2.3,1.7,4.6,3.5,7,5.3c5.1,3.6,9.6,8.2,13.6,13.9C527.3,122.8,529.3,130.1,529.4,139.1z"/>
				<path id="XMLID_570_" class="st1" d="M594,104.5V90.2c0-2.8-0.4-5.2-1.2-7.1c-1-1.9-3.3-3.1-6.7-3.5v60.3c0,3,0.8,5.4,2.5,7.1
					c1.5,1.8,4.1,2.7,7.6,2.7v21.5h-47.9v-21.5c3.6,0,6.3-0.9,7.9-2.7c1.4-1.7,2-4.1,2-7.1V79.5c-3.4,0.4-5.5,1.6-6.4,3.5
					c-1.1,1.9-1.6,4.3-1.6,7.1v14.4h-18.4V58h80.8v46.5H594z"/>
				<path id="XMLID_567_" class="st1" d="M709.3,146.9c0.1,7.6-1.3,13.7-4.2,18.5c-3,4.9-8.6,7.3-16.7,7.5
					c-5.9-0.1-10.5-2.1-13.6-5.9c-3.3-3.8-5-8.6-5-14.6v-17.5c0-1.8,0-3.6,0-5.3c-0.1-1.8-0.7-3.3-1.6-4.7c-0.9-1.5-2.1-2.5-3.5-2.9
					c-1.5-0.3-3.2-0.5-5-0.5h-2.9v18.4c-0.1,6.6,3.2,9.9,9.9,9.9v21.5h-45.6v-21.5c3.4-0.5,5.6-1.8,6.6-3.9c0.9-1.9,1.4-4.5,1.4-7.6
					V91.2c0-3.3-0.5-5.9-1.4-8c-1-2.2-3.2-3.4-6.6-3.6V58H663c10.4-0.1,19.3,1.7,26.9,5.5c3.6,2.2,6.4,5.1,8.5,8.8
					c2,3.9,3,8.8,3,14.9c0,5.1-1.3,9.8-3.8,14.1c-1.7,2.7-3.6,4.8-5.5,6.3c-2.2,1.6-4.7,3.1-7.7,4.5c2.5,1.2,4.6,2.4,6.1,3.6
					c1.5,1.4,2.8,3.3,3.9,5.8c1.9,3.7,3,7.1,3.2,10.2c0.1,3.3,0.2,7,0.2,11c0,0.9,0.1,2.2,0.2,3.9c0.1,1.8,0.7,2.8,1.7,2.9
					c0.6,0,1.1-0.4,1.3-1.2c0.2-0.6,0.3-1.3,0.3-2.1c-0.1-1.9-0.2-3.3-0.2-4.1h8.3V146.9z M670.4,89.9c0-2.8-0.3-5.3-0.9-7.3
					c-1-1.9-3.2-3-6.8-3.1h-5.8v23h5.6c3.9-0.1,6.3-1.6,7-4.5C670.1,95.4,670.4,92.7,670.4,89.9z"/>
				<path id="XMLID_565_" class="st1" d="M711.2,171.2v-21.5c3.5-0.5,5.8-2,6.7-4.2c0.8-2,1.2-4.7,1.2-8V91.8c0-3.3-0.4-6.1-1.2-8.4
					c-1-2.2-3.2-3.4-6.7-3.7V58h74.7v47.1h-18.8l-0.2-10.3c0.1-5-0.7-8.8-2.5-11.5c-1.7-2.6-5.5-3.9-11.3-3.9h-6.4v25.7
					c3-0.2,4.7-1,5.1-2.5c0.5-1.5,0.7-3.2,0.6-5.1c0-1.3,0.1-2.6,0.2-3.9h10.1v39.2h-10.1c0-2.4-0.1-4.8-0.2-7.1
					c-0.4-2.4-2.3-3.8-5.7-4.2v28.8h7.3c5.6,0,9.3-1.6,11.1-4.9c1.5-3.2,2.2-7.1,2.1-11.8c0-4.4-0.1-8.7-0.2-13h18.8v50.7H711.2z"/>
				<path id="XMLID_563_" class="st1" d="M795.4,171.2v-21.5c3.5-0.5,5.8-2,6.7-4.2c0.8-2,1.2-4.7,1.2-8V91.8c0-3.3-0.4-6.1-1.2-8.4
					c-1-2.2-3.2-3.4-6.7-3.7V58H870v47.1h-18.7l-0.2-10.3c0.1-5-0.7-8.8-2.5-11.5c-1.8-2.6-5.5-3.9-11.3-3.9H831v25.7
					c3-0.2,4.7-1,5.1-2.5c0.5-1.5,0.7-3.2,0.6-5.1c0-1.3,0.1-2.6,0.2-3.9H847v39.2h-10.2c0-2.4-0.1-4.8-0.2-7.1
					c-0.4-2.4-2.3-3.8-5.6-4.2v28.8h7.3c5.6,0,9.3-1.6,11.1-4.9c1.5-3.2,2.2-7.1,2.1-11.8c0-4.4-0.1-8.7-0.2-13H870v50.7H795.4z"/>
				<path id="XMLID_561_" class="st1" d="M942.4,104.5V90.2c0-2.8-0.4-5.2-1.2-7.1c-1-1.9-3.3-3.1-6.7-3.5v60.3c0,3,0.8,5.4,2.5,7.1
					c1.5,1.8,4.1,2.7,7.6,2.7v21.5h-47.9v-21.5c3.6,0,6.3-0.9,7.9-2.7c1.4-1.7,2-4.1,2-7.1V79.5c-3.4,0.4-5.5,1.6-6.4,3.5
					c-1.1,1.9-1.6,4.3-1.6,7.1v14.4h-18.4V58h80.8v46.5H942.4z"/>
			</g>
		</g>
	</g>
	<g>
		<g>
			<g id="XMLID_454_">
				<path id="XMLID_455_" class="st2" d="M437.1,166.9c0.4,0.1,0.5,0.4,0.7,0.7c1.5-0.2,2.8-0.6,3.1-2
					C439.6,164.8,436.9,165.1,437.1,166.9z M445.3,166.6c-0.1,0.9,0.5,1.1,1.4,1C446.8,166.7,446.2,166.5,445.3,166.6z M378.8,184.4
					c0,0.9-0.1,2,0.3,2.4c1.6,0.1,2-1,2.1-2.4C380.5,183.7,380,184.7,378.8,184.4z M374,184.4c0.1,0.7-0.7,0.4-1,0.7
					c-0.1,0.1,0.1,0.6,0,0.7c-0.3,0.4-1.2,0.5-1,1.4c1.7,1.9,4.3-1,3.4-2.8C374.9,184.4,374.5,184.4,374,184.4z M448.7,192
					c-1.1-0.8-2.2,0.1-3.4,0c-1.3-0.1-2.5-0.6-3.8-0.3c-0.3,1.3,0.8,1.2,1,2.1c1.3-0.1,1,0.5,1.4,0c0.2-0.2,0.5,0.3,0.3,0.3
					c0.5-0.1,0.6-0.5,1,0c0.1,0.1,0.6,0,0.7,0c0.5,0.2,0.6,0.5,1,0c0.2-0.2,1,0.4,1,0.3c0,0,0.3-0.6,0.3-0.7c0.1-0.1,0.6,0.1,0.7,0
					c0.2-0.2,0-0.9,0.4-1C449.1,192.6,449,192.2,448.7,192z M410,175.2c0.5-0.1,0.5-0.3,1-0.3c3.2-0.1,6.1-0.1,8.2-0.3
					c0.5-0.1,0.8-0.3,1-0.3c0.3,0,0.2,0.3,0.3,0.3c0.3,0.1,0.3-0.3,0.3-0.3c0.4,0,1-0.1,1.4,0c0.4,0,0.8,0.4,1,0.3
					c0.9,0,1.5-1,2.4-0.7c0.1-1.3-0.3-3,0.3-3.8c0.4,0.4,1.2,0.4,2.1,0.3c0.1-0.4,0.7-0.4,1-0.7c0.3-0.3,0.5-1,1-1
					c0.9,0,1.9,0.1,2.4-0.3c0.6,0,0.4-0.7,0.7-1c0.4-0.6,1.2-1,1.4-1.4c0.5-0.8,1.4-0.6,1.4-1.7c-1.7,0.5-1.4-0.9-1.4-2.1
					c-0.7-0.3-1.2-0.9-2.4-0.7c-0.5-0.5-0.3-1.8-1.4-1.7c-1.3-0.5-2.4,1-3.1,0c1.6-7.1,3.8-15.9,4.8-23c0.2-1.5,0.2-2.1,0.3-3.1
					c0.1-0.3,0-0.7,0-1c0-0.3,0.3-0.3,0.3-0.3c0.3-2,0.4-3.9,0.7-5.8c0.4-3,0.8-7.2,1.4-9.3c0.1-0.3,0-0.7,0-1
					c0.1-1.8,0.5-2.6,0.7-3.8c0.2-1,0.2-2,0.3-3.1c0.2-1.3,0.6-3,0.7-3.4c0.2-0.5,0.2-1,0.3-1.4c0.2-0.5,0.2-1,0.3-1.4
					c0.2-0.6,0.2-1,0.3-1.4c0.1-0.3,0-0.7,0.3-0.7c0.1-1.2-1.4-0.9-1.4-2.1c0.5-2.2,0.7-4.6,1-6.9c0.4-2.3,1.2-4.5,0.7-6.5
					c0.7-0.8,1-2.1,1.4-3.1c0.4-1.1,1-2.2,1-3.4c0-1.1-1.5-0.8-1.4-2.1c0.3-4,0.3-9.8,0.7-13.4c0.1-1.4-0.1-2.6,0-3.8
					c0.1-1,0.5-1.9,0.3-2.7c-0.2-1.2-1-1-1-1.7c0-0.4-0.2-0.2-0.3-0.3c-0.3-0.5-0.1-0.9-0.3-1.4c0,0-0.3-0.2-0.3-0.3
					c-0.6-1-1.3-1.9-1.7-2.7c-0.5-0.9-0.2-2.1-1.4-2.4c-0.5,1.1-1.3,1.9-1.7,3.1c-0.5,0-0.4,1-0.7,0.3c1-8.8,3.9-16.8,6.2-24.7
					c0.2-0.6,0.2-0.8,0.3-1.4c0.2-0.6,0.2-1.1,0.3-1.7c0,0,0.3,0,0.3,0c0.3-0.3-0.1-1.1,0.3-1.4c0.1-0.1-0.1-0.6,0-0.7
					c0.3-0.7,0.3-1,0.3-1.7c0-0.3,0.3-0.3,0.3-0.3c0.3-1.3,0.4-2.4,0.7-3.4c0.2-0.7,0.7-1.4,0.7-2.1c0.1-0.8,0.5-1.6,0.7-2.4
					c0.3-1.1,0.4-2.3,0.7-3.4c0,0,0.3-0.1,0.3-0.3c0.4-1.3,0.2-2.3,0.7-2.8c0.1-0.1,0-0.6,0-0.7c0.2-0.8,0.5-1.6,0.7-2.4
					c-0.9-0.9-1.3-2.3-3.1-2.4c-0.3,0.4-0.7,0.7-1,1c-0.8,1-0.7,1.9-1,3.1c-0.2,0.6-0.5,1.2-0.7,1.7c-0.3,1.1-0.6,2-0.7,2.7
					c0,0.3-0.3,0.3-0.3,0.3c-0.3,1.2,0,2.6-1,3.4c0.3-2.8,0.9-5.3,1.4-7.9c-1.1-1.2-1.7-2.9-4.5-2.4c-0.9,1.4-0.8,3.2-1,4.8
					c-0.2,1.3-0.3,2.7-0.3,3.8c-0.1,0.6-0.3,1-0.3,1.4c-0.5,3.5-0.9,7.1-1.4,10.6c-0.8,5.5-1.5,12.1-2.4,16.8c-0.1,0.3,0,0.7,0,1
					c0,0.3-0.3,0.3-0.3,0.3c-0.4,2-0.2,3.9-0.4,5.8c0,0.4-0.3,0.5-0.3,1c-0.2,1.3-0.2,1.7-0.3,2.4c-0.2,1.3-0.3,1.7-0.4,2.4
					c-0.2,1.7-0.1,2.9-0.3,4.1c0,0-0.3,0-0.3,0c-0.1,0.1,0,0.6,0,0.7c-0.2,0.6-0.6,1-0.7,1.4c-0.1,0.2,0.1,0.5,0,0.7
					c-0.3,1.1-0.5,1.9-0.7,2.7c-0.1,0.2-0.3,0.3-0.3,0.3c-0.2,0.6,0,1.7-0.7,2.1c-0.2-4.9,1-10.1,0-14.7c-2.9-1.9-5.7-3.9-7.9-6.5
					c-0.1-0.7-0.9-0.6-1.4-1c-0.3-0.2-0.1-0.8-0.4-1c-0.2-0.2-0.8-0.1-1-0.3c-0.2-0.2-0.1-0.8-0.3-1c-0.3-0.2-0.8-0.1-1-0.3
					c-0.4-0.4-0.5-1.5-1.4-1.4c0-1.2-1.2-1.3-1.7-2.1c-1.9,0.1-4.4-0.1-5.8,0c-0.2,0-0.4,0.3-0.3,0.3c-0.4,0-0.5-0.3-1-0.3
					c-0.6,0-0.8,0.3-1.4,0.3c-1.1,0.1-2.3-0.1-3.4,0c-0.7,0.1-1.3,0.6-2.1,0.7c-2.1,0.4-4.6,0.2-6.8,0.3c-0.6,0-1.2,0.3-1.7,0.3
					c-1.1,0.1-2.1-0.1-3.1,0c-0.6,0.1-1.1,0.3-1.7,0.3c-1.4,0.1-2.7-0.1-4.1,0c-1.4,0.1-2.7,0.8-4.1,0.3c-1.1,2.1-2,4.4-3.1,6.5
					c0,0.1-0.3,0-0.3,0c-0.1,0.1,0,0.6,0,0.7c-0.2,0.4-0.4,0.8-0.7,1c-0.1,0.1,0.1,0.6,0,0.7c-0.1,0.2-0.6,0.5-0.7,0.7
					c-0.3,0.6-0.4,1.2-0.7,1.7c-0.6,1.2-1,2.9-1.7,3.4c-0.1,0.1,0.1,0.6,0,0.7c-0.1,0.2-0.6,0.5-0.7,0.7c-0.3,0.5-0.4,1.2-0.7,1.7
					c-0.6,1.3-1,2.8-1.7,3.4c-0.1,0.1,0.1,0.6,0,0.7c-0.1,0.2-0.6,0.5-0.7,0.7c-0.3,0.5-0.4,1.2-0.7,1.7c-0.3,0.6-0.5,1.4-1,1.7
					c-0.4-0.9-0.4-2.1-0.3-3.4c-1.1-0.9-1.5-2.4-2.1-3.8c-0.5-1.4-0.9-3.1-1.4-4.5c-1.2,0-1.5,1.6-1.7,2.4c-0.3,1.1-0.3,2.8-0.3,3.8
					c-0.1,1.2-0.3,2.5-0.3,3.8c0,0.1,0.4,0.2,0.3,0.7c0,0-0.3,0-0.3,0c-0.1,0.1,0,0.6,0,0.7c-0.1,1.9,0.2,2.8,0.3,4.1
					c0.2,1.7,0.1,2.7,0.3,3.8c0.5,2.3,1.3,4.4,1.4,6.5c0,0.3,0.3,0.3,0.3,0.3c1.2,4.9,2.4,10,3.4,14.4c0,0.9-1.5,0.4-1,1.7
					c0.1,2.4,0.1,4.8,0.3,7.2c0.2,2.2,0.7,4.6,1,6.9c0.6,3.8,1,7.8,1.7,11c0.6,2.6,0.9,4.9,1.4,7.2c0.2,1.1,0.5,2.3,0.7,3.4
					c0.1,0.6,0.2,1.1,0.3,1.7c0,0,0.3,0,0.3,0c0.1,0.1,0,0.6,0,0.7c0.1,0.6,0,0.8,0.3,1c0.1,0.1,0,0.6,0,0.7c0.1,0.5,0,0.7,0.3,1
					c0.5,0.5-0.2,1.6,0.3,2.1c0.1,0.1,0,0.6,0,0.7c0.1,1.2,0.2,1.9,0.3,2.8c0.1,1.1,0.1,2.4,0.3,3.4c0.6,2.3,0.7,5.3,1.4,7.9
					c-0.3,0-0.4-0.3-0.7-0.3c0-0.3-0.3-0.4-0.3-0.7c-1-0.5-0.8-2.2-2.1-2.4c-0.7-0.4-1,0.4-1.4,0.7c-0.4,0.3-1.1,0.6-1.4,1
					c-0.2,0.3-0.2,1.3-0.3,1.7c0,0.1-0.3,0-0.3,0c0,0-0.3,1.1-0.3,1c-0.3,1.1-0.6,0.8-1,1.4c-0.1,0.1,0.1,0.5,0,0.7
					c0,0.1-0.6,0.2-0.7,0.3c-0.5,0.6-1.7,2-1.7,2.4c0,0.6-0.5,1-0.7,1.4c-0.2,0.5-0.2,1.2-0.7,1.7c0.1-0.6-0.7-0.1-1-0.4
					c-0.2-0.2-0.2-0.8-0.3-1c-0.4-0.5-0.8-0.7-1-1c-0.5-0.7-0.9-0.6-1.4-1c-0.2-0.2-0.5-0.5-0.7-0.7c-1.2-1.1-1.7-2.5-2.4-3.8
					c-0.3-0.5-0.2-1.8-1.4-1.7c-1.3,0-1.8,1.8-2.4,3.1c-0.5,1.1-1.2,2.8-1.4,4.1c-0.3,1.9,0.2,5.6,0.3,6.9c0.1,0.7-0.1,1.4,0,2.1
					c0.1,0.8,0.6,1.6,0.7,2.4c0.4,2.3,0.3,4.1,0.7,4.8c0.2,0.4,0.3,0.4,0.7,0.7c0.1,0.1-0.1,0.6,0,0.7c0,0,0.3,0,0.3,0
					c0.1,0.1-0.1,0.6,0,0.7c0.2,0.3,0.8,0.4,1,0.7c0.4,0.5,0.6,1.3,0.7,1.4c0.2,0.2,0.8-0.1,1,0c0.1,0.1,0.2,0.6,0.4,0.7
					c0.2,0.1,1,0.3,1,0.3c0.4,0,0.2,0.3,0.3,0.3c0.8,0.4,2.1,0.4,2.7,1.4c-1.5,0.1-2.7-0.1-4.1,0c-0.8,0.1-1.6,0.5-2.4,0.3
					c-0.6-0.1-1.4-0.7-2.1-1c-0.8-0.4-1.5-0.9-2.4-1c-1.6-0.3-2.8-0.1-4.8,0c-0.9-0.4-1.7-1-3.1-1c-0.6,1.6-1.6,3-2.7,4.1
					c-0.4,1.1,1.1,0.3,0.7,1.4c-0.8,0.1-0.8-0.6-1.7-0.4c-0.1,1.7-1.7,1.9-1.7,3.8c1.9-0.4,3.6,0.6,5.5,0.7c1.3,0,2.5-0.5,3.8-0.4
					c0.7,0.1,1.2,0.2,1.7,0.4c0.2,0.1,0.3,0.3,0.3,0.3c0.9,0.3,1.9,0.1,2.7,0.3c0.1,0,0.5,0.6,0.7,0.7c0.4,0.1,0.9-0.1,1.4,0
					c0.1,0,0.1,0.3,0.3,0.3c1,0.3,1.4,0.3,2.1,0.3c0.8,0.1,1.5-0.3,2.4-0.3c0.6,0,1,0.3,1.7,0.3c0.9,0.1,1.6,0.1,2.4,0
					c0.5,0,0.8-0.3,1-0.3c0.3,0,0.3-0.3,0.3-0.3c1.2-0.3,1.6,0.2,2.1-0.3c0.1-0.1,0.6,0,0.7,0c0.6-0.1,0.7,0,1-0.3
					c0.1-0.1,0.6,0,0.7,0c0.4-0.1,0.8-0.1,1-0.3c0-0.5,0-0.9,0-1.4c0-0.2,0.3-0.4,0.3-0.3c0-1.1-0.8-1.3-0.7-1.7c0-0.1,0.6,0,0.7,0
					c0.1-0.1-0.1-0.5,0-0.7c0.2-0.4,0-0.8,0.3-1c0.9-0.6-0.4-1.7,0.3-1.7c1.9,0,2.8-0.8,4.8-0.7c0.1-0.3,0.5-0.5,0.7-0.7
					c0.6-0.5,1.2-0.7,1.7-1c0.1-0.1,0.2-0.2,0.3-0.3c1.5-1,1.9-2.5,3.1-3.8c0.8,0.9,1.7,0,2.4,0c4.5-0.3,10.2,0,13.7-0.3
					c0.6,0,1.4,0.1,2.1,0c0.3,0,0.4-0.3,0.7-0.3c2.3-0.5,3.7-0.1,5.5,0c2.7,0.2,5.8,0.1,8.6,0c1,0,1-0.5,1.7-0.3
					c0.1,0,0.5,0.3,0.3,0.3c0.3,0,0.3-0.3,0.3-0.3C409.9,174.8,410.1,175.2,410,175.2z M451.1,181c-1.2-0.1-2.3,0.5-2.7,0
					c-0.1-0.1-0.9,0-1,0c-0.3,0-0.3-0.3-0.4-0.3c-0.7-0.2-1.2-0.2-1.7-0.3c-0.5-0.1-1.2-0.2-1.7-0.3c-1.2-0.3-2.3-0.1-3.4-0.3
					c-1.1-0.2-2.2-1.1-3.1-0.3c-0.1-0.1,0.1-0.6,0-0.7c-0.2-0.1-0.5,0.3-0.3,0.4c-0.2-0.1-0.5-0.3-0.7-0.4c-0.3,0-0.3-0.3-0.3-0.3
					c-1.1-0.3-2.3,0-2.8-0.3c-0.6-0.4-1.7-0.5-2.4-0.7c-1.1-0.3-2.5-0.7-3.4-0.7c-0.6,0-1.4,0.4-2.1,0.3c-1-0.1-2-1.1-3.1-0.7
					c-0.8,0.7-1.6,1.5-2.7,2.1c-0.8,0.4-1.9,0.6-2.7,1c-0.7,0.4-1.6,1-2.4,1.4c-0.2,0.1-0.5-0.1-0.7,0c-0.6,0.1-2,1-2.1,1
					c-0.4,0.4-1.5,0.6-1.4,1.4c0.7,1,1.5,1.9,3.4,1.7c0.7,1,2.1,1.1,2.7,1.4c0.2,0.1,0.5,0.3,0.7,0.3c0.3,0,0.3,0.3,0.4,0.3
					c1.6,0.4,3.5,0,5.1,0.3c0.6,0.2,0.8,0.7,1.4,0.7c0.4,0,0.2,0.3,0.3,0.3c0.6,0.3,1,0.3,1.7,0.3c0.3,0,0.3,0.4,0.3,0.4
					c1.4,0.3,3.4,0.2,3.8,0.7c0,0,1,0.3,1,0.3c0.4,0.1,0.7,0.3,1,0.3c0.5,0.1,0.7,0.1,1,0.3c0.4,0.3,0.7,0.3,1.4,0.3
					c1,0.1,1.9,0.8,2.7,0c0.6,0.5,0.8,2.2,1.7,1.4c-0.1-1.4-1.3-3.6,0-4.4c0,0.9,0.5,1.3,1.4,1.4c0.7,0.1,0.7-0.5,1-0.7
					c0.1,0.4,0.7,0.5,1,0.7c0.3,0.2,0.3,0.9,1,0.7c0.4,0.1,0.2-0.2,0.3-0.3c1.1-1.6,2.8-2.6,3.8-3.8c0.4-0.5,0.6-1.3,1-1.7
					c0.2-0.2,0.8-0.2,1-0.4c0.3-0.2,0.4-0.8,0.7-1C450.5,182.3,451.8,181.9,451.1,181z"/>
			</g>
		</g>
		<g>
			<g>
				<path class="st3" d="M441.9,16.8c0.9-4.5,2.3-8.6,3.1-13.7c-0.6-1-0.5,1.5-1.7,1c-0.4-0.5-0.4-1.4-1-1.7c-0.9,0.8-0.7,2-1,3.1
					c0,0.1-0.3,0-0.3,0.3c0,0.2-0.3,0.7-0.3,1c-0.2,0.7-0.2,1.1-0.3,1.7c-0.2,0.6-0.2,1-0.3,1.7c0,0.1-0.3,0-0.3,0.3
					c0,0.1,0.1,1,0,1c-0.3,0.3-0.7,1.6-1,2.4c-0.1,0.1,0.1,0.6,0,0.7c-0.6,0.5-0.4,2.4-0.7,3.8c0,0.1-0.3,0-0.3,0.3
					c0,0.1-0.1,1.5-0.3,1.7c-0.5,0.4,0.1,0.2,0,0.7c0,0.1-0.3,0-0.3,0.3c-0.1,1.5-0.9,4.2-1.4,6.2c0,0.1-0.3,0-0.3,0.3
					c0,0.4,0.1,0.9,0,1.4c0,0.1-0.3,0.1-0.3,0.3c0,0.9-0.1,0.9-0.3,1.7c0,0.1,0.1,0.6,0,0.7c-0.5,0.4-0.1,0.9-0.3,2.1
					c0,0.1-0.3,0-0.3,0.3c0,0.1,0.1,1,0,1c-0.9,0.7-0.9,3.5-1.4,5.1c-0.3,0.9-0.8,1.8-1,2.7c-0.3,1.1-0.4,2.3-0.7,3.4
					c-0.3,1.1-0.8,2-1,3.1c-0.3,1-0.4,2.2-0.7,3.4c-0.2,0.8-0.6,1.6-0.7,2.4c0,0.6-0.5,1.3-0.7,2.1c-1,3.2-1.9,7.4-3.1,11
					c0.7,0.7,2.3,0.3,3.1,0c0.9-0.4,0.5-1.3,0.7-2.1c0.4-1.7,1.1-3.9,1.7-6.2c0.6-2.3,1.2-4.9,2.1-7.2c0-0.1-0.1-0.6,0-0.7
					c0.6-0.5-0.2-1.6,0.3-2.1c0.6-0.5,0.9-3.7,1.4-4.8c0.1-0.1-0.1-0.6,0-0.7c0.5-0.4,0.7-2.8,1-4.1c0.3-1.1,0.7-2.3,1-3.4
					c0.2-0.6,0.5-1.1,0.7-1.7c0.2-0.6,0.2-1.4,0.3-2.1c0.5-1.7,1.2-3.3,1.7-5.1c0.2-0.6,0.1-1.4,0.4-2.1c0-0.2,0.6-0.6,0.7-0.7
					c0.2-0.6-0.1-2.5,0.7-2.8c0.3,1.9-1,3.4-1,4.5c0,0.3-0.3,0.2-0.3,0.3c-0.3,1-0.2,1.3-0.4,1.7c0,0.1,0,0.2,0,0.3
					c0,0.3-0.3,0.3-0.3,0.3c-0.2,0.9-0.1,1.9-0.3,2.7c0,0.1-0.3,0.1-0.3,0.3c-0.1,0.5-0.2,0.7-0.3,1c0,0.1,0,0.3,0,0.3
					c0,0.3-0.3,0.2-0.3,0.3c-0.3,1-0.2,1.3-0.3,1.7c0,0.1,0,0.3,0,0.3c0,0.3-0.3,0.2-0.3,0.3c-0.3,1-0.2,1.3-0.3,1.7
					c-0.1,0.1,0,0.3,0,0.3c0,0.3-0.3,0.2-0.3,0.3c-0.3,1-0.2,1.3-0.3,1.7c0,0.1,0,0.3,0,0.3c0,0.3-0.3,0.3-0.3,0.3
					c-0.2,1.2-0.2,2.3-0.3,2.7c-0.3,0.6-0.6,1.6-0.7,2.1c-0.4,1.6-0.2,3.1-0.3,4.8c-0.5,0.2,0,0.4,0,0c1.4-0.8,1.3-3,3.1-3.4
					c1.1,3.2,2.8,5.9,4.5,8.6c-0.1,1-0.3,1.9-0.3,2.7c-0.1,0.9-0.5,1-0.3,1.7c0,0.1,0.4,0.4,0.3,0.3c0,0.4-0.3,0.2-0.3,0.3
					c-0.1,0.3,0.3,0.6,0.3,0.7c0,0.4-0.3,0.5-0.3,1c-0.1,0.5,0,1.2,0,1.7c-0.1,3.9-0.1,7.7-0.3,11c-0.3,1.7,1.4,1.3,1.4,2.7
					c-0.4,0.1-0.3,0.5-0.3,1c0,0.3-0.3,0.2-0.3,0.3c-0.2,0.6-0.1,1.1-0.3,1.7c-0.4,1-0.7,2.1-1.4,2.7c0.5,2.8-0.6,5.2-1,7.9
					c-0.3,1.8-0.2,3.7-0.7,5.5c-0.4,1.5,1.1,1.1,1,2.4c-0.5,1.9-1,3.6-1.4,5.5c-0.3,1.5-0.6,2.9-0.7,3.8c-0.1,0.4,0.1,0.9,0,1.4
					c-0.1,0.8-0.6,1.6-0.7,2.4c-0.1,0.9,0,1.8,0,2.4c0,0.3-0.3,0.3-0.3,0.3c-0.4,3.1-0.6,6.2-1,9.3c-0.5,3.8-1.1,7.8-1.7,11.7
					c-1.2,7.8-3.2,15.1-4.5,22.3c0.4,0.7,1.5-0.7,2.8-0.3c1.5,0.1,1,1,1.4,1.7c1.2-0.1,1.7,0.6,2.7,0.7c-0.8,0.7,0.3,1.1-0.3,1.7
					c-0.1,0.8,1.2,0.2,1.7,0.3c-0.1,1.2-1.5,1-1.7,2.1c-1.1,0.3-1,1.8-2.1,2.1c-0.4,0.4-1.2,0.4-2,0.3c-0.8,0.6-1.6,1.3-2.1,1.7
					c-1.1,0.2-1.2-0.6-2.4-0.3c0,1.3,0,2.5,0,3.8c-1.3,0.3-2.8,0.5-4.5,0.3c0.5-0.9,2.6-0.4,3.4-1c0.7-3.6,1.4-7.7,2.1-11
					c0.2-1,0.6-2.4,0.7-2.7c0.1-0.2,0-0.5,0-0.7c0.6-2.6,1.2-5.2,1.7-7.5c0.7-3.1,1.2-5.9,1.7-8.9c0-0.2-0.1-0.5,0-0.7
					c0.1-0.2,0.3-0.3,0.3-0.3c0.3-1,0.2-2.4,0.3-3.1c0.3-1.4,0.4-3.4,0.7-5.1c0,0,0.3-0.1,0.3-0.3c0.4-1.4,0.1-4,0.7-4.5
					c0.1-0.1,0-0.6,0-0.7c0.2-1.3,0.3-1.7,0.3-2.4c0.2-1.3,0.2-1.6,0.3-2.4c0.1-0.5-0.1-0.9,0-1.4c0.9-7,1.5-13.5,3.4-19.9
					c0-1.2-1-1.3-1.7-1.7c0.2-1.3-1.4-0.9-1.7-1.7c-0.8,0.2-1.6,0.5-2.7,0.3c-0.1-0.8,1.2-0.2,1.7-0.3c-0.1-0.7,1.2-0.2,1.7-0.3
					c0.2,0.8,1.8,0.3,1.4,1.7c0.7-0.5,0.6-1.7,0.7-2.4c0.6-3.2,0.8-6,1.4-8.6c-1.8,1.9-1.4,6.2-2.1,7.9c0,0.1,0,0.2,0,0.3
					c0,0.3-0.3,0.2-0.3,0.3c-0.1,0.4,0.7,0.7-0.3,0.7c0-0.3,0-0.7,0-1c0-0.3,0.3-0.3,0.3-0.3c0.1-0.3-0.1-0.7,0-1
					c0.1-0.3,0.3-0.4,0.3-0.7c0.1-1-0.4-1.5-0.3-1.7c0-0.1,0.3-0.1,0.3-0.3c0.3-1.2,0.8-2.5,1-3.1c0-0.1,0-0.2,0-0.3
					c0-0.6,0.7-0.9,0.7-1.4c0-0.3,0.3-0.2,0.3-0.3c0.2-0.6,0.2-1.3,0.3-2.1c0.4-1.5,1.9-4.4,1.7-5.5c-0.2-1.2-0.4-1-1-1.7
					c-0.5-0.5-0.7-1-1-1.4c-0.1-0.1-0.6,0.1-0.7,0c-0.2-0.2-0.4-0.5-0.7-0.7c-0.3-0.3-0.7-0.4-1-0.7c-0.3-0.2-0.4-0.5-0.7-0.7
					c-0.4-0.3-1-0.1-1.4-0.3c-0.9-0.6-1.4-1.9-2.4-2.7c-0.7-0.5-1.6-1.1-2.1-1.4c-0.4-0.2-0.6-0.2-1-0.3c-0.5-0.1-0.6-0.5-1,0
					c-0.2,0.2-0.5-0.3-0.3-0.3c-1.9,0.2-4.2,0.3-6.2,0.3c-0.6,0-1,0.3-1.7,0.3c-3.7,0.4-7.2-0.1-9.9,0.7c0-0.5-0.3-1-0.7-1
					c-1.5-0.1-0.7-1.9-0.7-3.1c3.7,0.7,6.2-0.3,10-0.3c0.1-1.7-0.1-3.4-0.3-4.1c-0.2-0.3-0.2-0.6-0.4-1c-0.9-1.7-2-2.6-3.1-3.1
					c-0.8-0.4-1.1-0.6-2-0.7c-0.3,0-0.3-0.3-0.4-0.3c-1-0.2-2.2,0-2.7,0c-0.2,0-0.4-0.3-0.3-0.3c-0.3,0-0.2,0.3-0.3,0.3
					c-0.3,0.1-0.4-0.3-0.7-0.3c0,0-0.1,0.3-0.3,0.3c-0.3,0-0.4-0.4-0.7-0.3c-0.5,0.1-1.5,0.4-1.7,0.7c-0.1,0.1-0.6,0-0.7,0
					c-1.2,0.5-2.2,1-2.8,1.7c-0.1,0.1-0.6-0.1-0.7,0c-0.9,0.7-1.3,1.7-1.7,2.4c0,0-0.3,0-0.3,0c-0.1,0.1,0.1,0.6,0,0.7
					c0,0-0.3,0-0.3,0c-0.1,0.1,0.1,0.6,0,0.7c0,0.1-0.3,0-0.3,0c-0.1,0.1,0.1,0.6,0,0.7c0,0-0.3,0-0.3,0c-0.1,0.1,0.1,0.6,0,0.7
					c-0.1,0.1-0.6,0.2-0.7,0.3c-0.2,0.2-0.2,0.8-0.3,1c-0.1,0.2-0.2,0.5-0.3,0.7c-0.3,0.8-0.3,0.8-0.7,1.4c-0.2,0.3-0.7,0.8-0.7,1
					c0,0.4-0.2,0.2-0.3,0.3c-0.6,0.9-0.7,1.4-1.4,2.1c-3,1-9.2,1.5-12.7,1.7c-0.2,0-0.3,0.3-0.3,0.3c-0.3,0-0.4-0.3-0.7-0.3
					c-0.3,0-0.4,0.3-0.7,0.3c-0.8,0-1.6-0.2-2.1,0c-1,0.3-1.5,1.2-2.1,1.4c0-0.7,0.7-1.4,1.4-1.7c0.1-0.1,0.6,0.1,0.7,0
					c0.6-0.7,2.2,0,3.8-0.3c0.5-0.1,1.7-0.3,3.1-0.3c0.1,0,0.6,0.1,0.7,0c0.4-0.4,0.2,0.1,0.7,0c0.5-0.1,1.2-0.2,1.7-0.3
					c1-0.3,2.2-0.4,3.4-0.7c0.6-0.2,1.3-0.2,1.7-0.3c2.1-0.9,3-2.8,4.1-4.8c0.3-0.5,1-1.5,1-2.1c0-0.1,0.2-0.9,0.4-1
					c0.1-0.2,0.6-0.5,0.7-0.7c0.1-0.1-0.1-0.6,0-0.7c0.1,0,0.3,0.1,0.3,0c0.3-0.5,0.4-1,0.7-1.4c0.3-0.3,0.8-0.4,1-0.7
					c0.3-0.3,0.4-0.8,0.7-1c0.4-0.3,0.9-0.1,1.4-0.3c0.2-0.1,0-0.3,0.3-0.3c0.5,0,2.2-1.2,3.1-1.4c1.5-0.3,4.1,0.2,5.8,0.3
					c0.5,0,1.2-0.1,1.7,0c0.1,0,0,0.3,0.3,0.3c0.2,0,0.5,0.3,0.7,0.3c0.6,0.3,1.6,0.4,2.1,1c0.4,0.5,0.5,1.1,1,1.7
					c0.4,0.5,0.5,0.5,0.7,1.4c0.1,0.3,0.3,0.2,0.3,0.3c0.4,1.5-0.1,3.3,0.3,5.1c-1.3,0.1-2.4-0.1-3.8,0c0,0-0.1,0.3-0.3,0.3
					c-0.4,0-0.9-0.1-1.4,0c-0.7,0.1-0.9,0.3-1.4,0.3c-1,0.1-2.6-1-3.1,0.3c-0.5,1.2,0.7,1.5,1.4,1.7c1.4,0.5,4.3,0.1,6.9,0
					c0.9-0.1,1.6-0.3,2.4-0.3c1.8-0.1,3.3,0.3,4.5-0.3c0.7-0.2,0.5-0.8,0.7-1.7c0.2-0.7,0.7-3.6,0.3-5.5c-0.1-0.3-0.3-0.5-0.3-1
					c0-0.6,0.3-0.6,0.3-1c0,0.1-0.4-0.1-0.3-0.3c0,0,0.3-0.1,0.3-0.3c0.2-2.1,0.1-6.4-0.3-8.2c0-1-1.1-1.5-1.7-2.1
					c-0.4-0.3-0.6-0.7-1-1c-0.1-0.1-0.6,0.1-0.7,0c-0.3-0.3-0.8-1.2-1.4-1.7c-0.1-0.1-0.6,0.1-0.7,0c-2.6-3.1-6.4-6.5-9.6-9.6
					c-1.1,0-2.4-0.1-3.4,0c-1.7,0.1-3.2,0.2-5.5,0.3c-2.4,0.2-4.8,0.8-7.2,1c-1.1,0.1-2.3-0.1-3.4,0c-1.1,0.1-2.9,0.2-4.8,0.3
					c-3.3,0.2-6.6,0.9-9.9,1c-1.1,1-1.7,2.4-2.4,3.8c-0.7,1.2-1.4,2.7-2.1,4.1c-0.2,0.5-0.1,0.9-0.3,1.4c-0.1,0.2-0.6,0.5-0.7,0.7
					c-0.2,0.5-0.1,0.9-0.3,1.4c-0.1,0.2-0.6,0.5-0.7,0.7c-0.2,0.5-0.1,0.9-0.3,1.4c-0.1,0.2-0.6,0.5-0.7,0.7c-0.3,0.6-0.4,1.8-1,2.1
					c0-0.8,0.3-1.7,0.7-2.4c0.1-0.2,0.6-0.5,0.7-0.7c0.2-0.5,0.1-0.9,0.3-1.4c0.1-0.2,0.6-0.5,0.7-0.7c0.2-0.5,0.1-0.9,0.3-1.4
					c0.1-0.2,0.6-0.5,0.7-0.7c0.3-0.5,0.1-0.9,0.3-1.4c1.3-2.9,3-5.5,4.1-8.6c1.6,0.4,3.4,0.1,5.1,0c1.4-0.1,2.9-0.2,4.4-0.3
					c4-0.3,8.9-0.6,12.3-1c0.5-0.1,0.7-0.3,1-0.3c2.2-0.3,4.1-0.2,6.5-0.3c1.9-0.1,4-0.7,5.5-0.3c1.1,0.3,1.4,1.1,2.4,2.1
					c1.7,1.7,3,3,4.5,4.5c0.8,0.8,1.9,1.3,2.1,2.4c2.5,1.5,4.5,3.5,6.9,5.1c0.1,2.2-0.1,3.9,0,5.5c0.1,1.5,0.2,1.3,0,2.1
					c-0.8,2.5,0.6,4.8,0,7.2c0.7-0.2,0.5-1.2,0.7-1.7c0.5-1.6,1-3.5,1.4-4.8c0.2-0.9,0.6-1.4,0.7-2.4c0.2-1.5,0.5-2.8,0.7-4.5
					c0.2-1.3,0.5-3.3,0.7-3.8c0.3-0.9,0-1.8,0-2.4c0-0.2,0.4-0.4,0.4-0.3c0-0.4-0.3-0.2-0.4-0.3c-0.1-0.3,0.3-0.4,0.4-0.7
					c0.1-1.6,0.1-2.4,0.3-3.4c0.5-2,0.8-4.9,1-6.5c0.1-0.4,0-0.9,0-1.4c0-0.3,0.3-0.3,0.3-0.4c0.2-1.2,0.2-2.3,0.3-3.4
					c1.1-7.8,2.1-16,3.1-23.3c0.1-0.9-0.3-2.3,0.7-3.1c1.4-0.4,2.9-0.6,3.1,1c0.6,0.4,1.3,0.7,1.4,1.7c-0.4,0.1-0.2,0.3-0.3,0.7
					c-0.2,0.8-0.3,0.9-0.3,1.7c-0.1,1.8-0.9,3.4-0.7,5.5c-0.5,0.2,0,0.4,0,0c0.4-0.2,0.6-1,0.7-1.4c0.1-0.5,0.2-1.1,0.3-1.7
					c0.1-0.4,0.3-0.5,0.3-1c0-0.3,0.3-0.3,0.3-0.3c0.3-1.2-0.1-1.7,0.3-2.1c0.1-0.1,0-0.6,0-0.7c0.2-0.4,0.4-0.8,0.7-1
					c0.1-0.1,0-0.6,0-0.7c0.3-1.1,0.5-1.9,1-2.7c0.5-0.7,0.9-0.9,1.4-1.4c1.1-0.3,0.5,1.1,1.4,1c0.9-0.1,0.3,1.3,1.4,1
					c-1.3,4.8-2.5,9.8-3.8,14.7C442.1,16.8,442,16.8,441.9,16.8z M442.6,1.8c0.5,0.2,0.6,0.7,0.7,1.4c0.9,0.3,0.7-0.7,1.4-0.7
					C444.8,1.2,442.9,0.5,442.6,1.8z M437.8,4.2c-0.2-0.3,0-0.8-0.3-1c-0.7-0.4-1.4-0.5-2.1,0c0.3,1.4,1.6,2.5,3.1,1.7
					C438.8,4.2,437.9,4.4,437.8,4.2z M429.5,47.4C428.5,47.4,429.9,48.8,429.5,47.4c0.4-0.1,0.7-2.4,1-3.4c0.1-0.4,0.6-0.9,0.7-1.4
					c0.1-0.3-0.2-1.2,0-1.4c0.8-0.8,0.9-3.5,1.4-5.1c0-0.1,0.3,0,0.3-0.3c0.1-0.9,0.3-0.9,0.3-1.7c0.1-0.9,0.1-0.9,0.3-1.7
					c0-0.1-0.1-0.6,0-0.7c0.6-0.5,0.4-2.1,0.7-3.4c0-0.1,0.3,0,0.3-0.3c0-0.4,0.5-1.7,0.7-2.4c0.3-1,0.5-2.1,0.7-3.1
					c0.1-0.8-0.1-1.9,0-2.7c0-0.3,0.3-0.4,0.3-0.7c0.1-0.3-0.1-0.7,0-1c0-0.1,0.3,0,0.3-0.3c0.1-1,0.2-2,0.3-3.1
					c0.3-2.4,0.9-5.7,1.4-8.6c-0.3-1.2-0.9,0.4-1.4,0.3c0,0-0.1-0.5-0.3-0.3c-0.3-0.8-1-1-1.7-1.4c-0.2,2.2-0.5,4-0.7,6.5
					c0,0.2,0.1,0.5,0,0.7c-0.1,0.4-0.2,0.7-0.3,1.7c-0.1,0.8-0.2,1.1-0.3,2.4c-0.1,0.8-0.3,1.1-0.3,2.4c0,0.2,0.1,0.5,0,0.7
					c-0.1,0.3-0.6,1.7-0.7,2.7c-0.1,0.5,0.1,0.9,0,1.4c-0.2,1.3-0.8,3.9-1,5.8c-0.3,2.8-0.4,5.4-1,7.9c-0.2,0.8,0,2.5-0.3,3.8
					C429.9,41.7,429.2,44.8,429.5,47.4z M434.3,51.5c-0.3,0.4-0.1,0.9-0.3,1.4c-0.1,0.1-0.2,0.2-0.3,0.3c-0.2,0.4-0.3,0.4-0.7,0.7
					c-0.2,0.1,0.4,0.6,0.3,0.7c-0.1,0.1-0.7-0.1-0.7,0c-0.1,0.4,0,1,0,1.4c0,0.3-0.3,0.3-0.3,0.3c-0.1,0.6-0.2,1.5-0.3,2.1
					c-0.9,4.3-1.3,8.3-1.7,12c0.8,0.4,1.4,1.1,2,1.7c0.2,0.1,0.2,0.2,0.3,0.3c0.1,0.1,0.6,0.7,0.7,0.7c0.7,0,1.2,1.2,1.4,1.4
					c0.1,0.1,0.6-0.1,0.7,0c0.4,0.2,0.7,0.8,1,1c0.1,0,0.3,0,0.3,0c0.4,0,0.2,0.2,0.3,0.3c0.7,0.5,1.3,0.9,2.1,1
					c0.9-4.8,0.3-11.3,0.7-16.5c0.1-1.6,0.5-2.8,0-3.8c-0.1-0.2-0.6-0.5-0.7-0.7c-0.2-0.4-0.2-0.7-0.3-1c-0.1-0.2-0.3-0.5-0.4-0.7
					c0-0.5-0.5-1.1-0.7-1.4c-0.1-0.2-0.6-0.5-0.7-0.7c-0.4-0.7-0.3-1.7-1-2.1c0-0.2-0.1-0.4-0.3-0.3C435.6,50.7,434.7,51,434.3,51.5
					z M429.9,62.4c-0.3,1-0.1,1.9-0.3,2.8c0,0-0.3,0-0.3,0c-0.1,0.1,0.1,0.6,0,0.7c0,0-0.3,0-0.4,0c-0.1,0.1,0,0.6,0,0.7
					c-0.1,1.1-0.7,2.6,0.7,3.1c0.5-2.9,0.9-6.6,1.4-8.9c0.3-1.4,0.5-2.2,0.7-3.4c0,0,0.3,0,0.3,0c0.2-0.2-0.1-1.5-0.3-1.4
					C431.4,57.9,430.3,60.8,429.9,62.4z M427.1,167.7c0.3,1.1-0.9,0.7-0.7,1.7c0.8,0.7,2.6,0.4,2.8-0.7c-0.6-0.3-1.9,0-1.7-1
					c0.3,0.1,0.3-0.1,0.3-0.3c0.3,0.1,0.3-0.1,0.4-0.3c0.3,0,0.7,0,1,0c-0.1,0.4-0.6,0.5-0.7,1c0.6,0,1.1,0,1.7,0c0-0.5-0.1-1,0.3-1
					c0,0.5-0.2,1.3,0.3,1.4c0.1-0.8,1.9,0,1.7-1c-0.5-0.2-1.8,0.4-1.7-0.3c0.7-0.2,0.9-0.9,1-1.7c-1.4-0.3-1.6,0.7-2.7,0.7
					c0.4-2.2-1.6,0.2-2.1-1c1.1-1,1.9-3.2,4.1-2.1c0,0.2,0,0.5,0,0.7c-0.3-0.1-0.3,0.1-0.3,0.3c-0.1,0-0.2,0-0.3,0
					c0.4-1.2-2.1-0.9-1.4,0.3c0.7,0.2,0.9-0.2,1.4-0.3c0.1,0.4,0.3,0.2,0.3,0c0.3,0.1,0.3-0.1,0.3-0.3c0.3-0.1,0.3-0.3,0.7-0.3
					c0.1,0.5-0.3,0.6-0.3,1c1.2-0.3,1.3,0.5,2.4,0.3c0.2-1.5-0.7-1.8-1.7-2.1c0.1,0.4-0.1,0.6-0.3,0.7c0-0.5,0.1-1-0.3-1
					c0.1,0.4-0.1,0.6-0.3,0.7c0-0.7,0-1.4,0-2.1c-1.2-0.5-0.2,1.2-1,1c0.1-0.7-0.3-0.9-0.4-1.4c-1,0.1-1.4,0.6-2.4,0.7
					c-0.1,1.5-0.8,3.2-1,4.8c-0.1,0.4,0.1,0.9,0,1.4c0,0.3-0.7,0.9,0,1C426.6,168,426.8,167.7,427.1,167.7z M430.6,164.6
					c-0.1-0.1-0.5,0.2-0.3,0.3C430.3,165,430.7,164.7,430.6,164.6z M432.3,165.6c0.2,0,0.5,0,0.7,0c0-0.2,0-0.5,0-0.7
					c-0.2,0-0.5,0-0.7,0C432.3,165.2,432.3,165.4,432.3,165.6z M433.7,165.6c0-0.2-0.3-0.4-0.3,0C433.3,165.8,433.6,166,433.7,165.6
					z M433,166.3c-0.1-0.1-0.5,0.2-0.3,0.3C432.7,166.7,433.1,166.5,433,166.3z"/>
				<path id="XMLID_144_" class="st3" d="M441.9,16.8c-0.1,2.5-1.1,4.1-1.4,6.5c-0.1,0-0.2,0-0.3,0c0.3-1.1,0.1-2.4,0.3-3.4
					c0,0,0.3,0,0.3,0c0.1-0.1-0.1-0.6,0-0.7C441.1,18.7,441.7,16.6,441.9,16.8z"/>
				<path class="st3" d="M359.3,59c-0.6-0.6-1.3-2.6-1.4-3.1c0-0.4-0.3-0.2-0.3-0.3c-0.2-0.4,0.4-1.8-0.7-1.4
					c-1.2,4.6-1.1,10.4-0.7,14.4c0.1,1.2-0.1,2.1,0.4,2.4c0.1,0.1,0,0.6,0,0.7c0.2,1.9,0.4,3.8,1,4.5c0.4,0.4,0.6,1.7,0.7,2.1
					c0.3,1.2,0.2,1.9,0.3,3.1c0.1,0.4,0.3,0.5,0.3,1c0,0.3,0.3,0.3,0.3,0.4c0.1,0.5-0.1,1.2,0,1.7c0.1,0.9,0.6,1.5,0.7,2.4
					c0,0.3,0.3,0.3,0.3,0.3c0.7,2.7,1.3,5.3,2.1,7.5c0.3,1,0.6,1.6,0.7,2.4c0,0.6,0.9,0.2,0.3,0.7c-0.2,0.2,0.4,0.4,0.3,0.3
					c0.1,0.4,0.3,1.1,0.7,1.4c0.2,0.5,0.4,0,0,0c-0.3-7.8-1.6-14.6-2.1-22.3c0.7,0.4,0.3,1.4,0.3,2.1c0.1,0.3,0.3,0.4,0.3,0.7
					c0.5,2.1-0.2,4.4,1,5.5c0.8-1.8,2.1-3.2,3.4-4.4c0.7-0.7,1.4-1.4,2.1-2.1c0.7-0.6,1.4-1.5,2.4-1.7c-2.7,3.1-5.9,5.7-8.2,9.3
					c0.7,5.8,1.1,12,2.1,17.5c2.3,0.8,5.5,0.1,6.9-1c1.6,0.4,3.1-0.1,4.8,0c0.6,0,1.1,0.3,1.4,0.3c0.1,0,0.5-0.3,0.3-0.3
					c0.7,0.1,1.1,0.6,1.7,0.7c3.2,0.3,6.5-0.3,10.3-0.3c0.2,0,0.4,0.3,0,0.3c-4,0.6-9,0.4-12,0c-2.6-0.3-6.1,0.3-7.5,0.7
					c-2.5,0.7-4.5,0.4-6.9,0.3c0.7,3.5,0.4,7,0.7,10.6c0.1,1.4,0.6,2.9,0.7,3.8c0.2,1.6,0.3,2.8,0.3,3.8c0,0.3,0.3,0.3,0.3,0.3
					c0.1,0.4,0,0.9,0,1.4c0.2,2.3,0.7,4.7,1,7.2c0.2,1.8,0.5,3.6,0.7,5.5c0.5,4.7,0.7,11,1.4,15.1c0.1,0.5,0.8,1.6,0,2.1
					c0.2,0.6,0.6,1.1,1,1.7c0.4,0.5,1,1,1,1.4c0,0.4,0.3,0.2,0.3,0.3c0.2,0.4-0.1,1,0,1.4c0.1,0.5,0.6,0.6,0.7,1
					c0.2,0.9,0.2,1.8,0.3,2.7c0,0.3,0.3,0.4,0.3,0.7c0,0.8,0.6,0.5,0.7,1.4c0,0.3,0.3,0.2,0.3,0.3c0.6,1.9,0,4.2,0.7,6.2
					c-0.4,0.1-0.2,0.3-0.3,0.7c-0.4,1.3-0.3,1.9,0,3.1c2.1-0.6,4.6-0.2,6.2,0c1.4,0.1,2.9,0.1,4.5,0c0.8,0,1.5-0.3,2.4-0.3
					c2.8-0.1,5.5-0.2,7.2-0.3c0.2,0,0.4-0.3,0.3-0.3c0.3,0,0.3,0.3,0.3,0.3c0.2,0.1,0.4-0.3,0.3-0.3c3.9,0.5,8.2,0.4,12,0.3
					c0.5,0,0.4-0.4,0.7,0c0.2,0.3,2.5,0,2.8,0c0.6,0,1-0.3,1.4-0.3c0.4,0,0.2,0.3,0.3,0.3c0.3,0.1,0.4-0.3,0.7-0.3
					c0.5,0,0.9,0,1.4,0c1.3,0.1,1.1,0.2,1.7,0c0.3-0.1,1.3-0.3,1.4-0.3c0.1,0,0.3,0.6,0.7,0.3c-0.1,0.6-0.8,0.2-1.4,0.3
					c-2.5,0.5-6.1,0.1-8.9,0.3c-0.6,0-1.4,0.3-2.1,0.3c-2.1,0-4.2-0.5-6.2-0.3c-0.7,0-1.3,0.3-2.1,0.3c-0.9,0-1.8-0.4-2.7-0.3
					c-2.3,0.1-5.1,0.5-7.2,0.7c-0.6,0.1-1,0.3-1.4,0.3c-0.5,0.1-0.3-0.4-0.7,0c-0.3,0.3-2.7,0-3.1,0c-0.4,0-0.8-0.3-1-0.3
					c-0.4,0-0.5,0.4-1,0.3c-0.7,0-1.4-0.4-2.1-0.3c-1.3,0-4.4,0.9-5.1,0c-0.6,0-0.1,0.7-0.3,1c-0.1,0.2-0.5,0.4-0.7,0.7
					c-0.1,0.2-0.3,0-0.3,0.3c-0.2,0.8-0.3,1-0.7,1.4c-1.1,1.1-3,1.2-3.8,2.7c-1-0.1-2,0.2-3.1,0.3c-1,0.2-2.2,0.2-3.1,0.4
					c-0.5,0.1-1.3-0.2-1.4,0.7c-0.9-0.7-2-0.2-2.7-0.3c-0.3-0.1-0.5-0.3-0.7-0.3c-0.6,0-1.1,0.4-1.7,0.3c-0.5,0-1.1-0.4-1.7-0.3
					c-0.9,0-1.8,0.2-2.7,0.3c-0.6,0.1-1.2-0.1-1.7,0c-0.9,0.1-0.9,0.5-1.4,0c-0.2-0.2-1.1,0.2-1-0.3c-0.5-0.4-1.3-0.3-1.4-1
					c1.1,0.2,1.7,0.9,2.7,1c0.8,0.1,1.3-0.3,2-0.4c0.5,0,0.7,0.3,1,0.4c0.5,0,0.7-0.3,1-0.4c0.8,0,1.8,0,2.7,0c0.2,0.5,0.4,0,0,0
					c-0.8-0.7-2.4-1.3-2.7-1.7c-0.1-0.1-0.6,0.1-0.7,0c-0.9-0.4-1.4-1.2-2.4-1c-0.1-0.5-0.5-0.6-0.3-1.4c-1.2-0.1-1.7-1.9-2.1-2.4
					c-0.4-0.6-0.5-1.7-0.7-2.7c-0.2-0.9-0.2-1.9-0.3-2.7c-0.1-0.8-0.6-1.6-0.7-2.4c-0.1-0.7,0.1-1.7,0-2.4c-0.1-1.3-0.4-3.3-0.3-4.5
					c0-0.2,0.3-0.4,0.3-0.3c0-0.4-0.3-0.2-0.3-0.3c-0.1-0.3,0.3-0.4,0.3-0.7c0.1-1.1,0-1.4,0.3-1.7c0.2-0.2,0.3-1.6,0.3-1.7
					c0-0.4,0.3-0.2,0.3-0.3c0.3-0.6,0.4-1.8,0.7-2.4c0,0,0.3,0,0.3,0c0.1-0.1-0.1-0.6,0-0.7c0.2-0.2,0.7-0.3,0.7-0.7
					c0.5,0.1,0.2,0.8,0,1c-0.5,0.1-0.3,0.9-0.3,1.4c0.5-0.1,0.3-0.9,0.3-1.4c1.5,0.6-0.2,2.4,0.3,4.1c0.8-0.2,0.1-1.7,0.3-2.4
					c1.2,0.5,0.5,2.4,0.7,3.8c0.1,0.8,0.6,2,0.3,2.7c0.7-0.3,0.2-1.3,0.3-2.1c0.1-0.8,0.4-2.4,0.7-2.1c0.2,1.5-0.7,2.5-0.4,3.8
					c0,0.1,0.3,0.6,0.4,0.3c-0.1,0.8-0.8,0.9-0.7,1.7c-0.5-0.5-0.5-1.5-0.7-2.4c-0.2-0.8-0.4-1.8-0.3-2.7c-0.9,1,0.3,4.1-0.7,5.1
					c-0.5-0.1-0.3-0.8-0.3-1.4c-0.1-2,0.1-4,0-5.8c-0.8,0.5-0.1,2.4-0.3,3.4c-0.8-0.1,0-1.8-0.7-2.1c-0.6,0.5-0.3,2.3-0.3,3.1
					c0,2.6,0,5,0.3,6.9c0.1,0.8,0.6,1.3,0.7,2.1c0.3,1.8,0,3.6,0.7,5.1c0.4,0.9,2.9,3.4,3.4,3.4c0.4,0,0.2,0.2,0.3,0.3
					c0.3,0.2,0.5,0.4,0.7,0.7c0.2,0.3,0.6-0.1,0.7,0.3c0,0-0.6,0.3-0.3,0.7c2.2,0.7,4.8,0.7,7.9,0.7c2,0,4.2,0.3,5.5,0
					c1.7-0.3,2.4-1.8,3.8-1.7c1.3-2.4,2.7-4.9,2.7-8.6c-0.4-1.3,1.3-0.5,1-1.7c0-2-1.3-3.8-1.7-5.1c-0.2-0.6-0.1-1-0.3-1.4
					c-0.3-0.4-0.3-0.7-0.3-1.4c-0.1-1.4-0.5-2.1-1-3.1c-0.2-0.4-0.5-0.4-0.7-0.7c-0.1-0.1,0.1-0.5,0-0.7c0-0.1-0.6-0.2-0.7-0.3
					c-0.5-0.6-1.2-1.1-1.4-2c0.6-0.2,0.9,0.5,1,0c-1-4.4-1.4-8.7-2.1-13c-0.6-4.3-1.5-8.7-2.4-13c-0.9-4.4-2.2-9.9-2.7-14.1
					c-0.1-0.4,0-0.9,0-1.4c0-0.3-0.3-0.3-0.3-0.3c-0.3-2.1-0.6-4.6-0.7-6.2c0-0.3-0.3-0.3-0.3-0.3c-0.1-0.6,0.1-1.5,0-2.1
					c-0.2-2.6-0.7-5.8-0.7-8.2c-0.3-1.2,1.4-0.4,1-1.7c-0.6-3.6-1.7-7.5-2.7-11.7c-0.8-3.2-1.9-7.1-2.4-9.9c-0.5-3-0.6-5.9-0.3-8.2
					c0.2-2.1,0.2-4.2,0.3-5.5c0.1-0.5-0.1-1.2,0-1.7c0.2-0.9,0.3-3.3,1.7-3.4C357.9,55.1,358.9,56.7,359.3,59z M361,99.1
					c0.1,1.4-0.1,2.7,0,4.1c0.1,0.9,0.6,2.7,0.7,3.1c0.1,0.3,0,0.7,0,1c0.1,0.6,0.3,1,0.3,1.4c0.3,2,0.4,3.9,0.7,5.8
					c0.2,1.8,0.7,3.7,1,5.5c0.7,4,1.6,8.4,2.4,11.7c0.4,1.5,0.6,3.4,0.7,4.4c0,0.3,0.3,0.3,0.3,0.3c0.3,2,0.4,3.9,0.7,5.8
					c0.2,1.7,0.5,3.4,0.7,4.5c0.1,0.5-0.2,1.3,0.3,1.4c0.3-1.3-0.3-3.5-0.3-3.8c-0.1-1.4,0.2-2.8,0-3.8c-0.6-2.4-0.7-5.8-1-8.6
					c0,0-0.3,0-0.3,0c-0.1-0.1,0-0.6,0-0.7c-0.1-1-0.2-1.2-0.3-1.7c-0.4-1.5,0.4-2.8-0.3-3.4c-0.1-0.1,0-0.6,0-0.7
					c-0.4-1.5-0.4-3.5-0.7-5.1c-0.2-1.3-0.6-2.5-0.7-3.8c-0.2-2.2-0.1-4.5-0.3-6.8c-0.2-2.1-0.8-4.4-0.4-6.5c-0.9-0.6-1-1.7-1.4-2.4
					c-0.1-0.2-0.6-0.5-0.7-0.7c-0.2-0.5-0.2-0.9-0.3-1.4c-0.2-0.7-0.9-1.7-1-2.4c-0.1-0.5,0.4-1.3-0.3-1.7
					C359.7,96.3,360.9,97.6,361,99.1z M347.6,156c-0.1-0.1-0.5,0.2-0.3,0.3C347.4,156.5,347.8,156.2,347.6,156z M345.9,161.5
					c-0.1,0.6,0.4,0.9,0.3,0c-0.6-1.4,1.2-3.2-0.3-3.4C345.9,159.2,345.9,160.4,345.9,161.5z M346.9,169.4c0.1,0.4-0.4,0.7-0.3,1.4
					c0,0,0.3,0,0.3,0c0.7,0.5-0.4,3.7,0.7,3.4c0.1,0.5-0.1,1.3,0.3,1.4c0.2-1.4-0.5-2.8-0.7-4.4c-0.1-0.8,0.1-1.6,0-2.4
					c0-0.4-0.3-0.5-0.3-1c-0.1-1.5,0.2-3-1-3.4C345.4,166.4,346.7,167.9,346.9,169.4z M374.4,171.4c-0.1-0.1-0.5,0.2-0.3,0.4
					C374.1,171.9,374.5,171.6,374.4,171.4z M373.3,174.5c1,0.5,0.9-1.8,0.3-1.7C374,173.8,373.2,173.7,373.3,174.5z M353.1,180
					c0,0.3,0.4,0.3,0.7,0.3c0,0.1,0,0.2,0,0.3c0.8-0.1,0.7,0.6,1.7,0.3c-0.2,0.1,2.3,1,3.1,1c1,0.1,2-0.2,3.4-0.3
					c1.4-0.1,2.3-0.1,3.1-0.4c0.6-0.1,1.1,0.1,1-0.7c-1.4-0.1-2.6,1.1-4.5,0.7c-0.3-0.1-0.4-0.4-0.7-0.3c-0.2,0-0.4,1.2-1,0.3
					c-1.8,0.2-2.6-0.6-4.5-0.3c-0.3-0.5-0.9-0.7-1.7-0.7C353.8,180,353.4,180.1,353.1,180c0.3-0.3-0.8-0.7-1-1
					c-0.2-0.2-0.1-0.8-0.3-1c-0.2-0.2-0.8-0.1-1-0.3c-0.2-0.3-0.1-0.8-0.3-1c-0.2-0.2-0.8-0.1-1-0.3c-0.2-0.2,0.1-0.8-0.3-0.7
					C349.3,178.1,350.9,179.4,353.1,180z M371.6,178.3c-0.3-0.1-0.3,0.1-0.3,0.3c-0.5,0.2,0,0.4,0,0
					C371.6,178.7,371.6,178.5,371.6,178.3c0.9-0.3,0.9-1.4,1.4-2.1C371.9,176.3,371.9,177.5,371.6,178.3z"/>
				<path id="XMLID_134_" class="st3" d="M366.1,55.6c-0.1,1.5-1.3,2.7-1.4,3.8c0,0.4-0.3,0.2-0.4,0.3c-0.5,0.9-1,1.6-1,2.4
					c0,0.6-0.7,0.9-0.7,1.4c0,0.4-0.3,0.2-0.3,0.4c-0.2,0.4-0.1,1.2-0.3,1.7c-0.1,0.1-0.6,0.2-0.7,0.3c-0.5,1.1,0.2,1.9,0.3,2.7
					c0.1,0.8-0.1,1.7,0,2.4c0,0.4,0.3,0.4,0.3,0.7c0.1,0.3,0,0.7,0,1c0.1,0.4,0.5,1.3,0,1.7c-0.5-0.1-0.3-0.8-0.3-1.4
					c-0.3-2.6-0.9-5.5-1-7.9c0-0.3-0.3-0.3-0.3-0.3c-0.2-1.3,0-2.6-0.3-3.8c-0.2-0.7-0.9-1.3-0.7-2.1c1.2,1.3,2.1,3,1.7,5.8
					c0.9,0,1.1-1.2,1.4-1.7c0.3-0.5,0.7-1.4,0.7-1.7c0-0.5,0.5-1,0.7-1.4c0.1-0.2,0.3-0.5,0.3-0.7c0-0.6,0.9-1.9,1-2.1
					c0.4-0.6,0.4-1.3,0.7-1.7C365.9,55.6,366,55.6,366.1,55.6z"/>
				<path id="XMLID_133_" class="st3" d="M362.4,77.2c-0.6,0-0.6-2.4,0-2.4C362.4,75.6,362.4,76.4,362.4,77.2z"/>
				<path id="XMLID_132_" class="st3" d="M374,75.1c0-0.2,0-0.4,0.3-0.3C374.3,75,374.3,75.2,374,75.1z"/>
				<path id="XMLID_131_" class="st3" d="M373.7,75.5c0-0.2,0.1-0.4,0.3-0.3C374,75.3,374,75.5,373.7,75.5z"/>
				<path id="XMLID_130_" class="st3" d="M373.3,75.8c0-0.2,0-0.4,0.3-0.3C373.7,75.7,373.6,75.9,373.3,75.8z"/>
				<path id="XMLID_129_" class="st3" d="M373,76.1c0-0.2,0.1-0.4,0.3-0.3C373.3,76,373.3,76.2,373,76.1z"/>
				<path id="XMLID_128_" class="st3" d="M372.6,76.5c0-0.2,0.1-0.4,0.3-0.3C373,76.4,372.9,76.5,372.6,76.5z"/>
				<path id="XMLID_127_" class="st3" d="M372.3,76.8c0-0.2,0.1-0.4,0.3-0.3C372.6,76.7,372.6,76.9,372.3,76.8z"/>
				<path id="XMLID_126_" class="st3" d="M372,77.2c0-0.2,0.1-0.4,0.3-0.3C372.3,77,372.3,77.2,372,77.2z"/>
				<path id="XMLID_125_" class="st3" d="M431.3,98.4c-0.3,0.8-1.9,0.1-2.8,0.3C428.8,98,430.4,98.6,431.3,98.4z"/>
				<path id="XMLID_124_" class="st3" d="M428.2,98.8c0,0.8-4.8,0.1-1.4,0C427.3,98.8,427.7,98.8,428.2,98.8z"/>
				<path id="XMLID_123_" class="st3" d="M424.8,99.1c0,0.8-4.8,0.1-1.4,0C423.8,99.1,424.3,99.1,424.8,99.1z"/>
				<path id="XMLID_122_" class="st3" d="M421,99.5c0.4,0.7-4.4,0.2-1.4,0C420.1,99.4,420.5,99.5,421,99.5z"/>
				<path id="XMLID_121_" class="st3" d="M416.9,100.1C417.6,99.1,419.1,100.5,416.9,100.1L416.9,100.1z"/>
				<path id="XMLID_120_" class="st3" d="M416.9,100.1c-0.5,0.6-1.4,0.4-2.4,0.7c-0.7,0.2-1.5,0.6-2.1,0.7c-0.8,0.1-3.1,0.1-2.1-0.3
					C413,101.3,414.2,100,416.9,100.1z"/>
				<path id="XMLID_119_" class="st3" d="M406.9,101.9C406.9,101.4,407.4,101.6,406.9,101.9L406.9,101.9z"/>
				<path id="XMLID_118_" class="st3" d="M408.3,101.5c0.3,0,0.7,0,1,0C409.4,102.4,406.3,101.5,408.3,101.5z"/>
				<path id="XMLID_117_" class="st3" d="M406.9,101.9c-0.1,0.5-0.8,0.3-1.4,0.3c-0.7,0-1.4,0-2.1,0
					C404,101.4,405.9,102.1,406.9,101.9z"/>
				<path id="XMLID_116_" class="st3" d="M400.8,102.6c0-0.3,0.4-0.3,0.7-0.4c0.4,0,0.7,0,1,0C402.5,102.9,401.2,102.3,400.8,102.6z
					"/>
				<path id="XMLID_115_" class="st3" d="M393.2,103.2c0.5-0.7,2.6-1,3.4-0.3c1-0.4,2.4-0.4,3.8-0.3c0,0.3-0.4,0.3-0.7,0.3
					C397.6,103.1,395.6,103.4,393.2,103.2z"/>
				<path id="XMLID_114_" class="st3" d="M407.9,113.5c1.1-0.2,1.3,0.4,2.1,0.3c-0.2,1.2-0.8,3.4,0,4.5c1.5-0.6,0.9-3.2,2.8-3.4
					c-0.7,3.8-1.4,7.5-3.1,10.3c-1-0.6-1.3-1.9-2.1-2.7c0.3-1.4,1.5-2,2.1-3.1c-0.3-0.5-0.9-0.7-1.4-1c-0.1-0.6-0.2-1.1-0.7-1.4
					C407.7,115.8,407.3,114.2,407.9,113.5z"/>
				<path id="XMLID_113_" class="st3" d="M401.4,114.5c0.7,0,1.4,0,2.1,0c-0.1,1.6-0.8,2.6-0.7,4.5c0.2-0.3,0.5-0.5,0.7-0.7
					c0.4-0.5,1.1-1.2,1.7-2.1c0.8,0.3,0.1,1.9,0.3,2.8c-0.5,0.3-1,0.6-1.4,1c0.3,0.7,1.5,0.6,2,1c-0.1,1.3-1.1,1.7-1.4,2.7
					c-1.4-0.5-0.3-3.4-2.4-3.1c-0.9,0.5-0.4,2.3-1,3.1c-0.7,0.2-0.6-0.5-0.7-1c-0.5,0.1-0.3,0.9-0.3,1.4c-0.6,0-1.1,0-1.7,0
					c0.1-1.1,0.4-1.9,0.7-2.8c-2.3-0.3-1.2,2.7-3.1,2.8c0-1.6,0-3.2,0-4.8c0.7-0.4,0.3-0.2,1.4,0c-0.1,0,0.2-0.5,0.3-0.3
					c0,0,0.4,0.7,0.3,0.7c0.6,0,1.3-1.5,2.1-0.3C401.4,118.4,400.9,116,401.4,114.5z"/>
				<path id="XMLID_112_" class="st3" d="M386.4,115.6c0,1.2-1.4,1.3-2.1,1.7c-0.2,0.1,0.1,0.3-0.3,0.3c-0.5,0-0.8,0.7-1.4,0.7
					c-0.3,0-0.3,0.4-0.7,0.3c0.1,0.4-0.1,0.6-0.4,0.7c0,0.6,0,1.1,0,1.7c0-0.1,0.6,0.2,0.4,0.3c-0.7,0.5,0.1,3.1,0.3,4.5
					c0.1,0.5-0.2,1,0.3,1c-0.1,1-1.8,0.5-2.1,1.4c-1.4-1.6-0.6-6.4,0-8.2c-0.7-0.7-1.5,1.2-2.8,1c0.1-0.3-0.1-0.7,0-1
					c0.1-0.4,0.2-0.1,0.3-0.3c0.1-0.2,0.5-0.5,0.7-0.7c0.4-0.4,1.1-0.6,1.7-1c0.3-0.2,0.6-0.1,1-0.3c0.2-0.1,0.5-0.6,0.7-0.7
					c0.4-0.2,0.7-0.1,1-0.3C383.8,116.3,384.9,115.4,386.4,115.6z"/>
				<path class="st3" d="M417.6,118.3c-0.5,0.3-0.5,1.1-0.7,1.7c-1.4,0.4-2.1,1.6-3.8,1.7c-0.2-0.9-0.6-2.3-0.3-3.4
					c0-0.1,0.6-0.6,0.7-0.7c0.4-0.6,1-1.8,1.4-1c0.5-0.4,0.7-1.1,1.7-1C417.2,116.2,417.3,117.3,417.6,118.3z M414.8,120.4
					c0.4-0.7,0.9-1.4,0.7-2.7c-0.4,0-0.5-0.4-1-0.3C414.2,118.1,413.6,120.1,414.8,120.4z"/>
				<path id="XMLID_109_" class="st3" d="M417.6,118.3c0.8-0.4,0.4-2.1,2-1.7c-0.3,0.9-0.7,2.7,0,3.4c1.1-0.9,1.7-2.2,2.4-3.4
					c0.4,0,0.5,0.9,0.3,1.4c-0.3,1.4-0.9,2.9-0.7,4.5c-0.7,0.6-1.6-0.4-1.7-1.4c-0.9,0.5-1.1,1.4-2.4,0.7
					C417.6,120.6,417.6,119.4,417.6,118.3z"/>
				<path id="XMLID_108_" class="st3" d="M385.7,117.3c0.3,0,0.7,0,1,0c0,1.1,0,2.3,0,3.4c0.9,0.1,0.3-1.3,1.4-1
					c0.1-0.8,0.9-0.8,1.7-0.7c0.9,1.7-0.1,5.3,0.3,6.5c-0.7,0-1.4,0-2.1,0c-0.3-1.7,0.5-3.6,0-4.4c-0.6,0.3-0.6,1.3-1.4,1.4
					c0,1.7,0.4,3.8-1.4,3.8C384.4,123.5,385.3,119.8,385.7,117.3z"/>
				<path id="XMLID_107_" class="st3" d="M394.9,119.3c0.3,0.2,0.6,0.3,0.7,0.7c0,0.7,0,1.4,0,2.1c0.1,0.4-0.1,0.6-0.3,0.7
					c0.2,1.3,0.3,1.4-0.3,2.4c-0.9,0.3-0.7-0.7-1.4-0.7c-0.5,0-1.1,1.4-1,0c-0.3,0.3-0.8,0.4-1.4,0.3c-0.9-2-0.1-5,2.4-4.8
					c-0.1,1-1.3,1-1.4,2.1c0.3,0.3,0.2,0.9,0.7,1c1.5,0,0.9-2.1,1-3.4C394.4,119.7,394.9,119.7,394.9,119.3z"/>
				<path class="st3" d="M401.1,129.3c0.8-0.1,0.4,1,1,1c-0.1,1.6,0.2,2.8,0.7,3.8c0.8,0.9,2.2,1.3,2.4,2.7
					c-0.8,0.5-1.7,0.9-3.1,0.7c-0.4,2,0.9,2.3,1.7,3.1c1.5-0.1,1.7-0.4,2.7,0.3c-0.2,2.3-2,2-4.1,1.7c-0.7,0.4-0.4,2.6,0,3.1
					c0.2,0.9,1.5,1,2.4,1.4c0.8,0.3,2.2,0.2,2.1,1.4c-0.1,1.1-1.4,0.9-2.4,1c-0.6,2.9,2.5,2.1,3.1,3.8c0.4,0.9-0.8,0.4-1,0.7
					c-0.3,0.4-0.5,0.9-1,1.4c0.5,1.2,1.4,2,2.4,2.7c0.6-0.1,0.6,0.3,0.7,0.7c-2.4,0.7-4,0.3-6.5,0.7c-0.5-0.5-1.2-0.9-1-2
					c-0.7,0-1.4,0-2.1,0c-1,0-1.3,0.8-1.7,1.4c-2.1,0-4.1,1.3-6.2,0.3c0.7-0.9,1.7-1.5,2.8-2.1c-0.2-0.5-0.5-0.9-0.7-1.4
					c0-1.3-2.4-0.1-2.4-1.4c0.1-1.4,1.6-1.3,2.4-2.1c0.7-0.7,1.6-1.4,1.4-3.1c-0.1-0.8-1.7-0.1-2.4-0.3c-0.1-0.8-1.6-0.2-1.4-1.4
					c0-1.4,1.7-0.8,2.4-1c0.3-0.1,0.9-0.5,1.4-0.7c0.2-0.1,1.1-0.2,1.4-0.3c0.8-0.6,0.8-1.4,1.4-2.1c-0.3-1.3-2.5-0.7-3.1-1.7
					c-0.4-0.1-0.2-0.7-0.7-0.7c0.5-0.8,2-0.5,2.7-1c0.3-0.3,1.1-0.6,1.4-1c0.3-0.5,0-1.4,0.7-1.7c-0.6-0.5-1.8-0.5-2.7-0.7
					c0.4-1.7,2.2-1.9,3.4-2.7C399.8,132.3,400.5,130.9,401.1,129.3z M399.7,136.1c1.1,0.5,0.9-2,0.3-2
					C400.3,135.1,399.5,135.1,399.7,136.1z M401.1,136.1c1,0.6,1-1.5,0.3-1.4C401.5,135.4,401.1,135.5,401.1,136.1z M399,135.5
					c0-0.3-0.6-0.4-0.7,0C398.4,135.9,398.7,135.7,399,135.5z M403.5,136.5c0.2-0.9-0.7-0.6-1-1
					C402.3,136.3,402.6,136.7,403.5,136.5z M400.1,141.6c0.5-0.1,1.3,0.1,1.4-0.3c-1,0.1,0.4-2.2-1-1.7
					C400.7,140.6,399.8,140.6,400.1,141.6z M398.3,142c0-0.6,0.9-0.2,1-0.7c-0.9,0.1,0.9-1.3-0.7-1
					C399.1,141.1,397.2,141.4,398.3,142z M397.3,140.9c-0.1,0-0.2,0-0.3,0c-0.2,0.3-0.5,0.9,0,1
					C397.2,141.7,397.3,141.4,397.3,140.9C397.8,140.7,397.3,140.5,397.3,140.9z M402.1,142c0.5,0,0.9,0,1.4,0
					c0.1-0.9-0.5-1.1-1-1.4C402.4,141.1,402,141.2,402.1,142z M396,141.3c-0.3,0.1-0.7,0-0.7,0.3C395.5,141.5,396,141.6,396,141.3z
					 M404.5,142c0.8,0.1,1.3-0.1,1.4-0.7C405.3,141.4,404.2,140.9,404.5,142z M397,145.4c-0.1-0.1-0.5,0.2-0.4,0.3
					C396.7,145.8,397.2,145.6,397,145.4z M397,148.5c0.5-0.2,1.8,0.4,1.7-0.3c-1.2-0.5,0.9-2.2-0.3-2.7
					C397.9,146.5,397.2,147.2,397,148.5z M399.7,148.8c0.1-0.4,0.4-0.2,0.7,0c-0.3-1,0.7-3.5-0.7-3.4
					C399.5,146.3,398.7,148.7,399.7,148.8z M402.5,148.8c0.2-1.6-0.4-2.6-1.4-3.1C401,147.3,401.2,148.6,402.5,148.8z M394.9,148.5
					c1.2,0.3,2-1.7,1.4-2.1C395.9,147.1,395.4,147.8,394.9,148.5z M394.6,147.1c-0.1-0.1-0.5,0.2-0.3,0.3
					C394.3,147.5,394.8,147.3,394.6,147.1z M392.9,147.4c-0.1-0.1-0.5,0.2-0.3,0.3C392.6,147.9,393,147.6,392.9,147.4z M403.5,147.4
					c-0.1-0.1-0.5,0.2-0.4,0.3C403.2,147.9,403.7,147.6,403.5,147.4z M394.2,147.8c-0.1-0.1-0.5,0.2-0.3,0.3
					C394,148.2,394.4,148,394.2,147.8z M403.8,148.8c1,0.5,1-1.5,0-1C403.8,148.1,403.8,148.5,403.8,148.8z M405.9,148.1
					c-0.3,0.1-0.7,0-0.7,0.3C405.5,148.4,405.9,148.5,405.9,148.1z M395.6,152.6c-0.7,0.1-0.7,0.9-1,1.4
					C395.7,154.3,395.7,153.5,395.6,152.6c0.1,0,0.2,0,0.3,0c0-0.6,0.4-0.7,0.3-1.4C395.2,151,395.1,152.1,395.6,152.6z M396,153.6
					c0.6,0,1.1,0,1.7,0c0.1-0.8,0.4-1.4,0.7-2.1c-0.5,0-0.8-0.2-1-0.3C397.2,152.3,396.6,153,396,153.6z M399,153.6
					c0.1-0.6,0.4,0.1,1,0c0-0.7,0-1.4,0-2.1c-0.3,0-0.7,0-1,0C399.4,152.4,398,153.2,399,153.6z M401.8,153.6
					c0.5-0.1-0.2-1.8-0.7-2.1C401.3,152.3,400.5,153.9,401.8,153.6z M403.8,154c0.6-0.6-0.3-0.9,0-2.1c-0.5,0-0.9,0-1.4,0
					C402.6,152.9,402.9,153.8,403.8,154z M404.9,153.6c0.8,0.1,1.3-0.1,1.4-0.7c-0.5,0-1.4-1.3-1.7-0.3
					C404.9,152.6,404.9,153.1,404.9,153.6z M392.5,154c1,0.5,2.1-0.6,1-1C393.5,153.6,392.4,153.2,392.5,154z M404.9,156
					c-0.2-0.6,1-1.4,0-1.7C404.7,154.5,404.1,155.9,404.9,156z M395.3,157c0-1.2-0.7-1.8-1.4-2.4C394.1,155.7,394,157.1,395.3,157z
					 M396,155c0.2,0.7-0.5,2.4,0.7,2.1c0.4-0.1,0.4-0.5,0.7-0.7c0.2-0.2-0.3-0.4-0.3-0.3c0-0.4,0.8-1.2-0.4-1.4
					C396.6,154.9,396.3,155,396,155z M400.8,156.7c0.6,0.1,0.8-0.4,1.4-0.3c-0.1-0.6,0.5-2.1-0.7-1.7
					C400.8,155.6,401.7,155.9,400.8,156.7z M403.8,156c-0.1-0.6-0.2-1.1-0.7-1.4C403.2,155.3,402.8,156.4,403.8,156z"/>
				<path id="XMLID_72_" class="st3" d="M363,152.2c0.1-1.7,1-2.6,2.4-3.1c1.9,0.2,1.5,2.6,3.1,3.1c-0.4,1-1.3-0.2-1.7-0.3
					c-0.3-0.7-0.7-1.4-1-2.1c-1,0-1.1,0.7-1.4,1c-0.1,0.1-0.6-0.1-0.7,0C363.4,151.3,363.6,152.5,363,152.2z"/>
				<path id="XMLID_62_" class="st3" d="M357.6,161.5C357.8,162,358,161.5,357.6,161.5c0.4-0.6,0.1-1.4,0.3-2.1c0,0,0.3,0,0.3,0
					c0.1-0.1-0.1-0.6,0-0.7c0.2-0.2,0.7-0.2,0.7-0.7c0-0.4,0.2-0.2,0.3-0.3c0.5-0.9,0.8-1.1,1.4-1.7c1-0.9,0.9-1.4,1.4-2.4
					c0-0.1,0.3,0,0.3,0c0.4-0.4,0-1.5,0.7-1.4c0,2.1-1.4,2.7-1.7,4.5c-0.6,0-1.1,0.1-1.4,0.3c0.3,0.9-1.3,1.6-0.3,2.1
					c-0.6,1.3-1.1,2.2-1,3.4c0.1,0.9,0.5,1,0.7,1.4c0.2,0.3,0.2,0.5,0.3,0.7c0.8,1,2.1,1.7,2.7,2.4c0.5,0,0.8-0.2,1-0.4
					c0.3,1.2-1.4,0.7-2.1,0.4c-0.1-0.1-0.2-0.6-0.3-0.7c-0.3-0.2-0.8-0.1-1-0.3c-0.6-0.5-0.7-1.7-1.4-1.7c0.1-1.5-1.3-0.1,0,0
					c-0.6,0.9-1.1-0.4-1.4-0.7c-0.4-0.4-0.7-1.3-1-1.7c-0.7-0.9-1.8-1.7-2-2.7c-1.6-0.1-1.5-1.9-3.1-2.1c-0.1-2.3-2-2.8-2.1-5.1
					c1,0.1,0.8,1.1,1,1.4c0.7,1.1,1,2.1,1.7,3.1c0.7,0.9,2.2,1.7,3.1,2.7c0.4,0.5,0.4,1,0.7,1.4
					C356.5,161.7,356.8,161.1,357.6,161.5z"/>
				<path id="XMLID_61_" class="st3" d="M366.5,158.1C365.4,158,366.8,156.6,366.5,158.1L366.5,158.1z"/>
				<path id="XMLID_60_" class="st3" d="M366.5,158.1c0.2,0,0.4,0.1,0.3,0.4C366.6,158.4,366.4,158.4,366.5,158.1z"/>
				<path id="XMLID_59_" class="st3" d="M366.8,158.4c0.3,0.1,0.4,0.3,0.3,0.7C366.9,159,366.8,158.8,366.8,158.4z"/>
				<path class="st3" d="M367.2,159.1c1.5,0.2,0.8,3.6,2.1,3.4c0.1,0.9-0.1,1.6,0,2.4c0.1,0.6,0.6,0.9,0.7,1.4
					c0.5,2.4-0.6,3.9-1.4,5.8c-0.3,1,0.5,0.9,0.3,1.7c-0.9,0.5-0.7,2.1-1.7,2.4c0-0.2,0-0.5,0-0.7c0.5-0.2,0-0.4,0,0
					c-0.2,0-0.5,0-0.7,0c0.2-0.3,0.4-0.6,0.3-1c0.3,0.1,0.3-0.1,0.3-0.3c-0.3-0.1-0.3,0.1-0.3,0.3c-1,0.2-1.6,0.7-1.7,1.7
					c-2,0.1-0.1-0.7,0-1.4c-0.5-1-1.2,0.6-2.1,0.3c0-1.2,1.1-0.7,1.7-1c0.6-0.4,1.1-1,1.7-1.7c1-1.2,1.9-2.1,2.4-3.4
					c0.1-0.8-0.1-1.3-0.7-1.4C369.2,164.8,367.6,161.7,367.2,159.1z M367.8,174.5c-0.1-0.1-0.5,0.2-0.3,0.3
					C367.6,175,368,174.7,367.8,174.5z"/>
				<path id="XMLID_56_" class="st3" d="M430.2,161.8c0,0.2-0.3,0.4-0.4,0C430,161.8,430.1,161.8,430.2,161.8z"/>
				<path id="XMLID_55_" class="st3" d="M439.2,167c0.1-0.3,0.3-0.4,0.3-0.7c0.5-0.2,0-0.4,0,0c-0.8-0.1-0.7,0.6-1.7,0.3
					C437.9,167.1,438.6,166.9,439.2,167c-0.6,1-1.3,0.4-2.1,0c0.1-1.7,2.3-2,3.8-1.4C440.9,166.7,440,166.8,439.2,167z"/>
				<path id="XMLID_54_" class="st3" d="M363.4,166.6C363.1,165.2,364.4,166.6,363.4,166.6L363.4,166.6z"/>
				<path id="XMLID_53_" class="st3" d="M427.8,167c0-0.2,0.3-0.4,0.4,0C428.1,167,427.9,167,427.8,167z"/>
				<path id="XMLID_52_" class="st3" d="M429.2,167c0-0.4,0.6-0.4,0.7,0C429.7,167,429.4,167,429.2,167z"/>
				<path id="XMLID_51_" class="st3" d="M446.7,167c-0.1,0.8-0.9,0.8-1.4,0.3C445.6,166.3,445.8,166.9,446.7,167z"/>
				<path id="XMLID_50_" class="st3" d="M427.5,167.3c0-0.2,0.1-0.4,0.3-0.3c0,0.1,0,0.2,0,0.3C427.7,167.3,427.6,167.3,427.5,167.3
					z"/>
				<path id="XMLID_49_" class="st3" d="M427.1,167.7c0-0.2,0.1-0.4,0.3-0.3c0,0.1,0,0.2,0,0.3C427.4,167.7,427.3,167.7,427.1,167.7
					z"/>
				<path id="XMLID_48_" class="st3" d="M419.3,174.2C420,173.1,421.5,174.6,419.3,174.2L419.3,174.2z"/>
				<path id="XMLID_47_" class="st3" d="M366.1,175.9c0-0.2,0.1-0.4,0.3-0.3C366.5,175.8,366.3,175.9,366.1,175.9z"/>
				<path id="XMLID_46_" class="st3" d="M366.1,175.9c-0.1,0.5-0.6,0.6-0.7,1c-0.3-0.1-0.4-0.3-0.3-0.7
					C365.5,176.2,365.6,175.8,366.1,175.9z"/>
				<path id="XMLID_45_" class="st3" d="M366.8,176.6c0-0.2,0-0.4,0.3-0.3C367.1,176.4,367.1,176.6,366.8,176.6z"/>
				<path class="st3" d="M421,177.6c-0.1,0.4-0.4,0.5-0.7,0.7c-0.5,0.4-1.1,0.7-2.1,1c-0.6,0.2-1.8,0.6-2.4,1
					c-0.2,0.1-0.5,0.6-0.7,0.7c-1.3,0.7-3.2,0.7-4.1,2.1c0.6,0.8,1.5,1.3,3.1,1c0.3,1.3,1.6,0.9,2.7,1.4c0.2,0.1,0.6,0.7,0.7,0.7
					c1.4,0.4,3.3,0.2,5.1,0.3c0.3,0.6,1.1,0.6,1.7,1c0.5,0.3,2.9,0.9,4.1,1c1,0.1,1.3,0,2.4,0.3c0,0,0.1,0.3,0.3,0.3
					c0.6,0.2,0.9,0,1.7,0.3c0.1,0.1,0.6,0.7,0.7,0.7c1.3,0.3,2.8,0.3,4.1,0c-0.6-1.1-0.3-2.3,0.3-3.1c-0.3-0.5-1.2,0.2-1.7,0.3
					c-0.8,0.3-1.4,0.6-2.1,0.7c-0.1-0.3-0.3-0.3-0.3-0.7c0.5-0.2,0-0.4,0,0c-1.6,0.1-3-0.7-4.5-1c-1-0.2-1.9-0.1-3.1-0.3
					c-1.2-0.3-2.1-0.4-3.4-0.7c-0.1,0-0.1-0.3-0.3-0.3c-0.4,0-1,0.1-1.4,0c-0.1,0,0-0.3-0.3-0.3c-0.3,0-0.4-0.3-0.7-0.4
					c-1.2-0.2-2.6-0.1-3.8-0.3c-0.5-0.1-1.3,0.2-1.4-0.7c-0.1-1.2,1.5-0.8,2.1-1.4c0.6-0.3,1.1-0.8,1.4-1.4c1.6,0.1,1.9-1.1,3.1-1.4
					c0.5-0.1,0.1-1,0.7-1c0.3,0.1,0.7-0.1,1,0c0.1,0,1.4,0.3,1.7,0.7c1.6-0.3,3-0.9,5.2-0.7c-0.5-0.8-2-0.5-2.8-1
					c-0.6-0.1-0.6,0.3-0.7,0.7C425.2,177.5,422.7,176.9,421,177.6c0.1-0.8,1.1-0.8,1.4-1.4c1.4,0.2,2.4,0.5,3.1,1
					c2.9-1,4.8,0.1,6.9,0.7c1.6,0.4,4,0.7,4.5,1.4c1.5-0.5,3.1,0.4,4.8,0.7c0.4,0.1,0.9,0,1.4,0c2,0.2,3.9,0.9,5.5,1.4
					c1.2-0.5,1.6,0.4,2.4-0.3c1.1,0.7-0.4,1.3-0.7,1.7c-0.5,0.6-1.1,1.3-1.7,1.4c-1.3,2.4-3.6,3.7-5.1,5.8c-1.1-0.1-1.5-1-2.1-1.7
					c-0.4,0.1-0.4,0.5-0.3,1c-1.5,0.2-1.4-1.1-2.4-1.4c-1.3,1.5,0.8,4.1,0,4.4c-1.1,0.3-0.5-1.1-1-1.4c-3.1,0.3-5.1-0.7-6.9-1.4
					c-0.4-0.1-0.5-0.3-1-0.3c-0.3,0-0.3-0.3-0.3-0.3c-0.7-0.2-1.4,0.1-2.1,0c-0.9-0.1-1.7-0.4-2.4-0.7c-0.9-0.3-1.6-0.9-2.4-1
					c-1.5-0.4-3.3,0-4.8-0.4c-0.1,0-0.5-0.6-0.7-0.7c-1.2-0.5-2.6-0.1-3.1-1.4c-2.1,0.3-2.9-0.7-3.8-1.7c1.2-2.1,4.9-1.8,6.2-3.8
					C418.3,179.2,419.1,177.9,421,177.6z M430.6,179c-0.3,0.3-2.1-0.1-2.4,0c-0.4,0.1-0.5,0.3-1,0.3c-1.5,0.1-3.3-0.3-4.5,0
					c-0.1,0-0.1,0.3-0.3,0.3c-0.9,0.2-0.9,0.3-1.4,0.7c-0.3,0.2-0.6,0.3-0.7,0.7c1.8,0,0.4,0.2,0,0.7c0.6-0.2,2,0.4,2.1-0.4
					c0.4,0.1,2.5,0.1,1.4-0.3c-0.6-0.2-2,0.4-2.1-0.3c2.3-0.7,6.4-1,8.6-1.4c0.5-0.1,1.5,0.4,1.7-0.3C430.7,179,431,178.5,430.6,179
					z M440.5,186.5c-0.7-0.1-0.9,0.2-1.4,0.3c0.1,0.8,0.3,1.5,1,1.7C440.2,187.8,440.8,187.6,440.5,186.5c0.4-0.1,0.5,0.1,0.7,0.3
					c0.6,0.9,0.9,2,2.1,2.4c0.1-0.9,1.1-1.1,1.7-1.7c0.2-0.2,1-1,1-1.4c0-0.7,1.7-1.7,2.4-2.4c0.5-0.6,1.5-1.3,1-2.1
					c-0.6-0.1-0.7,0.4-1.4,0.3c-0.5-0.9-2.4-0.6-3.8-1c-0.4-0.1-1.5-0.6-2.4-0.7c-0.6-0.1-1.5,0.1-2.1,0c-0.3,0-0.9-0.7-1,0
					c1,0.4,2,0.8,3.1,1c0.8,0.2,0.9-0.4,1.4-0.3c-0.1,0,0.3,0.3,0.3,0.3c0.5,0.1,1.4,0.2,1.7,0.7c0.2,0.8-0.6,1-1,1.4
					C443.2,184.4,441.5,185.2,440.5,186.5z M425.8,180.4c-0.3,0.1-0.7,0-0.7,0.3C425.4,180.6,425.8,180.7,425.8,180.4z M416.9,183.1
					c1.2-0.2,1.6-0.1,2.1,0c1.3,0.3,1-0.9,2.1-0.7c0.3-0.1,0.7,0,0.7-0.4C419.8,182.1,417.5,181.8,416.9,183.1z M432.6,184.5
					c0.5-1-1.5-0.9-1.4-0.3C431.9,184.1,432.3,184.2,432.6,184.5z M434.7,184.8c-0.3,0.1-0.7,0-0.7,0.3
					C434.3,185.1,434.7,185.1,434.7,184.8z M435,186.2c0.4-0.1,0.5-0.4,0.7-0.7c-1.8,0.4-3.7-1.1-4.8,0
					C432.2,186.1,434.3,185.8,435,186.2z"/>
				<path id="XMLID_35_" class="st3" d="M366.5,176.9c0-0.2,0.1-0.4,0.3-0.3C366.8,176.8,366.8,177,366.5,176.9z"/>
				<path id="XMLID_34_" class="st3" d="M365.4,176.9c0.3,0,0.7,0,1,0c-0.1,0.4-0.4,0.7-1,0.7C365.4,177.4,365.4,177.2,365.4,176.9z
					"/>
				<path id="XMLID_33_" class="st3" d="M345.9,181.4c-1.8-0.2-4.6-1-6.2-0.3c-1.2,0-1.5-1-2.7-1c-0.9,0.9-1.5,2.2-2.4,3.1
					c0.6,0.7,0.8,1,0.4,2.1c-0.4,0.3-0.9,0.5-1.7,0.3c-0.8,0.3-0.9,1.2-1.4,1.7c0.4,1,1.5-0.1,2.1,0c1.4,1.9,3.9,0.5,6.2,0.7
					c0.9,0.1,2.4,0.5,2.8,0.7c0.9,0.6,1.9,0.1,2.4,0.7c0.1,0.1,0.9,0.3,1,0.3c0.6,0.4,0.9,0.3,1.7,0.3c0.6,0.1,0.8,0.3,1.4,0.4
					c1.6,0.2,2.3-0.5,2.8,0c0.1,0.1,0.6,0,0.7,0c1.8,0.2,3.5-0.1,4.5-0.4c0.2-0.1,0.3-0.3,0.3-0.3c0.9-0.2,2.6-0.1,3.1-0.3
					c0.4-0.2,0.4-0.3,0.7-0.7c0.1-0.1,0.6,0.1,0.7,0c0.3-0.4-0.1-1.2,0.3-1.4c-0.1-0.5-0.8-0.3-1.4-0.4c0.2-0.8,0.3-1.8,1.4-1.7
					c0.1-1,0.6-1.4,0.7-2.4c0.4,0.1,0.4,0.8,0.3,1.4c0,0-0.3,0-0.3,0c-0.6,0.6,0.5,2.4-1,1.7c0.1,0.5,0.8,0.4,1,0.7
					c-0.2,1.1-0.7,1.9-0.7,3.1c-0.8-0.5-1.5,0-1.7,0.3c-0.1,0.1-0.6,0-0.7,0c-1.1,0.2-1.1,0.3-2.1,0.4c-1.1,0.1-2,0.5-3.1,0.7
					c-1.3,0.2-1.9-0.3-2.7-0.3c-1.3,0-1.6,0.4-2.4,0.3c-0.6,0-2.1-0.6-2.4-0.7c-0.4-0.1-0.9,0.1-1.4,0c-0.1,0-0.5-0.6-0.7-0.7
					c-1.1-0.3-1.6,0-2.1-0.3c-0.6-0.4-0.9-0.2-1.7-0.3c-1.1-0.1-2.2-0.5-3.4-0.3c-1.2,0.1-1.6,0.6-2.1,0c-0.1-0.2-0.5,0.3-0.3,0.3
					c-0.7-0.1-1.5-0.4-2.1-1c-1.1,0.5-1.5,0.1-2.7,0c0.6-1.2,1.3-2.3,2.1-3.4c0.4,0.3,0.9,0.5,1.7,0.4c0-0.6-0.3-0.8-1-0.7
					c0.6-1.9,2.3-2.7,2.7-4.8c1.1,0.2,1.9,0.6,2.7,1c2.2-0.3,3.8,0.8,5.5,0C344.6,181.1,346.1,180.4,345.9,181.4z"/>
				<path id="XMLID_32_" class="st3" d="M350,184.5c-0.2-0.2,0.2-0.4,0.3-0.3C350.5,184.3,350.1,184.6,350,184.5z"/>
				<path id="XMLID_31_" class="st3" d="M351.4,184.8c-0.1-0.3-0.3-0.4-0.7-0.4C350.9,183.3,353.3,184.9,351.4,184.8z"/>
				<path class="st3" d="M380.5,184.1c1.5,0.5-0.1,2.2-0.7,2.7c-0.7-0.3-1.2-0.8-1-2C379,184.2,380.4,184.8,380.5,184.1z
					 M379.8,186.2c0-0.2,0.1-0.4,0.3-0.3c0-0.4-0.1-0.8-0.7-0.7C379.5,185.6,379.4,186.1,379.8,186.2z"/>
				<path id="XMLID_28_" class="st3" d="M349.3,184.8c-0.2-0.2,0.3-0.4,0.3-0.4C349.9,184.6,349.4,184.9,349.3,184.8z"/>
				<path class="st3" d="M375.4,184.5c0.2,1.9-0.7,2.7-1.7,3.4c-0.4-0.1-0.7-0.1-1-0.3c0,0-0.7-0.8-0.7-0.7
					C371.8,186.1,374.3,184.5,375.4,184.5z M373,187.2c1.3,0.1,1.4-0.9,1.7-1.7C373.8,185.7,372.8,185.8,373,187.2z"/>
				<path id="XMLID_25_" class="st3" d="M348.3,185.1c0-0.3,0.4-0.3,0.7-0.3C349,185.1,348.6,185.1,348.3,185.1z"/>
				<path id="XMLID_24_" class="st3" d="M350.7,185.1c0.1-0.3,0.3-0.4,0.7-0.3C351.3,185.1,351.1,185.2,350.7,185.1z"/>
				<path id="XMLID_23_" class="st3" d="M349.7,185.5c0.1-0.4,0.5-0.4,1-0.3C350.6,185.6,350.2,185.5,349.7,185.5z"/>
				<path id="XMLID_22_" class="st3" d="M349,185.8c0.1-0.3,0.3-0.4,0.7-0.3C349.6,185.8,349.4,185.9,349,185.8z"/>
				<path id="XMLID_21_" class="st3" d="M349,185.8c-0.6,0.6-1.3,1-2.4,1C347.2,186.3,347.8,185.8,349,185.8z"/>
				<path id="XMLID_20_" class="st3" d="M348.7,187.9c0.2-0.7,0.9-0.9,1.7-1C350.1,187.5,349.5,187.8,348.7,187.9z"/>
				<path id="XMLID_19_" class="st3" d="M348.7,187.9C348.6,188.9,347.2,187.6,348.7,187.9L348.7,187.9z"/>
				<path id="XMLID_18_" class="st3" d="M449.1,193c0,1.1-1.5,1.2-2.7,1c-0.7-0.1-0.9-0.3-1.4-0.3c-0.7-0.1-1.5,0.2-2.1,0
					c0,0,0-0.3,0-0.3c-0.3-0.2-0.8-0.1-1-0.3c-0.2-0.3-0.4-0.6-0.3-1c0.3-0.2,0.6-0.4,0.7,0c1.1-0.3,1-0.3,2.4,0
					c0.4,0.1,0.6,0,0.7,0.3c1.1-0.1,1.5-0.8,2.7-0.7C448.2,192.3,449.4,191.9,449.1,193z"/>
			</g>
			<g>
				<path id="XMLID_17_" class="st4" d="M418.9,154.9c0.5-1.1,0.3,1.5,0.4,2.1C418.7,158,418.9,155.5,418.9,154.9z"/>
				<path id="XMLID_10_" class="st3" d="M383.3,48.3c-3.3,5.1-7.2,9.7-10.3,15.1c0.1-1.1,1.1-2.1,1.7-3.1c2.2-3.4,4.5-7,7.1-10.5
					C382.1,49.4,382.6,48.9,383.3,48.3z"/>
				<path id="XMLID_9_" class="st3" d="M379.1,55.9c-0.8,1.1-1.8,2.1-2.4,3.4c0.7-2.4,2.2-3.2,2.9-4.6c1.5-1.4,2.3-3.2,3.6-4.3
					c-0.7,1.5-2.5,3.4-3.3,4.5c-1.8,2.6-1.8,3.8-4.5,7c-1,1.2-1.9,3.2-3.1,3.9C374.5,62.4,377.2,59.5,379.1,55.9z"/>
				<path id="XMLID_8_" class="st3" d="M384.6,54.8c-0.9,2.4-1.6,2.9-2.8,4.6c-0.7,0.9-2.7,3.9-2.1,3c2.1-3.2-1.6,2.6-1.9,2.7
					C379.5,61.1,382.6,58.5,384.6,54.8z"/>
				<path id="XMLID_7_" class="st3" d="M379.8,57.9c0.4,0.1-0.2,1.1-1.4,1.7C378.7,58.8,379.6,58.7,379.8,57.9z"/>
				<path id="XMLID_5_" class="st3" d="M378.1,60c-0.7,1.9-2.6,3.1-3.6,4.6C374.9,63.3,377.1,61.6,378.1,60z"/>
				<path id="XMLID_4_" class="st3" d="M371.3,66.8c0.9,0.9-1.4,1.6-1.4,2.7C369.1,68.7,371.1,67.8,371.3,66.8z"/>
				<path id="XMLID_3_" class="st3" d="M418.9,140.9c-1.2,3.6-1.6,11.3-2,15.9c-0.2,5.4,0.6-4.1,0.6-4.6c0.2,3.2-0.7,8.2-1,12
					c-0.1-5.6,0.5-12.1,1.3-19.1C417.9,143.6,418.4,141.4,418.9,140.9z"/>
				<path class="st3" d="M419.3,153.9c0.6-2.4,0.5-2.9,1-4.1c0.1,2.4-0.7,6.9-1,9.9c-0.5-0.1-0.4-2-0.5-2.5
					c-0.2,0.8-0.4,3.1-0.5,4.6c0,0.8,0,1.6,0,2.4c-0.7-5,1.1-10.9,1.6-16.9c0.1-0.9,0.3-2.6,0.8-3.3
					C420.1,147.2,419.6,150.4,419.3,153.9z M419.2,158.9c0-0.6,2-11.6-0.1-4.4C418.8,157,418.8,159.5,419.2,158.9z"/>
			</g>
		</g>
	</g>
</g>
</svg>
