<svg xmlns="http://www.w3.org/2000/svg" width="16" height="30" viewBox="0 0 16 30" preserveAspectRatio="xMinYMin meet">
  <g transform="translate(0.000000, 1.000000)" fill="#7F7F7F">
    <path d="M15.4,26 L3.5,14.1 L15.4,2.3 C15.7,2 15.8,1.7 15.8,1.3 C15.8,0.9 15.7,0.6 15.4,0.3 C14.9,-0.2 14,-0.2 13.5,0.3 L0.3,13.5 C0.1,13.6 0,13.9 0,14.1 C0,14.3 0.1,14.6 0.3,14.8 L13.4,27.9 C13.7,28.2 14,28.3 14.4,28.3 C14.8,28.3 15.1,28.2 15.4,27.9 C15.7,27.6 15.8,27.3 15.8,26.9 C15.8,26.5 15.6,26.2 15.4,26 L15.4,26 Z"></path>
  </g>
</svg>
