<svg xmlns="http://www.w3.org/2000/svg" viewBox="0 0 826.8 88.1"><path d="M203.1 22.1l.3-1h-13.2l-.3.9c3.4.2 4.5 2.1 4.5 3.6 0 .8-.3 1.8-.8 2.8l-14.6 28-2.2-30.3c-.2-3.1 1.5-4 4.9-4l.3-1h-14l-.3.9c3.4.3 4.5 1.5 4.5 2.9 0 .7-.2 1.3-.7 2.4l-14.2 28.9-2.2-30.1c-.2-3.4 1.6-3.9 4.7-4.1l.3-1h-14.2l-.3 1c4 .2 5.2 1.4 5.5 5.1l2.8 34.7h1.7l17.1-34.7 2.8 34.7h1.7l17.5-33.3c2.3-4.3 5-6.1 8.4-6.4zm-88.1 0c2.2.2 3.6.6 4.2 1.4.6.8.6 2.1 0 4L110.9 55c-1 3.1-3.3 4.8-6.8 5l-.4 1h34.6l6-11.8-.7-.3c-4.9 7.8-12.1 11.1-24.8 11.1h-5.2c.1-.3 5.8-19.3 5.8-19.4h5.8c2.3 0 3.9.5 4.7 1.6 1 1.2 1.1 3.3.5 6.5h.9l4.8-15.9h-.9c-1.7 4.4-5.2 6.9-9.9 6.9h-5.5c.1-.3 5.3-17.5 5.3-17.6h5.4c6.8 0 11 3 12.6 8.7l.7-.1-1.3-9.5h-27.2l-.3.9zm27.3 49.2c-1.7 0-2.8.8-2.8 1.9 0 1 1 1.7 1.9 1.7.5 0 .8-.2 1.2-.3.3-.1.6-.3 1-.3 1.5 0 2.6 1.6 2.6 3.8 0 5-4.7 8.7-11.3 8.7-13.4 0-26.6-11.1-40.2-34 5.6-18 16.8-48.2 29.3-48.2 2.3 0 3.7.6 5 1.1 1 .4 1.9.8 3.1.8 2.7 0 3.4-1.7 3.4-2.7 0-2.2-2.2-3.7-5.5-3.7-18.3 0-29.4 29.2-36.2 51.2-6.4-11.2-15-29-19.5-49.7H53.2c-5.4 0-14.6 1.2-14.6 8.9 0 3 2.4 6.3 6.3 6.3 3.5 0 5.4-2.3 5.4-4 0-1-.6-2.2-1.9-2.2-1.3 0-1.9 1.1-1.9 2.2 0 1.3-.9 2.3-2.2 2.3-2.6 0-4.4-1.9-4.4-4.7 0-5 4.4-7.5 13.2-7.5H62c5.2 0 7.5 2.6 6.2 7.8C59.4 42.2 41.5 76 18.1 76 7.3 76 1.6 69.7 1.6 63.5c0-4.5 3.1-7.9 5.8-7.9 1.8 0 2.5 1.2 3.1 2.4.6 1.1 1.2 2.2 2.8 2.2 1.1 0 2.3-.8 2.3-2.3 0-2.5-2.8-4.4-6.6-4.4-4.3 0-9 4-9 9.9 0 8.2 7.6 14.1 18.1 14.1 12.5 0 24.3-8.8 34.8-26.2C63 34.7 68.5 16 70 10.1c9.2 32.9 36.6 78 64.6 78 7.5 0 12.7-4.2 12.7-10.2.1-3.7-2.2-6.6-5-6.6zm141.2-51c-11.9 0-24.1 13.4-24.1 26.5 0 10.1 6.7 15.4 13.3 15.4 5.7 0 11.7-2.9 16.3-8.1 4.7-5.3 7.4-12.3 7.4-19.2 0-8.7-5.2-14.6-12.9-14.6zM272.6 61c-5.4 0-8.6-4.8-8.6-12.7 0-11.5 9.5-26.9 19.3-26.9 6.9 0 8.4 6.2 8.4 11.4-.1 9.9-6.6 28.2-19.1 28.2zm8.7-58.2l.4-1.3H261l-.4 1.2c5.4.3 7 2.6 7 4.7 0 1.2-.5 2.6-1.5 4.2 0 0-26.7 41.8-28.8 45.1-.1-.5-11.1-47.1-11.1-47.1-.2-.9-.3-1.6-.3-2.3 0-3.2 2.5-4.4 7.3-4.5l.4-1.3h-21.2l-.4 1.3c4.5.2 7.2 1.4 8.6 7.2 2.5 10.4 12.3 51.8 12.6 53-10.3 15-18.9 23.7-32.7 23.7-10.1 0-17.7-7-17.7-16.2s7.4-16.7 16.4-16.7c5.6 0 8.7 2.9 8.7 5.6 0 1.6-.9 2.3-1.5 2.8-.8.5-1.5 1.1-1.5 2.2s.9 1.9 2 1.9c1.9 0 3-2.3 3-4.5 0-5.7-4.1-9.2-10.7-9.2-11.1 0-18 9.5-18 18.3 0 8.5 7.2 17.4 19.2 17.4 17.6 0 26.9-13.9 36.7-28.7 0 0 28.2-43.9 31.2-48.4 3.5-5.3 8-8.2 13-8.4zm120.6 60c-2.9 0-4.5 2-4.5 3.4 0 .9.7 1.4 1.4 1.4.8 0 1.3-.3 1.7-1.1.4-.8 1.3-1.5 2.6-1.5 2.3 0 3.9 1.6 3.9 4.2 0 4.7-4.9 8.5-11 8.5-15.2 0-28.4-13.5-40.3-41.1.1-.1 14-10.7 14-10.7 4.6-3.4 6.8-3.7 8.6-3.9l.3-1h-13.5l-.3 1c2.3.1 3.6 1 3.6 2.1 0 .9-.8 2-2.3 3.1 0 0-16.9 12.8-19.3 14.6.2-.6 4.3-13.9 4.3-13.9l.1-.3c1.2-3.5 1.9-5.4 6.9-5.7l.3-1h-15.3l-.3 1c2.2.1 3.6.6 4.1 1.4.6.8.5 2.2-.2 4.7l-8 26.7c-1 3.3-3.1 5.3-5.7 5.3-2.3 0-3.8-1.4-5.6-5.1 0 0-6.2-12.7-6.9-14 6.2-1.2 13.4-5 13.4-12 0-4.9-3.4-8.1-11.8-8.1l-7.1.1c-3.5.1-7.2.2-9.9.1l-.3 1c4 .3 5.5 1.3 4 6.1l-8 26.7c-1 3.4-3.3 5.1-6.8 5.3l-.4 1h16.1l.3-1c-3-.1-5.3-.6-5.3-3.3 0-.6.1-1.3.4-2.1 0 0 3.9-13.1 4-13.2h7.3l.1.1c3.2 6.4 7.2 14.3 9.5 19.5v.1h21.6l.3-1c-3-.1-5.3-.7-5.3-3.3 0-.6.1-1.3.4-2.1 0 0 3.2-10.7 3.3-11 .1 0 5.3-4.2 5.5-4.3 7.4 14.9 19.7 39.7 43.8 39.7 6.9 0 12.3-4.3 12.3-9.8.1-4.3-3.1-6.6-6-6.6zm-87-22.3h-5.4c.1-.3 5.6-18.2 5.6-18.4.9-.1 3.6-.2 5.9-.2 7.2 0 8.7 3.6 8.7 6.6 0 5.5-2.6 12-14.8 12zM473.7 80.1c-6.7 0-9.4-5.3-10.9-15.4-1-6.6-2.9-16.1-13.1-16.1h-8.5v24.1c0 2 .6 3.7 2.8 4.5 1.3.5 5.1.7 6.8.8v1.1H425V78c1.6-.1 5-.5 6.2-.9 2.2-.8 2.8-2.5 2.8-4.5V24.3c0-2-.5-3.9-2.8-4.5-1.5-.5-4.6-1-6.2-1.1v-1.1h30.3c6.9 0 17.3 4 17.3 13.9S462.3 45.4 456 47.2v.6c4 .3 11.8 3.1 13.5 9.4 1.4 4.9 1.9 9.6 3.2 14 1 3.5 2.5 4.9 5 4.9 2.4 0 4.3-1.7 4.3-8.5v-1.9h1.5v1.9c-.3 8.3-2.6 12.5-9.8 12.5zm-22.9-61h-9.7v27.4h7.2c8 0 15.2-3.7 15.2-13.8 0-10.6-6.3-13.6-12.7-13.6zM503.6 80c-13 0-18.9-9.9-18.9-21.6 0-10.6 6.6-21.1 17.9-21.1 11.7 0 16 7.8 16 18.1v.6h-27v.9c0 11.5 3.9 20.3 13.6 20.3 7.1 0 9.7-3 13.1-8.5l1.1.6c-3 6.5-8.6 10.7-15.8 10.7zm-.8-41.4c-6.3 0-10.9 5.8-11.2 15.8l20.2-.2c.1-8.2-1.5-15.6-9-15.6zM554.4 79.8c-3.7 0-6.2-2-7.4-6h-.3c-3.3 4-8.6 6.2-13.3 6.2-6.2 0-10.3-3.3-10.3-9.1 0-7.4 4.3-9.7 8.8-11.4 5.1-2 11.1-3.6 14.9-5.8v-6.1c0-4.8-2.3-9-8.6-9-3.4 0-5.2 1.9-5.9 3 .1 1.6.6 4.6.6 6.1 0 1.9-1.8 3.4-4.4 3.4-2.2 0-3.1-2.2-3.1-4.2 0-5.3 6.8-9.5 13.5-9.5 8.4 0 14.4 1.9 14.4 13.3 0 7.8-.5 17.2-.5 20.2 0 3.1 1 5.4 3.9 5.4 2.6 0 3.7-2.5 4.1-7.5h1.2c-.5 8.2-3.1 11-7.6 11zm-24.3-10c0 4.9 2.2 7.6 6.7 7.6s7.6-2.5 10-5.5l.4-16.1c-10.2 2.9-17.1 5.8-17.1 14zM562.7 79.1v-.9c1.6-.1 2.7-.1 4-.5 1.7-.5 2.4-2.2 2.4-4.1v-53c0-2.2-1-4.1-2.4-5.1-1.1-.7-4.6-1.6-6.2-1.7v-.9l14.3-.9.6.6V73c0 2 .8 3.5 2.4 4.2 1.4.6 2.3.9 4 1v.9h-19.1zM656.3 79.1h-51.2V78c1.6-.1 5.8-.5 7.1-1 2.2-.8 2.8-2.4 2.8-4.4v-48c0-2-.5-3.5-2.8-4.4-1.7-.7-5.5-1.4-7.1-1.5v-1.1h47.5v13.6h-1.5c-.9-3.9-5.1-11.1-8.9-11.6-2.2-.3-4.6-.4-7.5-.4h-12.4v27h8.7c5 0 6.4-1.9 7.5-3 1.3-1.4 2.2-5.8 2.5-8.2h1.5v24.7H641c-.2-2.6-1.4-7.5-2.5-8.6-1.2-1.3-2.6-3-7.5-3h-8.7V69c0 7.4 1.7 8.2 10.8 8.2 6.4 0 13.9.3 16-2 2.7-2.8 6.1-10.3 7-13h1.4l-1.2 16.9zM675.9 80.3c-4.6 0-8.4-1.9-10.9-3.6l-1.7 2.8h-1l-.5-13.5h1.1c1.7 7.3 6.5 12.8 13.3 12.8 7.1 0 9.9-3.6 9.9-8.6 0-4.8-3.6-6.5-10.9-8.7-7.2-2.2-12.3-5-12.3-12.6 0-6.6 4.8-11.4 12.4-11.4 4 0 7.2 1.3 9.4 2.7l1.7-2.8h1l.6 12h-1c-1.3-5.8-6-10.5-12.1-10.5-5.6 0-8.1 3.1-8.1 7.3 0 5.4 3.4 6.3 11 8.7 7.5 2.4 12.2 5.7 12.2 13.1 0 7.4-6.2 12.3-14.1 12.3zM710.7 79.8c-6.8 0-10.1-4.2-10.1-12.1V41.2h-8.8v-2.5h9V24.5h6v14.1h12.3v2.5H707V67c0 5.8 1.2 9.4 6.3 9.4 3.6 0 5.8-2.9 6.7-8.1h1.4c-.9 6.3-3.8 11.5-10.7 11.5zM755.9 79.8c-3.7 0-6.2-2-7.4-6h-.3c-3.3 4-8.6 6.2-13.3 6.2-6.2 0-10.3-3.3-10.3-9.1 0-7.4 4.3-9.7 8.8-11.4 5.1-2 11.1-3.6 14.9-5.8v-6.1c0-4.8-2.3-9-8.6-9-3.4 0-5.2 1.9-5.9 3 .1 1.6.6 4.6.6 6.1 0 1.9-1.8 3.4-4.4 3.4-2.2 0-3.1-2.2-3.1-4.2 0-5.3 6.8-9.5 13.5-9.5 8.4 0 14.4 1.9 14.4 13.3 0 7.8-.5 17.2-.5 20.2 0 3.1 1 5.4 3.9 5.4 2.6 0 3.7-2.5 4.1-7.5h1.2c-.6 8.2-3.2 11-7.6 11zm-24.4-10c0 4.9 2.2 7.6 6.7 7.6s7.6-2.5 10-5.5l.4-16.1c-10.2 2.9-17.1 5.8-17.1 14zM779.1 79.8c-6.8 0-10.1-4.2-10.1-12.1V41.2h-8.8v-2.5h9V24.5h6v14.1h12.3v2.5h-12.2V67c0 5.8 1.2 9.4 6.3 9.4 3.6 0 5.8-2.9 6.7-8.1h1.4c-.9 6.3-3.8 11.5-10.6 11.5zM810.9 80c-13 0-18.9-9.9-18.9-21.6 0-10.6 6.6-21.1 17.9-21.1 11.7 0 16 7.8 16 18.1v.6h-27v.9c0 11.5 3.9 20.3 13.6 20.3 7.1 0 9.7-3 13.1-8.5l1.1.6c-3 6.5-8.6 10.7-15.8 10.7zm-.8-41.4c-6.3 0-10.9 5.8-11.2 15.8l20.2-.2c.1-8.2-1.4-15.6-9-15.6z"/></svg>