<svg xmlns="http://www.w3.org/2000/svg" viewBox="0 0 243.41 80.21">
  <path d="M203.73,54.45l-.13.45c1.94.1,2.49.94,2.49,1.67a2.92,2.92,0,0,1-.52,1.49L195.29,74.16l-4-16.83a3.69,3.69,0,0,1-.1-.81c0-1.15.89-1.55,2.6-1.62l.13-.45h-7.57l-.13.45c1.62.06,2.57.5,3.07,2.56.9,3.72,4.4,18.48,4.5,18.91-3.66,5.36-6.75,8.46-11.69,8.46-3.6,0-6.31-2.49-6.31-5.79a5.93,5.93,0,0,1,5.87-6c2,0,3.1,1,3.1,2a1.14,1.14,0,0,1-.54,1,.91.91,0,0,0-.52.8.68.68,0,0,0,.73.67c.69,0,1.07-.84,1.07-1.62,0-2-1.47-3.28-3.84-3.28a6.49,6.49,0,0,0-6.42,6.53c0,3.05,2.57,6.21,6.87,6.21,6.28,0,9.59-5,13.09-10.24,0,0,10.08-15.68,11.15-17.27A5.91,5.91,0,0,1,211,54.89l.13-.45Zm-.56,16.15c0,3.61,2.38,5.5,4.73,5.5a8,8,0,0,0,5.82-2.89,10.41,10.41,0,0,0,2.66-6.86c0-3.12-1.85-5.21-4.6-5.21C207.51,61.15,203.17,65.91,203.17,70.6Zm1.64.55c0-4.1,3.41-9.59,6.89-9.59,2.47,0,3,2.21,3,4.06,0,3.51-2.34,10.07-6.82,10.07C206,75.68,204.8,74,204.8,71.15Zm20.82-9.77-2.54,0c-1.25,0-2.56.06-3.53,0l-.1.34c1.43.09,2,.45,1.44,2.16L218,73.49a2.5,2.5,0,0,1-2.44,1.9l-.13.37h5.76l.1-.37c-1.08-.05-1.88-.22-1.88-1.17a2.67,2.67,0,0,1,.13-.75L221,68.74h2.61l0,0c1.14,2.28,2.56,5.12,3.4,7v0h7.73l.1-.37c-1.07,0-1.91-.25-1.91-1.18a2.66,2.66,0,0,1,.13-.74l1.18-3.94,2-1.54c2.64,5.32,7,14.16,15.62,14.16,2.46,0,4.39-1.54,4.39-3.49A2.19,2.19,0,0,0,254,76.33a1.46,1.46,0,0,0-1.6,1.23.51.51,0,0,0,.49.51.65.65,0,0,0,.62-.39,1,1,0,0,1,.91-.54,1.35,1.35,0,0,1,1.39,1.5c0,1.68-1.76,3-3.91,3-5.44,0-10.14-4.8-14.37-14.69l5-3.8a5.46,5.46,0,0,1,3.09-1.39l.1-.34h-4.83l-.1.34c.8,0,1.28.35,1.28.76s-.27.7-.8,1.12l-6.89,5.2,1.52-5,0-.09c.43-1.23.69-1.93,2.47-2l.1-.34h-5.46l-.11.34c.79,0,1.28.2,1.48.49s.19.79-.06,1.68l-2.85,9.52c-.37,1.19-1.12,1.9-2,1.9s-1.36-.49-2-1.82l-2.46-5c2.22-.42,4.78-1.78,4.78-4.27C229.82,62.52,228.61,61.37,225.62,61.38Zm-.45.34c2.56,0,3.1,1.28,3.1,2.36,0,2-.92,4.28-5.29,4.28h-1.92l2-6.57C223.39,61.78,224.36,61.73,225.17,61.73Zm.45-.34Z" transform="translate(-61.09 -5.14)"/>
  <path d="M144.05 72.19a64.6 64.6 0 0 1-7-17.74h-7.53c-1.95 0-5.21.42-5.21 3.18a2.26 2.26 0 0 0 2.26 2.26 1.75 1.75 0 0 0 1.94-1.44.7.7 0 0 0-.67-.78.7.7 0 0 0-.67.78.76.76 0 0 1-.78.8 1.55 1.55 0 0 1-1.57-1.67c0-1.78 1.58-2.68 4.71-2.68h3.19c1.87 0 2.69.93 2.23 2.8C131.78 69 125.38 81 117 81c-3.85 0-5.87-2.25-5.87-4.47 0-1.61 1.09-2.81 2.07-2.81.65 0 .89.43 1.11.84s.44.79 1 .79a.79.79 0 0 0 .81-.8c0-.9-1-1.57-2.36-1.57a3.43 3.43 0 0 0-3.2 3.55c0 2.91 2.71 5 6.45 5 4.48 0 8.66-3.15 12.43-9.35a60.85 60.85 0 0 0 6.13-14.74c3.28 11.73 13.07 27.86 23.07 27.86 2.68 0 4.55-1.49 4.55-3.63a2.12 2.12 0 0 0-1.83-2.36c-.62 0-1 .27-1 .7a.63.63 0 0 0 .67.59 1 1 0 0 0 .43-.11.88.88 0 0 1 .36-.1c.54 0 .93.57.93 1.36 0 1.79-1.69 3.1-4 3.1-4.79 0-9.49-4-14.35-12.15 2-6.44 6-17.22 10.48-17.22a4.29 4.29 0 0 1 1.77.38 2.85 2.85 0 0 0 1.1.27c1 0 1.23-.61 1.23-1 0-.8-.79-1.33-2-1.33C150.46 53.9 146.48 64.31 144.05 72.19zm34.41-10.72l-.1.34c1.22.09 1.59.74 1.59 1.27a2.27 2.27 0 0 1-.28 1l-5.21 10-.78-10.81c-.08-1.12.52-1.42 1.73-1.43l.1-.34h-5l-.1.34c1.23.1 1.6.53 1.6 1a1.87 1.87 0 0 1-.24.84L166.74 74l-.79-10.74c-.06-1.23.55-1.41 1.69-1.46l.1-.34h-5.07l-.11.34c1.43.08 1.87.5 2 1.81l1 12.39h.62l6.11-12.4 1 12.4h.59l6.23-11.9c.83-1.57 1.76-2.23 3-2.3l.1-.34zm-17.05 0h-9.68l-.1.34c.79.06 1.29.22 1.49.52s.2.74 0 1.44l-3 9.83a2.47 2.47 0 0 1-2.42 1.8l-.13.36H160l2.14-4.23-.25-.11c-1.76 2.8-4.33 4-8.85 4h-1.84l2.08-6.93h2.05A2.07 2.07 0 0 1 157 69a2.81 2.81 0 0 1 .16 2.31h.31l1.71-5.69h-.32a3.61 3.61 0 0 1-3.53 2.48h-2l1.9-6.3h1.92c2.43 0 3.94 1.06 4.48 3.09l.26 0-.46-3.4zM80.28 30.14L65.2 14.28V29.68H61.09V5.27l.62-.13 14.92 15.7V5.6H80.7V30zM96.33 29.68V5.6H111V9.35H100.44v6.31H110v3.61h-9.56V26H111v3.71zM149.38 30.08l-.62.07-7.52-16.82-7.39 16.82-.62-.07L125.53 5.6h4.53l4.34 15.21 6.67-15.41h.46l6.73 15.31 4.3-15.11H157zM193.62 19.6V29.68h-4.11V19.56l-8.44-14h4.67l5.91 10.22L197.53 5.6h4.57zM266.2 29.68L260.95 21c-.43 0-.85.07-1.28.07-.79 0-1.61 0-2.4-.07v8.67h-4.11V5.83a51.26 51.26 0 0 1 6.31-.39c6.83 0 9.86 3.35 9.86 7.62a7.43 7.43 0 0 1-4.7 7L271 29.68zM260 9.12a14 14 0 0 0-2.73.23v8.21c.76.07 1.54.13 2.33.13 3.58 0 5.42-1.71 5.42-4.47C265 10.83 263.15 9.12 260 9.12zM299.41 29.68l-9.89-11.56V29.68h-4.07V5.6h4.07V16.48L299 5.6h5L293.43 17.2 304.5 29.68zM225.68 5.21a12.09 12.09 0 0 0-12.29 12.45c0 7.13 5.09 12.42 12.06 12.42a12.08 12.08 0 0 0 12.29-12.42C237.73 10.5 232.64 5.21 225.68 5.21zm2 19.17h-4.29l.66-8.23a2.91 2.91 0 1 1 3 0zM177.26 46.91a22.63 22.63 0 0 1-2.6-.18v-8.5A19.59 19.59 0 0 1 177.1 38c2.53 0 3.81 1.13 3.81 2.34a2 2 0 0 1-1.5 1.94 2.06 2.06 0 0 1 1.74 2C181.15 45.71 179.87 46.91 177.26 46.91zm.27-7.11a5 5 0 0 0-.91.08V41.7a6.15 6.15 0 0 0 .75 0c1 0 1.46-.36 1.46-1S178.39 39.8 177.53 39.8zm-.15 3.3a6.5 6.5 0 0 0-.76 0v2a8.35 8.35 0 0 0 .84 0c1 0 1.51-.39 1.51-1S178.45 43.1 177.38 43.1zM188.28 43.39v3.44h-2V43.37l-3.06-5.25h2.31l1.78 3.33 1.78-3.33h2.27zM266.81 43.18H195.57a.45.45 0 1 1 0-.89h71.24a.45.45 0 1 1 0 .89zM169.28 43.18H98a.45.45 0 1 1 0-.89h71.24a.45.45 0 1 1 0 .89z" transform="translate(-61.09 -5.14)"/>
</svg>
