<svg xmlns="http://www.w3.org/2000/svg" width="19.356" height="11.144" viewBox="0 0 19.356 11.144" preserveAspectRatio="xMinYMin meet">
	<path d="M17.817 9.678C15.16 9.77 2.964 10.795.26 10.99c-.168-.54.478-1.456.915-1.736.36-.235 1.234-.28 1.79-.36 1.63-.234 13.553-1.01 15.022-1.168 1.084-.21.94 1.894-.17 1.952zM2.41 7c-.066.23-.15.283-.38.217-.202-.053-.477-.17-.646-.3-.183-.144-.215-.294-.15-.594.203-.993.777-2.886 1.266-4.44-.078-.15-.183-.36-.248-.542-.11-.263-.084-.393.145-.524C3.455.218 5.497-.294 6.144.5c.26.325.496.73.575 1.35.073.607-.24 1.077-.646 1.515-.646.725-1.95 1.425-3.086 1.762-.218.647-.41 1.28-.58 1.874zm3.055-5.274c-.046-.235-.66-.248-1.34.065-.194.52-.41 1.14-.64 1.8 1.327-.49 2.045-1.43 1.98-1.86zM7.37 7.113c-.443.13-.54.02-.678-.118-.143-.144-.26-.248-.444-.463-.13-.163-.195-.38-.13-.66C6.43 4.534 7.285 1.8 7.868.355c.11-.26.246-.294.475-.216.235.074.574.21.777.39.203.17.23.265.132.513-.45 1.19-1.078 2.97-1.574 4.525.425-.085.79-.13 1.234-.163.234-.02.365.02.45.233.085.218.13.427.163.64.033.237.033.3-.26.368-.615.136-1.306.293-1.894.463zM11.21.51c.098-.26.235-.292.477-.2.23.084.477.215.646.39.216.204.248.433.13.726-.594 1.52-1.697 4.395-1.076 4.604.73.248 1.848-3.78 2.33-5.57.08-.267.23-.312.464-.234.24.08.53.235.73.393.216.164.216.26.15.504-.79 2.938-1.482 5.105-2.507 5.81-.36.25-.68.295-1.11.27-.41-.02-.757-.17-1.012-.366-.2-.15-.39-.398-.495-.725-.43-1.238.544-3.725 1.28-5.606zm4.152 4.865c.64.562 1.254.744 1.52.51.314-.262-.81-.94-1.383-1.6-.4-.464-.587-1.176-.24-1.966.313-.71.973-1.52 1.62-1.92.247-.15.66-.317 1.11-.15.345.13.73.38.94.61.3.332.28.705.234.992-.065.496-.346 1.338-.574 1.782-.11.202-.215.248-.41.163-.55-.235-.797-.574-.706-1.006.085-.39.41-1.206.28-1.27-.228-.13-1.618 1.29-1.037 2.082.64.842 2.03 1.39 1.52 2.376-.235.464-.758 1.22-1.848 1.24-.714.02-1.406-.333-2.014-1.2-.312-.444-.268-.608-.064-.713.354-.177.825-.13 1.046.064z" fill="#00BDF2"/>
</svg>
