<?xml version="1.0" encoding="utf-8"?>
<!-- Generator: Adobe Illustrator 19.0.0, SVG Export Plug-In . SVG Version: 6.00 Build 0)  -->
<svg version="1.1" id="Layer_1" xmlns="http://www.w3.org/2000/svg" xmlns:xlink="http://www.w3.org/1999/xlink" x="0px" y="0px"
	 viewBox="0 0 562.8 151.1" style="enable-background:new 0 0 562.8 151.1;" xml:space="preserve">
<style type="text/css">
	.st0{fill-rule:evenodd;clip-rule:evenodd;}
</style>
<g>
	<path class="st0" d="M236.4,107.6c-0.1-2.9-0.2-6.2-0.4-10.3c-0.2-7-0.7-16.4-0.9-18.5c-0.2-5-0.3-9.9-0.4-14.5
		c-0.1-5.9-0.3-12.1-0.6-18.5c0-6,0-8.4,0.1-11.4l0-1.9c0-0.3,0.1-0.6,0.1-1c0.3-2.3,0.8-6.1-0.4-8.8l-0.1-0.1
		c-0.9-1.1-1.9-1.7-2.9-1.7c-2.7,0-4.9,3.7-5,6.8c0,0.7,0,1.5-0.1,2.3c-0.2,4.1-0.4,10.2,0.1,19c0.7,11.9,0.9,18.7,1.3,28.9l0.3,7
		c0.2,4.6,0,10.7-0.7,18.9c-1.3-2.5-3.2-6.6-3.5-7.6l-0.1-0.3c-1.3-4-1.7-4.9-2.6-9.1c-0.7-2.9-1.3-5.8-2-8.7
		c-2.7-12.1-5.5-24.6-10.6-36.1c-0.1-0.2-0.2-0.5-0.3-0.9c-0.5-1.7-1.4-4.8-5-8.4c-1.6-1.4-3.1-2.1-4.7-2.1c-3,0-5.4,2.8-5.7,6.7
		c0,0.4,0,0.8,0,1.3c0,1,0,2.2,0.1,3.4c0.1,1.5,0.3,3,0.5,4.5c0.3,2.4,0.7,4.9,0.7,7.4c0.4,12.7,0.7,27.9,0.9,42.5
		c0.2,10.5,0.4,20.4,0.6,29.3l0,0.6c0,2.2,0.1,4.8,3.5,5c2.8,0.2,4.4-1.5,4.8-5c0.1-0.6,0.1-1.2,0.1-1.8l0-0.1c0-3.5,0-7,0-10.4
		c0-7.3,0-14.9,0-22.3l0.1-5.1c0.1-9.2,0.2-21.8,0.4-29.3l0.1,0l0.2,0.3c0.5,1,1.1,2.3,1.3,2.9c1.7,5.7,3.6,13.6,5.4,21.2
		c1.1,4.8,2.2,9.3,3.2,13.2c1.5,4.5,3,8.6,4.1,11.2c0.3,0.7,0.5,1.3,0.7,1.8c1.7,4.6,2,5.2,3.4,8.8l0.7,1.8c0.3,0.8,0.6,1.6,0.9,2.5
		c1.2,3.1,2.4,6.2,3.9,9.2c0.6,1.3,2.7,2.6,4.1,2.6c0.1,0,0.3,0,0.4,0c2.1-0.4,3.8-2.6,4.4-3.5c0.9-1.2,0.5-4.5,0.5-4.8
		C236.8,118.2,236.7,114,236.4,107.6z"/>
	<path class="st0" d="M512.1,74.2c0-6,0-12.2-0.4-18.4c-0.4-7.2-1.1-14.6-1.8-21.7c-0.2-2.4-0.5-4.8-0.7-7.2
		c-0.2-1.7-0.3-3.3-0.9-4.9c-0.3-0.9-1.1-3.2-3.5-3.2c-0.4,0-0.9,0.1-1.4,0.3c-3.5,1.2-4.7,2.9-4.8,6.9c0.2,4.7,0.8,9.7,1.2,13.8
		c0.2,1.9,0.4,3.6,0.5,4.7c1.1,14.2,1.8,23.9,1.3,42.8c-0.3,13.7-1.2,22.8-2.9,27.9l0,0.2c-0.5,3.1-2.3,6-4.2,6.7
		c-0.6,0.2-2.1,0.7-3.7,0.7c-2.4,0-2.9-1.1-3.1-1.5c-2.1-4.8-3.4-8.4-4.2-13.2c-0.3-2-0.5-3.6-0.7-4.8c-0.8-4.9-0.8-4.9-1-8.7
		c-0.1-1.5-0.3-3.5-0.5-6.6c-0.4-5.4-1.4-18.2-1.6-26.5c0-1.8-0.1-3.6-0.2-5.7c-0.1-3.1-0.3-6.7-0.3-11.4l0-0.2
		c0-3.5-0.1-12.3-1-18.3l0-0.3l-0.2-0.2c-0.2-0.2-0.3-0.5-0.5-0.7c-0.6-1-1.3-2.1-2.4-2.5c-0.3-0.1-0.5-0.2-0.8-0.2
		c-1.1,0-2.7,0.7-3.4,1.7c-2.1,2.5-2.8,4.9-2.2,7.9c0.9,4.9,1.2,9.9,1.5,14.9l0,0.3c0.3,4.9,0.4,9.7,0.5,14.4
		c0.2,7.4,0.3,15,1.1,23.3c0.9,11.5,1.9,19.1,3.3,27.7c0.9,5.5,2.7,10.9,4.4,16c1.4,3.9,4.5,6.2,8.6,6.2c0.5,0,1,0,1.5-0.1
		c4-0.5,9-1.6,12.2-5.9c7.9-10.7,9.6-22.5,10.1-32.7c0.3-5.6,0.3-11.2,0.3-16.7L512.1,74.2z"/>
	<path class="st0" d="M331.7,121.3c-0.7,0-1.5,0.1-2.3,0.3c-1.8,0-4.2,0.3-6.8,0.6c-3.1,0.4-6.3,0.8-8.9,0.8c-3.3,0-4.3-0.7-4.6-1.2
		c-1.3-3-1.5-14.1-1.6-24.8c-0.1-5.3-0.2-10.8-0.4-15.2c2.6-0.1,4.4-0.2,5.8-0.3c1.1-0.1,2.1-0.2,3-0.2l0.4,0c1.5,0,4-0.1,7.1-0.6
		c0.9-0.1,1.7-0.2,2.5-0.2c2.7-0.2,5.3-0.4,5.3-3.1c0.1-1.9-0.1-3-0.7-3.7c-0.6-0.6-1.5-0.7-2.1-0.7c-0.6,0-1.2,0.1-1.9,0.1
		c-0.6,0.1-1.3,0.1-2,0.2c-4.1,0.2-8.2,0.5-12.3,0.7l-6,0.3c-1.6-15.7-2.3-29.1-2.1-42c8.3-1.6,15.6-1.9,23.2-1
		c3.8,0.2,5.2-1.7,5.7-3.2c0.6-1.8,1.2-4.3,0.1-5.9c-0.6-0.9-1.6-1.3-3.1-1.4c-0.3,0-0.7,0.1-1,0.1c-0.7,0.1-1.5,0.2-2.3,0.2
		c0,0,0,0,0,0l-0.5,0c-2.2,0-4.4,0.1-6.6,0.3c-2.1,0.1-4.4,0.3-6.5,0.3c-3.9,0-7-0.4-9.8-1.3c-3.1-1-6-0.4-7.7,1.7
		c-1.4,1.7-1.9,4.1-1.3,6.9c0.7,3.7,1.3,7,1.5,10.5c0.9,15.8,1.7,31.2,2.2,46.9c0.1,3.5,0,8-0.1,12.4c-0.1,5-0.3,10.1-0.1,14.1
		c0.1,1.2,0.1,2.4,0.1,3.8c0.1,5.7,0.3,12.1,2.5,14.2c0.7,0.9,2.4,1.3,5.8,1.3c6.7,0,18.1-1.7,25.6-2.9l2.1-0.3c2-0.1,3.1-1.8,3-3.4
		C336.7,123.4,335.1,121.3,331.7,121.3z"/>
	<path class="st0" d="M93.1,117.6c-0.6,0-1.3,0.1-1.9,0.4c-2.3,0.9-3.1,2.4-3.7,3.6c-0.7,1.3-1.2,2.3-4,2.9c-5.8,1.1-9.4-1-11-6.3
		c-3.1-10.2-4.2-21.6-3.3-33.1c0.5-6.3,0.7-9.8,0.8-12.6c0.2-4.6,0.4-7.4,1.6-17.5c0.4-3.5,1.9-11.1,3.2-15.8
		c1.3-3.3,3.4-4.7,4.8-4.7c0.3,0,0.7,0.1,0.8,0.4c1,2.9,1.8,7.3,2.3,13.4c0.2,3.6,0.7,8.9,1.2,12c0.4,2.2,2,3.6,3.9,3.6
		c1.8,0,4.1-1.4,4.7-5.4l0-0.8c0.1-2.4,0.2-4.6-0.6-11c-0.8-6.1-1.3-9.8-2.7-17.2c-1.2-4.7-4.7-7.7-9.1-7.7c-2,0-4,0.6-5.8,1.8
		l-0.1,0.1c-1.5,1.3-4,3.4-6,7c-3.9,6.9-4.3,11.2-5.8,27.6l-0.2,2.1c-0.2,3.2-0.4,6.2-0.7,8.9c-1.2,16.3-2.1,27.1,0,45.9
		c0.9,8,3.2,15.7,14.3,17.6c2.4,0.3,4.2,0.4,5.9,0.4c1.4,0,2.6-0.1,4-0.2l0.1,0c4.7-1.1,7.5-2.9,9.3-5.9c1-1.7,2-4.3,1.4-6.6
		C96.6,118.8,95.1,117.6,93.1,117.6z"/>
	<path class="st0" d="M28.2,67.3c-7.2-5.8-8.6-14.2-9.6-20.2c-0.2-2.1-0.7-9.4,3.1-12.2c0.8-0.6,2.4-1.5,4.1-1.5
		c1.4,0,2.5,0.6,3.4,1.8c1.8,2.7,2.6,4.5,2.6,9.4c0,2.6-0.3,5.6-1,9.7c-0.2,2,0.2,3.4,1.1,4.4c0.6,0.7,1.5,1,2.4,1
		c2.5,0,5-2.3,5.5-5c1.1-6.3,1.2-12.7,0.5-19c-0.5-4.4-2.8-10-8-12.4C22.7,18.8,15.9,22,11,33.4c-2.5,5.9-2.8,12.9-0.8,20.9
		c2.4,9.6,4.6,13.8,13.5,22c1.3,1.1,2.6,2.2,3.5,3.1c0.5,0.5,1,0.9,1.4,1.3c10.8,9.5,14.1,25.7,7.6,37.7c-2,3.7-5,5.6-9,5.6
		c-2.2,0-4.2-0.6-5.5-1.1c-4.6-1.6-8.2-3.2-10-7.8c-1.2-3.1,0.2-6.4,1.3-9.2c0.3-0.8,0.7-1.6,0.9-2.4c0.5-2.1,0.4-3.8-0.6-5
		c-0.8-1-2-1.5-3.5-1.5c-2.1,0-4.4,1.1-5.6,2.7c-4.9,5.2-5,12.7-3.6,17.5c3,10.1,16,15.5,26.7,16.2c0.5,0,1.1,0.1,1.6,0.1
		c6.9,0,12.8-3.2,15.7-8.6c4.3-8.1,10.2-23.9,0.4-39.4C41.3,79.2,35.9,73.5,28.2,67.3z"/>
	<path class="st0" d="M119.5,114.9c-0.1-5.6-0.2-9-0.2-12.2c-0.1-3.7-0.1-7.2-0.3-13.4c-0.2-8.2-0.3-21.5-0.4-34.4
		c-0.1-8.6-0.2-16.8-0.2-22.4c0-2.4-0.1-6.5-4.3-6.7c-1.3-0.1-2.4,0.3-3.1,1.2c-1.1,1.2-1.5,3.1-1.3,6l0.2,2
		c0.5,6.7,0.9,10.7,0.9,17.9c0.1,16.9-0.1,41.7-0.2,59.8l0,3.2c0,2-0.1,7.5,0.1,11.3l0,0.2c0.5,2.1,1.7,3.2,3.8,3.2
		c0.2,0,0.4,0,0.7,0l0.2,0c2.1-0.1,4.3-1.2,4.4-3.6c0.3-3.2,0-8.3-0.1-10.8C119.6,115.5,119.5,115.1,119.5,114.9z"/>
	<path class="st0" d="M555.1,82.5c-4.7-5.5-9.2-11.2-13.4-16.5c-4.5-5.7-6.5-11.6-6.4-18.4c0.4-5.5,1.5-12.3,6.5-16.5
		c0.8-0.6,1.5-1,2-1c0.8,0,1.6,0.9,2,1.6c0.8,1.3,1.3,2.4,1.4,3.2c0.1,1.5,0.1,3,0,4.5c0,1.2-0.1,2.5,0,3.8c0,0.1,0,0.3,0,0.4
		c0,1.1,0,2.5,1,3.5c0.6,0.6,1.3,0.8,2.1,0.8c0.2,0,0.4,0,0.5,0c2.2,0,3.2-1,4-2.1l0.1-0.2c0.9-1.5,1.2-3.2,1.3-4
		c0.7-5.7,0.9-9.8-1.6-14.1l-0.1-0.1c-2-2.8-4.6-4.9-7.5-5.9c-1.1-0.5-2.4-0.8-3.8-0.8c-3.3,0-6.7,1.6-9.6,4.6
		c-8.6,8.5-8.4,30.4-1.9,39.4c0.7,1,1.4,1.9,2.1,2.9c2,2.8,4.1,5.6,6.2,8.4c1.3,1.7,2.7,3.4,4,5c2.2,2.6,4.4,5.4,6.3,8.2
		c1.5,2.1,2.6,5,3.2,7.9c1.8,9.4-3.6,21.1-6.4,23.6l-0.1,0.1c-2.6,2.7-5.9,3.3-7.4,3.5c-0.1,0-0.4,0.1-0.8,0.1
		c-0.9,0-2.7-0.2-4.8-1.4c-2-1.2-4.1-2.2-6.2-3.2l-1.4-0.7c-0.7-0.4-1.5-0.5-2.3-0.5c-2.2,0-4,1.4-4.5,3.3c-0.7,2.9,1.7,4.7,3,5.6
		l0.2,0.1c1.8,1.4,3.2,2,5,2.8c0.5,0.2,1.1,0.5,1.8,0.8c2.6,1.3,5.2,1.9,8,1.9c2.3,0,4.4-0.5,5.9-0.9c4-0.7,7.6-2.8,10.5-6.1
		c4.3-5.2,5.7-9.2,7.3-15.2C564.5,100.5,562.3,90.9,555.1,82.5z"/>
	<path class="st0" d="M177.4,122.9c-0.9,0-1.7,0.1-2.5,0.3c-4.3,0.5-7,0.6-9.8,0.8c-1.4,0.1-2.9,0.2-4.7,0.3c-0.7,0-1.4,0.1-2.2,0.2
		c-1.7,0.2-3.4,0.3-5,0.3c-2,0-3.3-0.3-4.1-0.8c-1.2-3-2.7-25.4-3.4-36.3l-0.1-0.8l17.4-1.6c2.2-0.3,3.7-1.9,3.5-4.2
		c-0.1-2.4-2.1-4.9-5.4-4.4l-1.2,0.2c-3.6,0.6-8.1,1.3-12.4,1.3c-0.9,0-1.8,0-2.7-0.1l-3-43.4c1.7,0.2,3.3,0.4,5,0.6
		c4.6,0.5,8.9,1,13.3,1.3c4.3,0.2,6.2,0.1,9.1,0c1.1-0.1,2.4-0.1,4.2-0.2c1.5,0,4.1-0.4,5.4-1.9c0.6-0.7,1.8-3,1.3-4.9
		c-0.2-0.8-0.9-1.8-2.5-2.3l-0.3,0c-19.2,0-33.3-2.6-39.3-3.7l-0.1,0c-1.2-0.1-2.1,0.4-2.9,1.2c-2.3,2.5-2.1,8-2,9.6
		c0.5,6.9,1.1,13.6,1.8,20.1c0.6,6.5,1.3,13.1,1.7,19.9c1.2,16.8,2.1,33.9,2.9,50.5l0,0.1c0.3,5.9,2.2,7.7,7.6,7.7c0.3,0,0.6,0,1,0
		c9.1-0.3,12.7-0.6,20.6-1.2l3-0.3c5.9-0.3,10.6-0.5,10.8-3.8l0-0.2l-0.1-0.2C181.6,124.1,180,122.9,177.4,122.9z"/>
	<path class="st0" d="M280.6,123c-0.8,0-1.7,0.2-2.6,0.5c-0.7,0.1-1.5,0.2-2.3,0.2c0,0,0,0,0,0c-2,0-6.8-0.4-8.6-4.1l0-0.1
		c-9-15.1-12.5-49.2-10.6-72.2c0.6-7.1,3.1-13,7.5-17.6c1.2-1.2,2.4-1.9,3.4-1.9c1.6,0,2.8,1.5,3.5,2.7c0.8,1.5,1.3,3.2,1.7,4.7
		c0.5,1.9,0.9,3.9,1.4,5.9c0.7,3.2,1.5,6.5,2.4,9.7c0.4,1.5,2.4,3.5,4,3.6c1.3,0.1,2.5-0.4,3.3-1.2c0.7-0.8,1-1.9,0.9-3
		c-0.2-2-0.4-4-0.6-6c-0.2-2.1-0.4-4.3-0.6-6.4c-0.1-1-0.4-2.5-1.2-3.8c-0.7-1.1-1.5-2.7-2.3-4.2c-0.5-1-1-1.9-1.5-2.7
		c-2.4-4.2-6.3-6.5-10.7-6.5c-4.2,0-8.2,2.2-11,6c-4.4,6-6.8,12.8-7.3,20.9c-1.3,17.7-1.9,41.7,2.3,55.9c2.6,8.9,5.8,18.8,10.4,23.4
		c2.8,3.4,10.1,5.5,15.2,5.5c5,0,8-1.9,8.1-5.1l0-0.1l0-0.1C285.3,124.8,283.4,123,280.6,123z"/>
	<path class="st0" d="M355.8,27.3c10.6-12.5,52.8-43.9,93.9,1.3c5.1,5,6-2.5,2.9-6c-14-16.2-56.5-40.9-98.2-0.9
		C346.2,26.9,350.1,34.1,355.8,27.3z"/>
	<path class="st0" d="M452.1,124.7c-4.5,5.6-52.8,41.9-91.9,2.6c-4.9-5.8-4.9-5.8-4.9-5.8c-2.7-2.4-7.1-0.7-3.9,4.1
		c3.3,4.9,44.6,52.9,104.1,3.4C458.7,126.2,456.5,119,452.1,124.7z"/>
	<path class="st0" d="M426.9,64.2c1.3-1.5,0.8-3.3-0.8-4.7c-5.7,1-11.1-0.5-16.6-1.9c-1.6-0.4-3.6-0.8-4.2,0.8
		c-0.9,2.2-1.9,5.2-1.1,7.1c1,2.4,0.9,4.5,0.8,6.8c-0.1,6.5-0.3,13-0.2,19.4c0,1,1,2.5,1.9,2.8c0.8,0.3,2.4-0.5,3-1.3
		c0.9-1.1,1.4-2.7,1.7-4.1c0.3-1.8,0.3-3.7,0.4-5.7c2.1-0.3,3.9-0.6,5.8-0.8c2.2-0.3,4.4-0.4,6.6-0.9c1.6-0.3,2.4-1.5,2.1-3.2
		c-0.3-1.4-1.1-2.2-2.7-2c-2,0.2-4.1,0.5-6.1,0.7c-2,0.1-3.9,0.1-6.3,0.2c-0.1-3.9-0.2-7.1-0.4-11.1c3.8,0.4,7.1,0.6,10.3,1.2
		C424,67.9,425.4,65.9,426.9,64.2z"/>
	<path class="st0" d="M380.7,68.8c-2.9,5.9-5.1,12-3.6,18.6c1,4.4,4.1,6.3,9.7,6.5c4.2,0.2,8-2.5,9.6-6.1c4-8.7,2-17.1-1-25.5
		c-0.4-1.1-1.7-1.9-3-2.3C389,58.9,383.3,63.6,380.7,68.8z M390.4,86.4c-1.7,3-3.8,3.1-5.7,0.2c-1.4-2.1-2-4.4-1.7-7.1
		c0.5-4.7,3.2-11.8,5.4-12.6c3.9-1.1,3.9,2.2,4.2,4.4C393.4,76.5,393,81.7,390.4,86.4z"/>
</g>
</svg>
