<?xml version="1.0" encoding="UTF-8" standalone="no"?>
<svg width="512px" height="152px" viewBox="0 0 512 152" version="1.1" xmlns="http://www.w3.org/2000/svg" xmlns:xlink="http://www.w3.org/1999/xlink">
    <!-- Generator: Sketch 3.6.1 (26313) - http://www.bohemiancoding.com/sketch -->
    <title>Logo-512x152</title>
    <desc>Created with Sketch.</desc>
    <defs></defs>
    <g id="Page-1" stroke="none" stroke-width="1" fill="none" fill-rule="evenodd">
        <g id="Logo-512x152">
            <g id="Logo:-Full-Color" transform="translate(1.000000, 0.000000)">
                <path d="M0,112.528608 L8.91308901,97.6714704 C16.9777592,102.76504 25.4673089,105.736735 32.6822199,105.736735 C36.9269948,105.736735 38.6251728,104.463343 38.6251728,101.916558 L38.6251728,101.491647 C38.6251728,98.9448628 34.8052775,97.6714704 27.5890262,95.5495967 C14.0062827,92.1529902 2.97147644,87.4843318 2.97147644,73.4770162 L2.97147644,73.0521053 C2.97147644,58.1949678 14.8560419,50.1297029 30.5605026,50.1297029 C40.7468901,50.1297029 50.9332775,53.1013985 58.9979476,58.1949678 L50.5097382,73.4770162 C43.2934869,69.6554988 35.6536963,67.1087141 30.135623,67.1087141 C26.3157277,67.1087141 24.6175497,68.3821064 24.6175497,70.5053206 L24.6175497,70.9288911 C24.6175497,73.4770162 28.437445,74.7504085 35.6536963,76.8722822 C49.2364398,80.6924592 60.2712461,85.3624581 60.2712461,98.9448628 L60.2712461,99.7946846 C60.2712461,115.075393 48.8115602,122.715747 32.2586806,122.715747 C20.7976545,122.715747 9.33796859,119.745391 0,112.528608 L0,112.528608 Z" id="Fill-1" fill="#3F3F44"></path>
                <path d="M110.305843,81.1171021 C109.457424,73.4767481 104.78777,68.8067493 98.4212775,68.8067493 C92.0547853,68.8067493 87.8100105,73.9003186 86.536712,81.1171021 L110.305843,81.1171021 Z M63.616,87.0604932 L63.616,87.0604932 C63.616,66.6848755 78.0471623,50.9792566 98.4212775,50.9792566 C122.190408,50.9792566 133.226555,68.3831788 133.226555,88.757456 L133.226555,93.8510254 L86.536712,93.8510254 C88.6584293,101.49272 93.7529634,105.312897 101.392754,105.312897 C107.334366,105.312897 111.579141,103.189683 116.672335,98.5210242 L129.830199,109.556644 C123.038827,118.04682 113.700859,123.5653 100.119455,123.5653 C78.8969215,123.140389 63.616,108.708163 63.616,87.0604932 L63.616,87.0604932 Z" id="Fill-3" fill="#3F3F44"></path>
                <path d="M138.357948,121.442756 L162.551958,121.442756 L162.551958,28.481095 L138.357948,28.481095 L138.357948,121.442756 Z" id="Fill-5" fill="#3F3F44"></path>
                <path d="M214.799816,81.3511382 C213.951397,73.7107842 209.281742,69.0407854 202.91525,69.0407854 C196.548758,69.0407854 192.303983,74.1343547 191.030685,81.3511382 L214.799816,81.3511382 Z M167.686434,87.2945293 L167.686434,87.2945293 C167.686434,66.9189116 182.117596,51.2132927 202.490371,51.2132927 C226.259502,51.2132927 237.295648,68.6172149 237.295648,88.9914922 L237.295648,94.0850615 L191.030685,94.0850615 C193.152402,101.726756 198.246936,105.546933 205.886727,105.546933 C211.828339,105.546933 216.073114,103.423719 221.166308,98.7550603 L234.324172,109.79068 C227.5328,118.280856 218.194831,123.799336 204.613428,123.799336 C182.966015,123.374425 167.686434,108.942199 167.686434,87.2945293 L167.686434,87.2945293 Z" id="Fill-7" fill="#3F3F44"></path>
                <path d="M241.474882,87.2938591 L241.474882,87.2938591 C241.474882,67.7680632 256.754463,51.2126225 278.401876,51.2126225 C292.408159,51.2126225 301.746128,57.1560137 307.689081,66.4946709 L291.134861,78.8036833 C287.739845,74.1350249 283.91995,71.5882402 278.401876,71.5882402 C270.762086,71.5882402 264.819133,78.3801128 264.819133,86.8689482 L264.819133,87.2938591 C264.819133,96.2076054 270.337206,102.999478 278.401876,102.999478 C284.344829,102.999478 287.739845,100.452693 291.55974,95.7840349 L307.689081,107.669477 C301.322588,117.008134 291.98462,123.375096 277.128578,123.375096 C256.754463,123.375096 241.474882,106.819655 241.474882,87.2938591" id="Fill-8" fill="#3F3F44"></path>
                <path d="M319.430635,100.028319 L319.430635,72.0123469 L311.365964,72.0123469 L311.365964,52.486551 L319.430635,52.486551 L319.430635,35.0826289 L343.624645,35.0826289 L343.624645,52.486551 L359.753985,52.486551 L359.753985,72.0123469 L343.624645,72.0123469 L343.624645,95.3596602 C343.624645,100.028319 345.746362,102.150192 350.416017,102.150192 C353.811032,102.150192 356.782509,101.301711 359.752645,100.028319 L359.752645,119.130544 C355.50921,121.677329 349.566258,122.950721 342.774886,122.950721 C328.343724,122.950721 319.430635,116.582419 319.430635,100.028319" id="Fill-9" fill="#3F3F44"></path>
                <path d="M389.989864,0 L339.663749,151.466667 L367.376084,151.466667 L417.700859,0 L389.989864,0 Z" id="Fill-10" fill="#FAD506"></path>
                <path d="M425.891384,96.6323823 L425.891384,93.2371162 C423.344787,92.3872944 419.948431,91.538813 416.553416,91.538813 C409.762044,91.538813 405.517269,94.9340791 405.517269,100.027648 L405.517269,100.452559 C405.517269,105.122558 408.913625,108.092913 414.006819,108.092913 C421.22307,108.092913 425.891384,103.424255 425.891384,96.6323823 M382.173018,101.725952 L382.173018,101.725952 C382.173018,87.2937251 392.784285,79.6533711 409.338505,79.6533711 C415.704997,79.6533711 422.071489,80.9267634 425.891384,82.2001558 L425.891384,80.9267634 C425.891384,73.7099799 421.646609,69.8898029 412.308641,69.8898029 C405.09373,69.8898029 399.575657,71.1631953 393.209164,73.7099799 L388.115971,56.7309687 C395.755761,53.3357027 404.243971,51.2124885 416.128536,51.2124885 C428.437981,51.2124885 436.927531,54.1841841 442.444264,59.7026643 C447.538798,64.7962336 449.660515,72.0130171 449.660515,81.7752448 L449.660515,121.251747 L425.891384,121.251747 L425.891384,114.036304 C421.22307,119.129874 414.855238,122.52514 405.517269,122.52514 C392.359405,122.950051 382.173018,115.734608 382.173018,101.725952" id="Fill-11" fill="#3F3F44"></path>
                <path d="M456.138387,121.677329 L480.332398,121.677329 L480.332398,28.7156673 L456.138387,28.7156673 L456.138387,121.677329 Z" id="Fill-12" fill="#3F3F44"></path>
                <path d="M486.574241,121.677329 L510.768251,121.677329 L510.768251,28.7156673 L486.574241,28.7156673 L486.574241,121.677329 Z" id="Fill-13" fill="#3F3F44"></path>
            </g>
        </g>
    </g>
</svg>