<svg xmlns="http://www.w3.org/2000/svg" width="50" height="50" viewBox="0 0 50 50"><circle fill-rule="evenodd" clip-rule="evenodd" fill="#32E0BD" cx="24.983" cy="25" r="24.851"/><path fill="#fff" d="M19.756 32.525c-1.41-.63-2.75.73-2.693 1.762.082 1.438 2.62 3.118 4.013 3.91 2.267 1.286 4.947.977 5.776.694 1.106-.376 2.12-1.077 2.92-2.09.955-1.206 1.63-2.522 2.003-4.023.613-2.467-.308-5.358-2.506-7.442-1.272-1.205-2.487-2.445-3.725-3.716-1.122-1.16-1.667-2.38-1.708-3.797.03-1.122.188-2.503 1.134-3.44.76-.515 1.327-.57 1.8-.114.318.413.496.72.605 1.06.214.653.99 2.817 2.356 2.802.975-.05 1.423-.532 1.74-.997.325-.577.352-1.22.07-1.943-.33-.853-.728-1.815-1.653-3.055-.647-.743-1.518-1.29-2.366-1.517-2.01-.376-4.1.102-5.754 1.574-2.593 2.308-2.125 7.962-.084 10.23l.588.657c.563.64 1.15 1.295 1.75 1.926.373.398.766.785 1.145 1.157.59.582 1.203 1.187 1.73 1.804.346.414.628.972.79 1.575.53 1.938-.28 4.19-1.226 5.05-.483.493-1.898.636-3.182.223-1.092-.35-2.21-1.705-3.522-2.29z"/></svg>