<svg viewBox="0 0 330 78" xmlns="http://www.w3.org/2000/svg" role="presentation"><g fill="#221F20" fill-rule="evenodd"><path d="M151.298 70.076c-2.928 2.12-14.44 7.57-27.565 7.57-23.222 0-37.357-16.96-37.357-38.568 0-21.506 15.75-38.367 39.68-38.367 10.2 0 19.69 2.828 24.838 4.948l2.12 16.458-1.11.303C143.827 9.19 136.96 3.84 125.046 3.84c-20.093 0-29.078 15.045-29.078 35.238 0 20.295 8.785 35.44 27.968 35.44 14.64 0 22.314-8.784 28.27-22.72l1.212.304-2.12 17.974zM183.785 52.01V17.986c0-7.27-.708-10.198-4.24-15.65v-.202h16.758v.2c-3.028 4.747-4.137 8.382-4.137 15.652v33.722c0 16.66 8.984 22.617 20.596 22.617 15.852 0 20.8-11.208 20.8-23.525V19.802c0-7.975-1.212-11.308-7.17-17.467v-.2h16.56l.3.2c-5.248 6.16-6.46 9.492-6.46 17.467V50.7c0 14.437-6.26 26.856-25.444 26.856-14.943 0-27.563-7.37-27.563-25.546M304.97 76.133h-16.46v-.2c3.334-5.15 4.04-8.08 4.04-14.946V4.95l-13.127.405c-3.635.202-9.693 10.3-14.135 16.862l-1.11-.404 3.938-19.588h57.147l4.04 19.588-1.212.404c-4.442-6.563-10.398-16.66-14.135-16.862L300.93 4.95v56.037c0 6.967.708 9.795 4.04 14.945v.2zM1 55h65v-1H1"/><g><path d="M11.008 44.442H5.53v-.046c.785-1.645 1.024-2.55 1.024-4.766V27.906l-1.932.098c-1.142.093-3.003 2.906-4.17 4.55L0 32.388.93 27h14.677l.955 5.387-.455.168c-1.24-1.645-2.977-4.458-4.166-4.55l-1.932-.1v11.748c0 2.193.213 3.098 1 4.743v.046zM30.478 44.442H25v-.046c.763-1.645 1.002-2.55 1.002-4.766v-7.814c0-2.242-.24-3.124-1.002-4.766V27h5.478v.05c-.787 1.642-1.022 2.548-1.022 4.74v3.217h7.647v-3.19c0-2.22-.214-3.125-1.024-4.767V27h5.503v.05c-.76 1.642-1.026 2.548-1.026 4.74v7.863c0 2.193.265 3.098 1.026 4.743v.046H36.08v-.046c.81-1.645 1.023-2.55 1.023-4.766v-3.646h-7.647v3.67c0 2.192.235 3.097 1.022 4.742v.046zM63.77 44.442H51v-.046c.666-1.62 1-2.6 1-4.553v-8.24c0-1.958-.334-2.934-1-4.553V27h11.7l.953 4.553-.454.166c-1.216-1.217-2.862-3.576-3.954-3.645l-3.79-.192v7.266h1.786c1.168 0 2.265-1.55 2.908-2.43h.476v5.863h-.476c-.643-.86-1.74-2.433-2.93-2.433h-1.764v7.41l4.074-.166c1.763-.073 3.67-2.715 4.935-4.504l.45.168-1.145 5.384z"/></g></g></svg>
