<svg xmlns="http://www.w3.org/2000/svg" role="presentation" width="36" height="36" viewBox="0 0 36 36" preserveAspectRatio="xMinYMin meet">
  <path fill-rule="evenodd" clip-rule="evenodd" fill="#28A9E1" d="M5.4 0h25.2c3 0 5.4 2.4 5.4 5.4v25.2c0 3-2.4 5.4-5.4 5.4h-25.2c-3 0-5.4-2.4-5.4-5.4v-25.2c0-3 2.4-5.4 5.4-5.4z"/>
  <path fill="#fff" d="M28.2 12.3c-.7.3-1.4.5-2.2.6.8-.5 1.4-1.2 1.7-2.1-.7.4-1.5.7-2.4.9-.7-.7-1.7-1.2-2.8-1.2-2.1 0-3.8 1.7-3.8 3.8 0 .3 0 .6.1.9-3.1-.2-5.9-1.7-7.8-3.9-.3.6-.5 1.2-.5 1.9 0 1.3.7 2.5 1.7 3.1-.6 0-1.2-.2-1.7-.5 0 1.8 1.3 3.3 3 3.7-.3.1-.6.1-1 .1-.2 0-.5 0-.7-.1.5 1.5 1.9 2.6 3.5 2.6-1.3 1-2.9 1.6-4.7 1.6-.3 0-.6 0-.9-.1 1.7 1.1 3.6 1.7 5.8 1.7 6.9 0 10.7-5.7 10.7-10.7v-.5c.8-.4 1.5-1 2-1.8z"/>
</svg>
