<svg xmlns="http://www.w3.org/2000/svg" viewBox="00 0 604 186" preserveAspectRatio="xMinYMin meet"><path d="M73.05 18.753c-2.847-.572-6.057 1.165-7.136 3.86L44.667 74.667 27.07 12.643c-.732-2.81-3.6-5.805-6.375-6.66l-16.01-4.75C1.907.38.364 1.943 1.25 4.71L38.785 124.73c.887 2.766 1.835 4.994 3.922 4.994 2.312 0 3.24-2.22 4.375-4.89L87.245 26.76c1.136-2.67-.262-5.325-3.11-5.897l-11.084-2.11zm491.945 88.902c-.095-2.903-2.546-5.19-5.447-5.087l-34.71 1.307c-2.9.104-3.99-.88-4.03-3.783l-.123-12.404c-.04-2.903.736-3.95 3.627-4.224l31.69-3.024c2.893-.272 5.183-2.87 5.095-5.77l-.467-15.18c-.088-2.902-2.515-4.95-5.392-4.548L524.75 59.45c-2.876.4-4.268-.885-4.397-3.785l-.264-11.613c-.13-2.9.858-4.56 3.693-5.19l33.643-7.127c2.836-.63 5.122-3.52 5.083-6.423L562.25 5.78c-.04-2.903-2.358-4.646-5.157-3.87 0-.002-9.412 3.012-25 7.17-15.59 4.157-28.257 7.038-28.257 7.038-2.8.774-5.04 3.782-4.98 6.685l2.03 101.48c.06 2.904 2.48 5.318 5.385 5.366l54.194.882c2.903.047 5.2-2.287 5.104-5.19l-.575-17.687zm-410.712-76.06c-2.884-.335-5.27 1.766-5.303 4.67l-.495 42.553c-.095 5.7 1.87 27.723-13.93 27.32-16.344-.416-13.804-24.838-13.752-34.05l.664-39.52c.05-2.903-2.258-5.654-5.124-6.112l-10.63-1.763c-2.867-.458-5.247 1.542-5.29 4.445l-.77 53.652c0 31.663 12.284 46.616 32.935 46.616 24.106 0 37.27-13.964 37.27-43.99l.465-46.644c.03-2.903-2.305-5.553-5.19-5.887l-10.85-1.29zM468.72 87.4c-.562-1.353.18-1.98 1.943-3.895 3.827-4.157 10.064-13.426 10.064-26.952 0-13.508-4.87-23.277-15.363-27.284-7.267-2.776-12.773-2.833-22.17-1.32-6.044.97-17.7 2.374-17.7 2.374-2.878.39-5.202 3.084-5.167 5.988l1.052 87.09c.034 2.902 2.438 5.297 5.342 5.32l10.274.09c2.903.024 5.264-2.332 5.247-5.235l-.136-28.325s3.155.13 5.926-.232c2.18-.285 2.43 1.184 3.63 3.827l11.433 25.467c1.2 2.644 4.557 4.833 7.46 4.866l12.582.145c2.903.032 4.29-2.102 3.085-4.74L468.72 87.4zm-27.68-37.478c1.914-1.518 19.07-4.42 19.07 8.71 0 12.206-9.7 15.373-18.806 15.373l-.264-24.083zm-41.12-11.497c-.026-2.903-2.414-5.06-5.305-4.794l-10.39 1c-2.89.265-5.244 2.86-5.234 5.762 0 0 .158 37.826.158 47.466 0 7.206-2.553 19.007-14.165 18.916-12.67-.1-14.867-12.67-14.78-20.85.087-8.094-.03-43.637-.03-43.637-.01-2.903-2.39-5.165-5.29-5.025l-11.308.548c-2.898.14-5.27 2.63-5.27 5.532l.256 42.564c-.085 31.865 12.583 42.687 33.697 43.392 26.478.885 39.11-14.957 38.092-46.103l-.43-44.77zm-154.95 73.982c.028-2.903-2.323-5.305-5.226-5.34l-29.07-.466.498-64.596c.017-2.903-2.338-5.45-5.233-5.658l-10.925-.825c-2.895-.207-5.285 1.997-5.31 4.9l-.713 82.543c-.024 2.903 2.33 5.27 5.233 5.26l45.307-.16c2.903-.01 5.303-2.395 5.333-5.298l.104-10.358zm69.78-68.464c.017-2.903-2.345-5.29-5.247-5.303 0 0-11.385.354-30.517.354-19.132 0-31.77-.658-31.77-.658-2.903-.013-5.264 2.35-5.248 5.254l-.013 11.79c.017 2.903 2.406 5.322 5.31 5.373l15.93.1c2.904.05 3.26.508 3.26 3.412l.032 58.52c0 2.904 2.377 5.28 5.28 5.28h12.053c2.903 0 5.276-2.376 5.276-5.28l-.033-58.502c0-2.903.526-3.177 3.43-3.19l16.796-.06c2.902-.013 5.292-2.398 5.31-5.3l.15-11.79z"/></svg>