<?xml version="1.0" encoding="UTF-8" standalone="no"?>
<svg width="65px" height="107px" viewBox="0 0 65 107" version="1.1" xmlns="http://www.w3.org/2000/svg" xmlns:xlink="http://www.w3.org/1999/xlink" xmlns:sketch="http://www.bohemiancoding.com/sketch/ns">
    <!-- Generator: Sketch 3.0.3 (7891) - http://www.bohemiancoding.com/sketch -->
    <title>Slice 1</title>
    <desc>Created with Sketch.</desc>
    <defs></defs>
    <g id="Page-1" stroke="none" stroke-width="1" fill="none" fill-rule="evenodd" sketch:type="MSPage">
        <g id="menu_sep10" sketch:type="MSLayerGroup" fill="#F2DFC2">
            <path d="M20.542,64.254 C20.932,64.347 21.322,64.44 21.712,64.532 L21.672,64.748 C21.278,64.687 20.884,64.626 20.489,64.566 C20.507,64.462 20.524,64.358 20.542,64.254" id="Fill-6" sketch:type="MSShapeGroup"></path>
            <path d="M10.591,24.94 L34.68,31.281 L45.491,17.856 L10.591,24.94 L10.591,24.94 Z M35.044,33.369 L34.795,33.336 L6.026,25.765 C5.585,25.648 5.283,25.245 5.296,24.79 C5.309,24.334 5.634,23.948 6.08,23.857 L47.761,15.397 C48.166,15.315 48.579,15.496 48.792,15.848 C49.007,16.201 48.978,16.65 48.719,16.971 L35.807,33.003 C35.619,33.238 35.336,33.369 35.044,33.369 L35.044,33.369 Z" id="Fill-7" sketch:type="MSShapeGroup"></path>
            <path d="M35.163,40.278 L34.907,40.244 L6.018,32.407 C5.592,32.291 5.295,31.904 5.295,31.462 L5.295,25.167 C5.295,24.626 5.734,24.188 6.275,24.188 C6.816,24.188 7.254,24.626 7.254,25.167 L7.254,30.713 L34.814,38.189 L47.358,23.191 L47.358,16.175 C47.358,15.634 47.357,15.378 47.898,15.378 C48.439,15.378 49.317,15.634 49.317,16.175 L49.317,23.546 C49.317,23.776 49.236,23.999 49.089,24.175 L35.915,39.927 C35.726,40.153 35.449,40.278 35.163,40.278" id="Fill-8" sketch:type="MSShapeGroup"></path>
            <path d="M35.163,40.278 C34.63,40.278 34.193,39.851 34.184,39.315 L34.065,32.406 C34.056,31.865 34.487,31.419 35.028,31.41 L35.045,31.41 C35.578,31.41 36.015,31.837 36.023,32.373 L36.142,39.282 C36.151,39.823 35.721,40.268 35.18,40.278 L35.163,40.278" id="Fill-9" sketch:type="MSShapeGroup"></path>
            <path d="M35.279,49.155 C34.049,49.155 29.515,47.812 7.367,41.119 C5.255,40.481 3.851,40.056 3.649,40 C3.294,39.9 3.025,39.61 2.953,39.249 C2.88,38.888 3.017,38.516 3.306,38.288 L6.023,36.144 C6.447,35.807 7.391,35.122 7.726,35.547 C8.062,35.972 9.525,35.79 9.101,36.125 L5.997,38.659 C6.543,38.824 7.196,39.021 7.933,39.244 C14.611,41.262 31.7,46.426 34.794,47.171 L48.515,31.804 L46.617,30.422 C46.178,30.105 46.363,29.798 46.679,29.359 C46.996,28.92 48.471,29.357 48.91,29.674 L50.542,30.851 C50.768,31.013 50.913,31.263 50.943,31.539 C50.973,31.814 50.885,32.09 50.7,32.297 L35.894,48.88 L35.814,48.958 C35.693,49.067 35.594,49.155 35.279,49.155" id="Fill-10" sketch:type="MSShapeGroup"></path>
            <path d="M7.243,49 L34.855,58.208 L47.357,43.92 L47.345,40.004 L35.9,53.092 C35.647,53.381 35.249,53.497 34.882,53.385 L7.183,45.076 L7.243,49 L7.243,49 Z M35.163,60.323 C35.06,60.323 34.955,60.306 34.853,60.272 L5.965,50.639 C5.57,50.507 5.302,50.141 5.296,49.725 L5.204,43.769 C5.199,43.457 5.343,43.161 5.592,42.973 C5.842,42.785 6.166,42.726 6.464,42.816 L34.841,51.328 L46.192,38.347 L44.882,38.328 C44.341,38.318 44.667,37.88 44.677,37.34 C44.686,36.805 45.123,36.378 45.655,36.378 L45.673,36.378 L48.333,36.426 L48.334,36.426 C48.582,36.431 48.808,36.527 48.978,36.684 L49.067,36.776 L49.067,36.777 C49.197,36.933 49.28,37.129 49.293,37.344 L49.293,37.346 L49.295,37.408 L49.317,44.284 C49.317,44.522 49.231,44.752 49.074,44.932 L35.9,59.988 C35.711,60.205 35.44,60.323 35.163,60.323 L35.163,60.323 Z" id="Fill-11" sketch:type="MSShapeGroup"></path>
            <path d="M35.293,58.575 C34.764,58.575 34.329,58.153 34.315,57.621 L34.184,52.472 C34.17,51.932 34.598,51.482 35.138,51.468 C35.686,51.49 36.128,51.882 36.142,52.422 L36.273,57.571 C36.287,58.111 35.859,58.561 35.319,58.575 L35.293,58.575" id="Fill-12" sketch:type="MSShapeGroup"></path>
            <path d="M30.051,64.257 C19.846,64.257 14.488,60.827 11.783,57.925 C8.743,54.664 8.281,51.362 8.262,51.223 C8.192,50.686 8.57,50.195 9.106,50.124 C9.64,50.055 10.132,50.43 10.204,50.964 C10.27,51.435 11.999,62.483 30.49,62.296 L30.492,62.296 C34.139,62.296 37.309,60.758 39.926,57.724 C42.839,54.346 43.86,50.496 43.835,49.693 C43.649,49.318 43.719,48.851 44.039,48.548 C44.431,48.177 45.05,48.192 45.423,48.584 C46.309,49.518 45.355,52.185 44.708,53.692 C43.643,56.17 39.472,64.255 30.502,64.255 L30.499,64.255 C30.35,64.257 30.199,64.257 30.051,64.257" id="Fill-13" sketch:type="MSShapeGroup"></path>
            <path d="M6.183,44.733 C5.76,44.733 5.371,44.458 5.244,44.032 C5.09,43.514 5.386,42.969 5.905,42.815 L11.334,41.205 C11.853,41.053 12.397,41.347 12.552,41.866 C12.706,42.384 14.151,42.424 13.632,42.578 L6.461,44.693 C6.369,44.72 6.275,44.733 6.183,44.733" id="Fill-14" sketch:type="MSShapeGroup"></path>
            <path d="M7.254,69.641 L34.857,80.621 L47.358,65.269 L47.358,61.115 L36.058,74.798 C35.793,75.12 35.354,75.239 34.963,75.093 L7.254,64.849 L7.254,69.641 L7.254,69.641 Z M35.163,82.776 C35.041,82.776 34.919,82.753 34.801,82.706 L5.913,71.216 C5.54,71.067 5.295,70.707 5.295,70.306 L5.295,63.443 C5.295,63.122 5.452,62.822 5.715,62.639 C5.979,62.457 6.314,62.412 6.615,62.524 L34.99,73.015 L46.892,58.604 L45.891,57.937 C45.441,57.637 45.035,56.718 45.335,56.269 C45.636,55.818 46.261,55.785 46.71,56.086 L48.869,57.569 L48.995,57.666 L48.996,57.666 L49.059,57.729 C49.212,57.896 49.309,58.117 49.316,58.36 L49.317,58.396 L49.317,65.617 C49.317,65.842 49.239,66.061 49.097,66.235 L35.922,82.414 C35.732,82.648 35.451,82.776 35.163,82.776 L35.163,82.776 Z" id="Fill-15" sketch:type="MSShapeGroup"></path>
            <path d="M35.163,82.776 L35.154,82.776 C34.613,82.77 34.179,82.328 34.184,81.787 L34.252,74.398 C34.257,73.861 34.695,73.428 35.231,73.428 L35.241,73.428 C35.781,73.434 36.216,73.876 36.211,74.417 L36.143,81.806 C36.137,82.343 35.7,82.776 35.163,82.776" id="Fill-16" sketch:type="MSShapeGroup"></path>
            <path d="M6.805,63.723 C6.546,63.723 6.288,63.62 6.095,63.417 C5.723,63.025 5.186,63.13 5.578,62.758 L8.715,59.58 C9.106,59.206 9.727,59.224 10.099,59.615 C10.472,60.007 10.455,60.627 10.063,60.999 L7.479,63.453 C7.29,63.633 7.047,63.723 6.805,63.723" id="Fill-17" sketch:type="MSShapeGroup"></path>
            <path d="M35.01,44.515 C34.607,44.515 34.204,44.437 33.826,44.272 C33.117,43.962 32.59,43.419 32.124,42.939 C31.571,42.371 31.207,42.024 30.813,42.014 C30.449,41.99 30.014,42.279 29.543,42.57 C28.774,43.044 27.814,43.636 26.682,43.226 C25.67,42.862 25.262,41.945 24.934,41.209 C24.731,40.752 24.539,40.322 24.276,40.152 C23.998,39.973 23.489,40.021 22.91,40.282 C22.699,40.376 22.493,40.486 22.287,40.594 C21.787,40.857 21.22,41.155 20.568,41.29 C18.904,41.632 17.104,40.731 16.384,39.191 C16.324,39.064 16.271,38.932 16.219,38.799 C16.141,38.601 16.061,38.396 15.979,38.316 C15.815,38.156 15.29,38.238 14.756,38.509 L14.487,38.648 C13.763,39.028 12.858,39.501 11.831,39.277 C10.693,39.031 10.078,38.096 9.583,37.345 C9.238,36.821 8.912,36.326 8.522,36.186 C8.191,36.066 7.737,36.17 7.213,36.291 C6.788,36.39 6.308,36.501 5.801,36.503 L5.79,36.503 C4.108,36.503 2.542,35.153 2.295,33.489 C2.132,32.39 2.547,31.265 3.351,30.622 C4.315,29.853 5.745,29.876 6.609,30.674 C6.987,31.023 7.011,31.613 6.662,31.992 C6.311,32.369 5.721,32.393 5.344,32.044 C5.159,31.872 4.756,31.888 4.514,32.08 C4.224,32.312 4.074,32.768 4.14,33.216 C4.252,33.975 5.022,34.638 5.79,34.638 L5.794,34.638 C6.091,34.637 6.432,34.558 6.793,34.475 C7.502,34.311 8.306,34.125 9.154,34.431 C10.128,34.782 10.666,35.599 11.141,36.32 C11.512,36.883 11.832,37.37 12.226,37.455 C12.593,37.535 13.094,37.273 13.621,36.997 L13.913,36.846 C15.248,36.168 16.51,36.221 17.288,36.988 C17.65,37.344 17.819,37.771 17.954,38.115 C17.992,38.211 18.03,38.309 18.073,38.401 C18.426,39.155 19.379,39.631 20.191,39.464 C20.585,39.382 20.99,39.169 21.418,38.944 C21.658,38.818 21.898,38.692 22.145,38.581 C23.336,38.044 24.453,38.045 25.288,38.585 C26.017,39.057 26.361,39.83 26.638,40.451 C26.85,40.927 27.05,41.377 27.314,41.473 C27.582,41.568 27.966,41.351 28.564,40.983 C29.214,40.581 29.96,40.127 30.86,40.15 C32.043,40.18 32.83,40.99 33.462,41.641 C33.841,42.031 34.2,42.4 34.573,42.563 C35.124,42.806 35.898,42.523 36.167,41.985 C36.295,41.728 36.364,41.375 36.436,41.001 C36.577,40.269 36.752,39.358 37.529,38.741 C38.06,38.319 38.686,38.186 39.24,38.069 C39.556,38.002 40.032,37.901 40.082,37.78 C40.117,37.695 40.075,37.43 40.044,37.236 C39.976,36.799 39.89,36.255 40.128,35.685 C40.603,34.55 41.754,34.416 42.594,34.318 C43.043,34.266 43.552,34.206 43.697,34.026 C43.843,33.844 43.708,33.314 43.589,32.847 C43.385,32.044 43.13,31.045 43.722,30.141 C44.02,29.687 44.487,29.348 45.151,29.103 C45.951,28.807 46.823,28.688 47.676,28.753 C47.849,28.767 48.023,28.788 48.196,28.81 C48.543,28.853 48.87,28.895 49.13,28.845 C49.285,28.814 49.41,28.707 49.432,28.661 C49.4,28.655 49.204,28.47 49.086,28.36 C48.75,28.043 48.289,27.61 48.178,26.932 C48.04,26.088 48.53,25.224 49.458,24.676 C49.603,24.59 49.752,24.512 49.903,24.435 C50.184,24.29 50.449,24.152 50.58,23.993 C50.725,23.817 50.819,23.248 50.632,23.016 C50.465,22.807 50.278,22.724 50.226,22.734 C49.601,22.625 49.31,23.646 49.31,23.646 C48.819,23.738 48.431,23.411 48.231,23.278 L48.069,23.182 C47.581,23.026 47.303,22.504 47.454,22.015 C47.605,21.525 48.114,21.248 48.606,21.395 C48.72,21.43 48.823,21.473 48.915,21.519 C49.22,21.266 49.59,21.121 49.998,21.101 C50.717,21.068 51.442,21.423 51.953,22.058 C52.695,22.981 52.725,24.321 52.021,25.177 C51.646,25.633 51.175,25.876 50.759,26.091 C50.64,26.153 50.52,26.214 50.406,26.282 C50.158,26.428 50.031,26.596 50.019,26.654 C50.044,26.701 50.244,26.889 50.364,27.001 C50.711,27.328 51.187,27.776 51.276,28.487 C51.416,29.61 50.477,30.481 49.488,30.675 C48.936,30.783 48.419,30.718 47.963,30.66 C47.818,30.642 47.674,30.624 47.53,30.612 C46.944,30.568 46.346,30.649 45.797,30.853 C45.457,30.978 45.33,31.09 45.282,31.162 C45.14,31.38 45.27,31.892 45.396,32.387 C45.601,33.188 45.88,34.287 45.15,35.194 C44.527,35.97 43.575,36.081 42.811,36.17 C42.471,36.21 41.902,36.276 41.849,36.403 C41.814,36.486 41.856,36.752 41.887,36.946 C41.955,37.381 42.04,37.923 41.806,38.492 C41.381,39.521 40.367,39.737 39.627,39.893 C39.257,39.972 38.875,40.053 38.688,40.201 C38.453,40.389 38.366,40.836 38.267,41.354 C38.178,41.812 38.078,42.331 37.835,42.819 C37.307,43.876 36.162,44.515 35.01,44.515" id="Fill-18" sketch:type="MSShapeGroup"></path>
            <path d="M30.601,69.761 C30.039,69.761 29.455,69.586 28.94,69.239 C28.199,68.74 27.739,68.031 27.332,67.347 C27.1,66.959 26.941,66.801 26.863,66.74 L26.628,67.017 C26.478,67.205 26.309,67.419 26.082,67.612 C24.953,68.567 23.323,68.23 22.361,67.428 C21.82,66.977 21.685,66.32 21.585,65.839 C21.558,65.705 21.514,65.328 21.476,65.219 C21.335,65.109 21.242,65.203 21.242,65.203 C21.15,65.203 20.958,65.481 20.861,65.575 C20.574,65.851 20.181,66.23 19.582,66.335 C18.351,66.551 17.174,66.158 16.499,65.316 C16.199,64.941 16.017,64.512 15.856,64.134 C15.755,63.895 15.585,63.495 15.482,63.43 C15.438,63.431 15.125,63.573 14.961,63.662 C14.626,63.842 14.21,64.067 13.707,64.128 C12.253,64.305 11.354,63.126 10.696,62.267 C10.289,61.737 9.826,61.146 9.521,61.197 C9.439,61.213 9.303,61.28 9.172,61.345 C8.956,61.452 8.688,61.584 8.366,61.653 C7.165,61.911 5.831,61.297 5.334,60.26 C3.934,57.333 5.073,55.733 5.877,55.039 C7.33,53.787 9.802,53.641 10.645,54.209 C11.093,54.512 11.731,55.489 11.429,55.937 C11.143,56.364 10.57,56 9.618,55.876 C9.251,55.778 7.709,55.873 6.994,56.682 C6.478,57.268 6.514,58.186 7.101,59.414 C7.207,59.637 7.649,59.804 7.959,59.737 C8.041,59.72 8.168,59.656 8.304,59.59 C8.529,59.478 8.809,59.34 9.15,59.274 C10.646,58.987 11.573,60.193 12.249,61.075 C12.664,61.614 13.143,62.215 13.473,62.184 C13.606,62.167 13.822,62.051 14.03,61.938 C14.482,61.694 15.102,61.359 15.862,61.509 C16.963,61.726 17.366,62.676 17.66,63.369 C17.776,63.643 17.896,63.928 18.028,64.091 C18.249,64.368 18.738,64.494 19.245,64.405 C19.27,64.388 19.409,64.253 19.501,64.165 C19.871,63.807 20.624,63.081 21.783,63.469 C23.131,63.632 23.391,64.893 23.504,65.444 C23.54,65.617 23.593,65.879 23.643,65.952 C23.991,66.238 24.563,66.33 24.815,66.118 C24.92,66.028 25.005,65.911 25.094,65.799 C25.382,65.436 25.776,64.94 26.476,64.791 C27.428,64.59 28.279,65.112 29.014,66.344 C29.32,66.858 29.629,67.342 30.035,67.615 C30.318,67.806 30.692,67.858 30.87,67.734 C31.024,67.625 31.189,67.34 31.349,67.065 C31.693,66.473 32.165,65.662 33.181,65.515 C34.379,65.339 35.098,66.252 35.577,66.853 C35.816,67.155 36.114,67.529 36.304,67.562 C36.447,67.592 36.773,67.256 36.875,66.83 C36.948,66.529 36.968,66.186 36.989,65.823 C37.016,65.372 37.045,64.861 37.186,64.349 C37.396,63.58 37.907,62.902 38.553,62.535 C39.065,62.244 39.622,62.167 40.159,62.317 C40.294,62.354 40.425,62.407 40.554,62.462 L40.698,62.519 C40.734,62.477 40.943,62.159 40.984,61.783 C41.002,61.614 41.012,61.441 41.021,61.268 C41.062,60.542 41.112,59.64 41.74,58.913 C42.213,58.366 42.844,58.129 43.352,57.939 C43.458,57.899 43.564,57.859 43.667,57.817 C44.036,57.665 44.194,57.487 44.209,57.438 L44.168,57.226 C44.123,57.016 44.059,56.727 44.094,56.395 C44.232,55.068 45.544,54.649 46.328,54.399 L46.565,54.323 C47.74,53.93 48.565,52.698 48.366,51.632 C48.272,51.13 47.836,50.693 47.317,50.397 C46.648,50.016 45.973,50.232 45.488,50.514 C45.024,50.788 45.003,50.5 44.729,50.033 C44.456,49.566 44.613,48.967 45.081,48.694 C45.978,48.168 47.09,48.14 48.131,48.615 C49.253,49.128 50.081,50.146 50.291,51.272 C50.673,53.315 49.309,55.471 47.186,56.18 L46.923,56.266 C46.645,56.354 46.126,56.52 46.021,56.651 L46.082,56.808 C46.124,57 46.177,57.241 46.165,57.523 C46.13,58.418 45.491,59.185 44.412,59.628 C44.29,59.679 44.165,59.726 44.039,59.773 C43.694,59.902 43.368,60.025 43.222,60.194 C43.031,60.415 43.004,60.882 42.977,61.377 C42.965,61.586 42.953,61.794 42.931,61.996 C42.857,62.669 42.521,63.576 41.798,64.101 C41.351,64.426 40.817,64.544 40.295,64.436 C40.118,64.399 39.949,64.333 39.782,64.262 L39.639,64.205 L39.52,64.238 C39.333,64.345 39.145,64.609 39.075,64.866 C38.989,65.181 38.967,65.548 38.944,65.938 C38.919,66.37 38.893,66.817 38.78,67.286 C38.476,68.559 37.341,69.73 35.966,69.492 C35.044,69.33 34.49,68.633 34.044,68.073 C33.871,67.856 33.581,67.492 33.453,67.452 C33.362,67.5 33.162,67.844 33.043,68.049 C32.803,68.463 32.503,68.978 31.999,69.334 C31.596,69.619 31.107,69.761 30.601,69.761" id="Fill-19" sketch:type="MSShapeGroup"></path>
            <path d="M28.062,13.586 L27.969,13.605 L27.873,13.582 L27.829,13.59 C25.871,13.358 25.389,12.13 25.36,11.09 C25.344,10.543 25.459,9.981 25.647,9.456 C26.038,9.942 26.638,10.336 27.496,10.511 C27.741,10.561 27.981,10.586 28.208,10.586 L28.209,10.586 C28.974,10.586 29.619,10.284 30.059,9.768 C30.266,10.313 30.389,10.879 30.389,11.412 C30.389,12.854 29.606,13.586 28.062,13.586 L28.062,13.586 Z M27.855,6.963 C28.417,6.963 28.873,7.419 28.873,7.981 C28.873,8.544 28.417,8.999 27.855,8.999 C27.293,8.999 26.837,8.544 26.837,7.981 C26.837,7.419 27.293,6.963 27.855,6.963 L27.855,6.963 Z M32.348,11.412 C32.349,10.062 31.846,8.563 31.003,7.401 C30.493,6.699 29.9,6.165 29.261,5.812 L29.209,5.786 C29.027,5.688 28.841,5.607 28.652,5.54 C28.646,4.186 28.644,2.686 28.693,1.189 C28.71,0.649 28.287,0.196 27.746,0.178 C27.184,0.179 26.753,0.585 26.735,1.125 C26.685,2.644 26.687,4.15 26.693,5.512 C24.688,6.221 23.326,8.868 23.391,11.146 C23.441,12.921 24.406,14.824 26.841,15.416 C26.801,17.642 26.891,19.145 26.965,20.376 C27.031,21.465 27.088,22.406 27.041,23.551 C27.019,24.092 27.439,24.548 27.979,24.57 L28.02,24.571 C28.542,24.571 28.977,24.158 28.998,23.631 C29.049,22.387 28.989,21.4 28.92,20.258 C28.845,19.008 28.761,17.608 28.799,15.488 C31.001,15.214 32.347,13.712 32.348,11.412 L32.348,11.412 Z" id="Fill-20" sketch:type="MSShapeGroup"></path>
            <path d="M6.38,107.42 C6.232,107.42 6.086,107.383 5.955,107.31 C5.746,107.195 5.594,107 5.532,106.77 L-0.264,85.24 C-0.389,84.775 -0.117,84.296 0.347,84.166 L24.231,77.477 C24.697,77.347 25.182,77.619 25.313,78.086 C25.444,78.553 26.89,78.561 26.423,78.692 L1.658,85.623 L6.992,105.436 L62.988,88.319 L56.437,69.199 L42.738,73.288 C42.276,73.427 41.785,73.163 41.645,72.698 C41.507,72.234 42.907,71.405 43.372,71.266 L56.743,67.275 C57.191,67.141 57.672,67.385 57.825,67.831 L64.943,88.608 C65.02,88.833 65.003,89.08 64.895,89.292 C64.787,89.504 64.597,89.663 64.37,89.733 L6.637,107.382 L6.38,107.42" id="Fill-21" sketch:type="MSShapeGroup"></path>
            <path d="M32.06,88.262 C31.488,88.268 31.028,88.53 30.726,89.063 C30.289,89.835 30.307,90.998 30.767,91.712 C30.845,91.832 30.926,91.94 31.011,92.036 C31.356,91.413 31.662,90.712 31.876,90.006 C32.235,88.825 32.112,88.33 32.06,88.262 L32.06,88.262 Z M12.235,99.579 C11.402,99.579 10.626,99.381 9.938,98.989 C8.705,98.285 7.785,96.966 7.348,95.275 C7.071,94.206 7.265,90.98 10.336,90.045 C11.848,89.585 12.932,90.054 13.577,90.528 C14.569,91.258 15.167,92.501 15.173,93.281 C15.181,94.448 14.553,95.542 13.573,96.068 C12.508,96.636 11.151,96.444 10.345,95.608 C9.484,94.714 9.443,93.209 10.256,92.32 C10.473,92.082 10.841,92.067 11.077,92.283 C11.314,92.499 11.331,92.867 11.114,93.104 C10.715,93.541 10.747,94.35 11.182,94.801 C11.62,95.256 12.428,95.363 13.023,95.044 C13.619,94.724 14.016,94.019 14.011,93.289 C14.008,92.928 13.631,92.011 12.888,91.465 C12.261,91.004 11.516,90.9 10.675,91.156 C8.261,91.892 8.355,94.529 8.473,94.984 C8.831,96.369 9.556,97.432 10.514,97.979 C11.378,98.472 12.411,98.551 13.584,98.215 C16.659,97.33 17.97,93.907 18.529,92.445 C18.591,92.285 18.644,92.148 18.689,92.037 C18.931,91.45 19.154,90.892 19.366,90.359 C20.64,87.166 21.56,84.86 24.081,82.613 C24.301,82.417 24.633,82.416 24.853,82.612 C25.074,82.808 25.113,83.137 24.944,83.379 C24.708,83.804 23.366,88.413 22.904,92.844 C23.038,92.529 23.171,92.216 23.303,91.906 C24.864,88.232 26.479,84.434 29.186,81.198 C29.362,80.988 29.659,80.928 29.903,81.057 C30.145,81.185 30.266,81.464 30.192,81.728 L30.043,82.247 C27.409,91.383 27.895,93.629 28.419,94.154 C28.476,94.211 28.614,94.345 29.044,94.223 C29.444,94.089 29.915,93.652 30.371,93.038 C30.158,92.843 29.963,92.61 29.79,92.342 C29.095,91.262 29.062,89.643 29.714,88.491 C30.231,87.578 31.087,87.085 32.13,87.126 C32.736,87.145 33.158,87.572 33.26,88.267 C33.405,89.257 32.869,91.054 32.011,92.6 L32.041,92.604 C32.819,92.692 33.702,92.24 34.23,91.744 C34.84,91.171 35.208,89.593 35.504,88.324 C35.872,86.753 36.114,85.714 36.834,85.454 C37.466,85.225 37.88,85.388 38.117,85.564 C38.308,85.707 38.441,85.899 38.532,86.12 C38.828,85.317 39.23,84.768 39.811,84.602 C40.648,84.364 41.175,84.578 41.472,84.802 C41.967,85.174 42.22,85.852 42.224,86.817 C42.227,87.825 42.478,89.083 42.936,89.427 C43.025,89.495 43.148,89.554 43.4,89.482 C44.121,89.276 44.223,86.77 44.285,85.272 C44.298,84.949 44.311,84.633 44.328,84.332 C44.34,84.089 44.356,83.87 44.372,83.687 C44.399,83.367 44.679,83.124 45.001,83.158 C45.304,83.185 45.532,83.439 45.532,83.738 L45.53,83.788 C45.51,84.012 45.495,84.253 45.482,84.503 C45.394,86.448 45.668,87.983 46.207,88.427 C46.313,88.515 46.477,88.603 46.811,88.508 C47.885,88.2 48.43,86.74 48.437,84.157 C48.371,83.304 48.384,82.651 48.386,82.575 C48.394,82.265 48.645,82.015 48.956,82.009 C49.274,81.996 49.527,82.243 49.547,82.553 C49.571,82.938 49.608,83.518 49.606,84.184 C49.758,85.804 50.175,87.334 50.704,87.489 C50.879,87.54 51.08,87.453 51.29,87.229 C51.791,86.695 52.01,85.76 51.858,85.342 C51.811,85.215 51.757,85.199 51.684,85.191 L51.586,85.203 C51.565,85.239 51.529,85.488 51.692,85.89 C51.812,86.188 51.669,86.527 51.372,86.647 C51.076,86.767 50.736,86.625 50.615,86.327 C50.324,85.611 50.339,84.949 50.656,84.512 C50.799,84.315 51.137,83.992 51.793,84.034 C52.352,84.1 52.763,84.431 52.95,84.944 C53.27,85.823 52.906,87.204 52.139,88.024 C51.62,88.577 50.995,88.783 50.378,88.604 C49.846,88.448 49.455,87.999 49.168,87.412 C48.815,88.454 48.196,89.32 47.131,89.625 C46.334,89.851 45.786,89.587 45.467,89.324 C45.317,89.2 45.186,89.05 45.071,88.879 C44.834,89.751 44.432,90.396 43.719,90.599 C43.17,90.758 42.658,90.673 42.237,90.357 C41.154,89.542 41.063,87.444 41.061,86.821 C41.06,86.264 40.955,85.866 40.773,85.731 C40.618,85.614 40.337,85.66 40.13,85.719 C39.43,85.92 39.033,89.289 38.903,90.397 C38.839,90.936 38.785,91.394 38.728,91.694 C38.672,91.984 38.4,92.184 38.113,92.164 C37.819,92.142 37.587,91.903 37.576,91.607 C37.552,90.994 37.545,90.577 37.539,90.159 C37.532,89.753 37.525,89.345 37.502,88.748 C37.495,88.578 37.508,88.344 37.523,88.08 C37.546,87.697 37.606,86.677 37.418,86.493 C37.424,86.501 37.355,86.502 37.229,86.547 C37.075,86.711 36.811,87.841 36.636,88.589 C36.288,90.084 35.892,91.778 35.026,92.591 C34.353,93.222 33.134,93.908 31.9,93.757 C31.713,93.734 31.532,93.693 31.358,93.633 C30.761,94.459 30.079,95.102 29.388,95.333 C28.462,95.598 27.905,95.283 27.596,94.974 C26.447,93.823 26.628,90.563 28.208,84.53 C26.646,87.011 25.496,89.719 24.373,92.36 C23.838,93.618 23.285,94.919 22.696,96.178 C22.581,96.423 22.315,96.557 22.048,96.5 C21.784,96.443 21.593,96.212 21.588,95.942 C21.529,92.548 22.383,88.176 23.11,85.394 C21.981,86.941 21.296,88.658 20.445,90.79 C20.231,91.326 20.007,91.888 19.763,92.48 C19.721,92.583 19.672,92.712 19.615,92.861 C18.993,94.485 17.537,98.287 13.906,99.332 C13.332,99.497 12.771,99.579 12.235,99.579 L12.235,99.579 Z" id="Fill-22" sketch:type="MSShapeGroup"></path>
        </g>
    </g>
</svg>