<svg xmlns="http://www.w3.org/2000/svg" role="presentation" width="36" height="36" viewBox="0 0 36 36" preserveAspectRatio="xMinYMin meet"><path d="M31.887 15.257H28.8c.173.857.345 1.886.345 2.743 0 6.17-4.972 11.143-11.144 11.143S6.858 24.17 6.858 18c0-1.03.17-1.886.343-2.743H4.115v15.257c0 .687.686 1.373 1.37 1.373h24.857c.687 0 1.37-.687 1.37-1.373.175 0 .175-15.257.175-15.257zm0-9.77c0-.688-.687-1.373-1.37-1.373H26.4c-.686 0-1.37.686-1.37 1.372V9.6c0 .687.685 1.37 1.37 1.37h4.115c.686 0 1.37-.685 1.37-1.37V5.486zM18 10.97c-3.77 0-6.857 3.087-6.857 6.858S14.23 24.685 18 24.685s6.857-3.086 6.857-6.857c.172-3.6-2.914-6.857-6.857-6.857M31.887 36H4.115C1.887 36 0 34.114 0 31.886V4.114C0 1.884 1.887 0 4.115 0h27.77C34.116 0 36 1.886 36 4.114v27.77C36 34.115 34.286 36 31.887 36" fill="#111" /></svg>
