<svg xmlns="http://www.w3.org/2000/svg" role="presentation" width="36" height="36" viewBox="0 0 36 36" preserveAspectRatio="xMinYMin meet">
  <path fill-rule="evenodd" clip-rule="evenodd" fill="#CC2127" d="M5.4 0h25.2c3 0 5.4 2.4 5.4 5.4v25.2c0 3-2.4 5.4-5.4 5.4h-25.2c-3 0-5.4-2.4-5.4-5.4v-25.2c0-3 2.4-5.4 5.4-5.4z"/>
  <path fill="#fff" d="M18.5 9.3c-5.3 0-8 3.8-8 7 0 1.9.7 3.6 2.3 4.3.3.1.5 0 .6-.3.1-.2.2-.7.2-.9.1-.3 0-.4-.2-.6-.4-.5-.7-1.2-.7-2.2 0-2.8 2.1-5.4 5.5-5.4 3 0 4.7 1.8 4.7 4.3 0 3.2-1.4 6-3.5 6-1.2 0-2-1-1.8-2.2.3-1.4 1-2.9 1-4 0-.9-.5-1.7-1.5-1.7-1.2 0-2.2 1.2-2.2 2.9 0 1.1.4 1.8.4 1.8s-1.2 5.2-1.4 6.1c-.4 1.8-.1 4 0 4.3 0 .1.2.2.3.1.1-.1 1.5-1.9 2-3.7.1-.5.8-3.1.8-3.1.4.7 1.5 1.4 2.7 1.4 3.6 0 6-3.3 6-7.7-.1-3.4-3-6.4-7.2-6.4z"/>
</svg>
