<?xml version="1.0" encoding="UTF-8" standalone="no"?>
<!-- Created with Inkscape (http://www.inkscape.org/) -->

<svg
   xmlns:dc="http://purl.org/dc/elements/1.1/"
   xmlns:cc="http://creativecommons.org/ns#"
   xmlns:rdf="http://www.w3.org/1999/02/22-rdf-syntax-ns#"
   xmlns:svg="http://www.w3.org/2000/svg"
   xmlns="http://www.w3.org/2000/svg"
   xmlns:xlink="http://www.w3.org/1999/xlink"
   xmlns:sodipodi="http://sodipodi.sourceforge.net/DTD/sodipodi-0.dtd"
   xmlns:inkscape="http://www.inkscape.org/namespaces/inkscape"
   width="186.51212"
   height="178.00185"
   id="svg2"
   version="1.1"
   inkscape:version="0.48.2 r9819"
   sodipodi:docname="kaizou.svg">
  <defs
     id="defs4">
    <linearGradient
       id="linearGradient3875">
      <stop
         style="stop-color:#ff0000;stop-opacity:0.49803922;"
         offset="0"
         id="stop3877" />
      <stop
         id="stop3893"
         offset="0.5"
         style="stop-color:#ff0000;stop-opacity:1;" />
      <stop
         id="stop3887"
         offset="1"
         style="stop-color:#ff0000;stop-opacity:1;" />
    </linearGradient>
    <radialGradient
       inkscape:collect="always"
       xlink:href="#linearGradient3875"
       id="radialGradient3881"
       cx="424.59644"
       cy="417.20566"
       fx="424.59644"
       fy="417.20566"
       r="93.249573"
       gradientTransform="matrix(1,0,0,0.95648463,0,18.154858)"
       gradientUnits="userSpaceOnUse" />
  </defs>
  <sodipodi:namedview
     id="base"
     pagecolor="#ffffff"
     bordercolor="#666666"
     borderopacity="1.0"
     inkscape:pageopacity="0.0"
     inkscape:pageshadow="2"
     inkscape:zoom="0.37935565"
     inkscape:cx="145.60148"
     inkscape:cy="94.853707"
     inkscape:document-units="px"
     inkscape:current-layer="layer1"
     showgrid="false"
     inkscape:window-width="1375"
     inkscape:window-height="880"
     inkscape:window-x="243"
     inkscape:window-y="35"
     inkscape:window-maximized="0"
     inkscape:snap-global="false"
     fit-margin-top="0"
     fit-margin-left="0"
     fit-margin-right="0"
     fit-margin-bottom="0" />
  <metadata
     id="metadata7">
    <rdf:RDF>
      <cc:Work
         rdf:about="">
        <dc:format>image/svg+xml</dc:format>
        <dc:type
           rdf:resource="http://purl.org/dc/dcmitype/StillImage" />
        <dc:title></dc:title>
      </cc:Work>
    </rdf:RDF>
  </metadata>
  <g
     inkscape:label="Layer 1"
     inkscape:groupmode="layer"
     id="layer1"
     transform="translate(-199.96458,-318.85667)">
    <path
       sodipodi:type="star"
       style="fill:url(#radialGradient3881);fill-opacity:1;fill-rule:evenodd;stroke:#000000;stroke-width:5;stroke-linecap:butt;stroke-linejoin:miter;stroke-miterlimit:4;stroke-opacity:1;stroke-dasharray:none"
       id="path3105"
       sodipodi:sides="5"
       sodipodi:cx="425"
       sodipodi:cy="425.93362"
       sodipodi:r1="95.42868"
       sodipodi:r2="47.714336"
       sodipodi:arg1="0.92879222"
       sodipodi:arg2="1.5571108"
       inkscape:flatsided="false"
       inkscape:rounded="0"
       inkscape:randomized="0"
       d="m 482.14286,502.3622 -56.48988,-28.71871 -55.68276,30.25395 9.85678,-62.59964 -45.98013,-43.60846 62.5817,-9.97 27.26547,-57.20546 28.82085,56.43784 62.83112,8.25354 -44.76945,44.85051 z"
       inkscape:transform-center-x="-0.19639809"
       inkscape:transform-center-y="-8.9256397"
       transform="matrix(0.99979303,0.02034432,-0.02034432,0.99979303,-123.22247,-17.708572)" />
    <path
       style="fill:#f6ff00;fill-opacity:1;stroke:#000000;stroke-width:2.00857949;stroke-linejoin:round;stroke-miterlimit:4;stroke-opacity:1;stroke-dasharray:none"
       inkscape:transform-center-x="-150.08179"
       inkscape:transform-center-y="132.94748"
       d="m 315.89766,448.173 -29.23958,-27.59204 c -2.12704,-2.00726 -3.11166,-4.35502 -2.33946,-5.12722 l 4.13187,-4.13187 c 0.77221,-0.77221 3.12,0.21238 5.12722,2.33946 l 27.59205,29.23958 c 2.00726,2.12705 3.74863,3.34444 2.97642,4.11665 l -4.13187,4.13187 c -0.7722,0.7722 -1.98956,-0.9692 -4.11665,-2.97643 z"
       id="rect3954"
       inkscape:connector-curvature="0"
       sodipodi:nodetypes="sssssssss" />
    <path
       style="fill:#f6ff00;fill-opacity:1;stroke:#000000;stroke-width:1.80000007;stroke-linecap:butt;stroke-linejoin:miter;stroke-miterlimit:4;stroke-opacity:1;stroke-dasharray:none"
       d="m 272.58392,434.29111 c 1.31802,-0.98852 2.22417,-2.22416 3.54219,-3.21268 6.91963,7.41389 14.33351,14.66302 21.25314,22.07691 1.25672,0.44638 1.39192,-0.18364 2.32966,-0.35316 10.78362,-10.83836 20.74348,-19.94681 31.5271,-30.78517 0.61298,-1.54661 0.81409,-3.13628 -0.23052,-3.63234 -1.69325,-1.40381 -2.38821,-2.82878 -3.88831,-3.36967 -0.9336,1.20819 -2.6086,2.16925 -3.5422,3.37744 0.35331,0.66998 2.59286,2.19562 2.25718,2.84492 -8.88021,8.66229 -18.41942,17.65409 -27.29963,26.31638 -7.02946,-6.97455 -13.39992,-14.2786 -20.42938,-21.25315 -1.04327,-0.38712 -2.01488,-1.28314 -3.17655,-0.82932 -1.03927,-0.10169 -1.61686,0.66732 -2.2265,1.37589 -1.0547,1.13584 -2.60367,2.5188 -3.65837,3.65463 0.87868,1.26311 2.66351,2.52621 3.54219,3.78932 z"
       id="path3957"
       inkscape:connector-curvature="0"
       sodipodi:nodetypes="ccccccccccccccc" />
    <rect
       style="fill:#f6ff00;fill-opacity:1;stroke:#000000;stroke-width:1.8881892;stroke-linejoin:round;stroke-miterlimit:4;stroke-opacity:1;stroke-dasharray:none"
       id="rect3952"
       width="22.271297"
       height="8.9264889"
       x="-139.14609"
       y="492.08936"
       rx="4.2401371"
       ry="1.9712421"
       transform="matrix(0.70270835,-0.71147802,0.71137133,0.70281636,0,0)" />
    <rect
       style="fill:#f6ff00;fill-opacity:1;stroke:#000000;stroke-width:1.80006266;stroke-linejoin:round;stroke-miterlimit:4;stroke-opacity:1;stroke-dasharray:none"
       id="rect3895"
       width="54.51281"
       height="16.26181"
       x="470.29993"
       y="61.780682"
       transform="matrix(0.7144739,0.69966209,-0.70386393,0.71033483,0,0)"
       ry="2.3284812"
       rx="3.2621295" />
    <path
       style="fill:#f6ff00;fill-opacity:1;stroke:#000000;stroke-width:1.80000007;stroke-linecap:butt;stroke-linejoin:miter;stroke-miterlimit:4;stroke-opacity:1;stroke-dasharray:none"
       d="m 272.77867,391.46425 c 1.15327,1.42786 1.56516,2.9381 2.71843,4.36596 0.49207,1.95297 0.32408,3.0188 0.0237,4.54794 -0.52462,1.66405 -1.09523,3.31995 -1.59128,4.98905 -0.0541,1.40663 -0.43771,2.64851 0.24958,4.21989 0.69616,1.47376 1.94268,2.23757 2.9631,3.37947 0.84267,0.67202 1.6057,1.45687 2.50243,2.05231 0.97564,0.5401 1.92829,1.16577 2.91824,1.6526 0.70734,-0.023 1.44096,0.0457 2.1321,-0.0338 1.18183,-0.78067 2.47411,-1.411 3.50149,-2.40189 0.45011,-0.42502 1.01336,-0.79064 1.39372,-1.25229 0.091,-1.04124 0.2571,-2.09122 0.30178,-3.12707 -0.42944,-1.14788 -0.35032,-2.58582 -0.84242,-3.70587 -0.63823,-1.14494 -1.64941,-2.89565 -2.72378,-3.94006 -1.78963,-1.81399 -2.72449,-3.25214 -4.48166,-5.0954 -0.7032,-0.82851 -1.83654,-1.31376 -2.57943,-2.0998 -0.96336,-0.64922 -1.87687,-1.38705 -2.87201,-1.97977 -1.20465,-0.52377 -2.40931,-1.04753 -3.61396,-1.57129 z"
       id="path3960"
       inkscape:connector-curvature="0"
       sodipodi:nodetypes="ccccccccccccccccccc" />
  </g>
</svg>
